%TF.GenerationSoftware,KiCad,Pcbnew,(6.0.4)*%
%TF.CreationDate,2022-04-28T19:14:27+02:00*%
%TF.ProjectId,MSK_RF,4d534b5f-5246-42e6-9b69-6361645f7063,rev?*%
%TF.SameCoordinates,Original*%
%TF.FileFunction,Legend,Bot*%
%TF.FilePolarity,Positive*%
%FSLAX46Y46*%
G04 Gerber Fmt 4.6, Leading zero omitted, Abs format (unit mm)*
G04 Created by KiCad (PCBNEW (6.0.4)) date 2022-04-28 19:14:27*
%MOMM*%
%LPD*%
G01*
G04 APERTURE LIST*
%ADD10C,0.150000*%
%ADD11C,0.120000*%
G04 APERTURE END LIST*
D10*
%TO.C,L1*%
X60791666Y-102132380D02*
X61267857Y-102132380D01*
X61267857Y-101132380D01*
X59934523Y-102132380D02*
X60505952Y-102132380D01*
X60220238Y-102132380D02*
X60220238Y-101132380D01*
X60315476Y-101275238D01*
X60410714Y-101370476D01*
X60505952Y-101418095D01*
%TO.C,C22*%
X74857142Y-97994642D02*
X74904761Y-97947023D01*
X74952380Y-97804166D01*
X74952380Y-97708928D01*
X74904761Y-97566071D01*
X74809523Y-97470833D01*
X74714285Y-97423214D01*
X74523809Y-97375595D01*
X74380952Y-97375595D01*
X74190476Y-97423214D01*
X74095238Y-97470833D01*
X74000000Y-97566071D01*
X73952380Y-97708928D01*
X73952380Y-97804166D01*
X74000000Y-97947023D01*
X74047619Y-97994642D01*
X74047619Y-98375595D02*
X74000000Y-98423214D01*
X73952380Y-98518452D01*
X73952380Y-98756547D01*
X74000000Y-98851785D01*
X74047619Y-98899404D01*
X74142857Y-98947023D01*
X74238095Y-98947023D01*
X74380952Y-98899404D01*
X74952380Y-98327976D01*
X74952380Y-98947023D01*
X74047619Y-99327976D02*
X74000000Y-99375595D01*
X73952380Y-99470833D01*
X73952380Y-99708928D01*
X74000000Y-99804166D01*
X74047619Y-99851785D01*
X74142857Y-99899404D01*
X74238095Y-99899404D01*
X74380952Y-99851785D01*
X74952380Y-99280357D01*
X74952380Y-99899404D01*
%TO.C,C5*%
X77466666Y-107357142D02*
X77514285Y-107404761D01*
X77657142Y-107452380D01*
X77752380Y-107452380D01*
X77895238Y-107404761D01*
X77990476Y-107309523D01*
X78038095Y-107214285D01*
X78085714Y-107023809D01*
X78085714Y-106880952D01*
X78038095Y-106690476D01*
X77990476Y-106595238D01*
X77895238Y-106500000D01*
X77752380Y-106452380D01*
X77657142Y-106452380D01*
X77514285Y-106500000D01*
X77466666Y-106547619D01*
X76561904Y-106452380D02*
X77038095Y-106452380D01*
X77085714Y-106928571D01*
X77038095Y-106880952D01*
X76942857Y-106833333D01*
X76704761Y-106833333D01*
X76609523Y-106880952D01*
X76561904Y-106928571D01*
X76514285Y-107023809D01*
X76514285Y-107261904D01*
X76561904Y-107357142D01*
X76609523Y-107404761D01*
X76704761Y-107452380D01*
X76942857Y-107452380D01*
X77038095Y-107404761D01*
X77085714Y-107357142D01*
%TO.C,C3*%
X58166666Y-96857142D02*
X58214285Y-96904761D01*
X58357142Y-96952380D01*
X58452380Y-96952380D01*
X58595238Y-96904761D01*
X58690476Y-96809523D01*
X58738095Y-96714285D01*
X58785714Y-96523809D01*
X58785714Y-96380952D01*
X58738095Y-96190476D01*
X58690476Y-96095238D01*
X58595238Y-96000000D01*
X58452380Y-95952380D01*
X58357142Y-95952380D01*
X58214285Y-96000000D01*
X58166666Y-96047619D01*
X57833333Y-95952380D02*
X57214285Y-95952380D01*
X57547619Y-96333333D01*
X57404761Y-96333333D01*
X57309523Y-96380952D01*
X57261904Y-96428571D01*
X57214285Y-96523809D01*
X57214285Y-96761904D01*
X57261904Y-96857142D01*
X57309523Y-96904761D01*
X57404761Y-96952380D01*
X57690476Y-96952380D01*
X57785714Y-96904761D01*
X57833333Y-96857142D01*
%TO.C,C23*%
X69242857Y-99537142D02*
X69290476Y-99584761D01*
X69433333Y-99632380D01*
X69528571Y-99632380D01*
X69671428Y-99584761D01*
X69766666Y-99489523D01*
X69814285Y-99394285D01*
X69861904Y-99203809D01*
X69861904Y-99060952D01*
X69814285Y-98870476D01*
X69766666Y-98775238D01*
X69671428Y-98680000D01*
X69528571Y-98632380D01*
X69433333Y-98632380D01*
X69290476Y-98680000D01*
X69242857Y-98727619D01*
X68861904Y-98727619D02*
X68814285Y-98680000D01*
X68719047Y-98632380D01*
X68480952Y-98632380D01*
X68385714Y-98680000D01*
X68338095Y-98727619D01*
X68290476Y-98822857D01*
X68290476Y-98918095D01*
X68338095Y-99060952D01*
X68909523Y-99632380D01*
X68290476Y-99632380D01*
X67957142Y-98632380D02*
X67338095Y-98632380D01*
X67671428Y-99013333D01*
X67528571Y-99013333D01*
X67433333Y-99060952D01*
X67385714Y-99108571D01*
X67338095Y-99203809D01*
X67338095Y-99441904D01*
X67385714Y-99537142D01*
X67433333Y-99584761D01*
X67528571Y-99632380D01*
X67814285Y-99632380D01*
X67909523Y-99584761D01*
X67957142Y-99537142D01*
%TO.C,C21*%
X65780357Y-99537142D02*
X65827976Y-99584761D01*
X65970833Y-99632380D01*
X66066071Y-99632380D01*
X66208928Y-99584761D01*
X66304166Y-99489523D01*
X66351785Y-99394285D01*
X66399404Y-99203809D01*
X66399404Y-99060952D01*
X66351785Y-98870476D01*
X66304166Y-98775238D01*
X66208928Y-98680000D01*
X66066071Y-98632380D01*
X65970833Y-98632380D01*
X65827976Y-98680000D01*
X65780357Y-98727619D01*
X65399404Y-98727619D02*
X65351785Y-98680000D01*
X65256547Y-98632380D01*
X65018452Y-98632380D01*
X64923214Y-98680000D01*
X64875595Y-98727619D01*
X64827976Y-98822857D01*
X64827976Y-98918095D01*
X64875595Y-99060952D01*
X65447023Y-99632380D01*
X64827976Y-99632380D01*
X63875595Y-99632380D02*
X64447023Y-99632380D01*
X64161309Y-99632380D02*
X64161309Y-98632380D01*
X64256547Y-98775238D01*
X64351785Y-98870476D01*
X64447023Y-98918095D01*
%TO.C,C7*%
X77466666Y-109857142D02*
X77514285Y-109904761D01*
X77657142Y-109952380D01*
X77752380Y-109952380D01*
X77895238Y-109904761D01*
X77990476Y-109809523D01*
X78038095Y-109714285D01*
X78085714Y-109523809D01*
X78085714Y-109380952D01*
X78038095Y-109190476D01*
X77990476Y-109095238D01*
X77895238Y-109000000D01*
X77752380Y-108952380D01*
X77657142Y-108952380D01*
X77514285Y-109000000D01*
X77466666Y-109047619D01*
X77133333Y-108952380D02*
X76466666Y-108952380D01*
X76895238Y-109952380D01*
%TO.C,C8*%
X77279166Y-102927142D02*
X77326785Y-102974761D01*
X77469642Y-103022380D01*
X77564880Y-103022380D01*
X77707738Y-102974761D01*
X77802976Y-102879523D01*
X77850595Y-102784285D01*
X77898214Y-102593809D01*
X77898214Y-102450952D01*
X77850595Y-102260476D01*
X77802976Y-102165238D01*
X77707738Y-102070000D01*
X77564880Y-102022380D01*
X77469642Y-102022380D01*
X77326785Y-102070000D01*
X77279166Y-102117619D01*
X76707738Y-102450952D02*
X76802976Y-102403333D01*
X76850595Y-102355714D01*
X76898214Y-102260476D01*
X76898214Y-102212857D01*
X76850595Y-102117619D01*
X76802976Y-102070000D01*
X76707738Y-102022380D01*
X76517261Y-102022380D01*
X76422023Y-102070000D01*
X76374404Y-102117619D01*
X76326785Y-102212857D01*
X76326785Y-102260476D01*
X76374404Y-102355714D01*
X76422023Y-102403333D01*
X76517261Y-102450952D01*
X76707738Y-102450952D01*
X76802976Y-102498571D01*
X76850595Y-102546190D01*
X76898214Y-102641428D01*
X76898214Y-102831904D01*
X76850595Y-102927142D01*
X76802976Y-102974761D01*
X76707738Y-103022380D01*
X76517261Y-103022380D01*
X76422023Y-102974761D01*
X76374404Y-102927142D01*
X76326785Y-102831904D01*
X76326785Y-102641428D01*
X76374404Y-102546190D01*
X76422023Y-102498571D01*
X76517261Y-102450952D01*
%TO.C,C20*%
X69242857Y-95257142D02*
X69290476Y-95304761D01*
X69433333Y-95352380D01*
X69528571Y-95352380D01*
X69671428Y-95304761D01*
X69766666Y-95209523D01*
X69814285Y-95114285D01*
X69861904Y-94923809D01*
X69861904Y-94780952D01*
X69814285Y-94590476D01*
X69766666Y-94495238D01*
X69671428Y-94400000D01*
X69528571Y-94352380D01*
X69433333Y-94352380D01*
X69290476Y-94400000D01*
X69242857Y-94447619D01*
X68861904Y-94447619D02*
X68814285Y-94400000D01*
X68719047Y-94352380D01*
X68480952Y-94352380D01*
X68385714Y-94400000D01*
X68338095Y-94447619D01*
X68290476Y-94542857D01*
X68290476Y-94638095D01*
X68338095Y-94780952D01*
X68909523Y-95352380D01*
X68290476Y-95352380D01*
X67671428Y-94352380D02*
X67576190Y-94352380D01*
X67480952Y-94400000D01*
X67433333Y-94447619D01*
X67385714Y-94542857D01*
X67338095Y-94733333D01*
X67338095Y-94971428D01*
X67385714Y-95161904D01*
X67433333Y-95257142D01*
X67480952Y-95304761D01*
X67576190Y-95352380D01*
X67671428Y-95352380D01*
X67766666Y-95304761D01*
X67814285Y-95257142D01*
X67861904Y-95161904D01*
X67909523Y-94971428D01*
X67909523Y-94733333D01*
X67861904Y-94542857D01*
X67814285Y-94447619D01*
X67766666Y-94400000D01*
X67671428Y-94352380D01*
%TO.C,R5*%
X59916666Y-130202380D02*
X60250000Y-129726190D01*
X60488095Y-130202380D02*
X60488095Y-129202380D01*
X60107142Y-129202380D01*
X60011904Y-129250000D01*
X59964285Y-129297619D01*
X59916666Y-129392857D01*
X59916666Y-129535714D01*
X59964285Y-129630952D01*
X60011904Y-129678571D01*
X60107142Y-129726190D01*
X60488095Y-129726190D01*
X59011904Y-129202380D02*
X59488095Y-129202380D01*
X59535714Y-129678571D01*
X59488095Y-129630952D01*
X59392857Y-129583333D01*
X59154761Y-129583333D01*
X59059523Y-129630952D01*
X59011904Y-129678571D01*
X58964285Y-129773809D01*
X58964285Y-130011904D01*
X59011904Y-130107142D01*
X59059523Y-130154761D01*
X59154761Y-130202380D01*
X59392857Y-130202380D01*
X59488095Y-130154761D01*
X59535714Y-130107142D01*
%TO.C,C6*%
X54566666Y-100607142D02*
X54614285Y-100654761D01*
X54757142Y-100702380D01*
X54852380Y-100702380D01*
X54995238Y-100654761D01*
X55090476Y-100559523D01*
X55138095Y-100464285D01*
X55185714Y-100273809D01*
X55185714Y-100130952D01*
X55138095Y-99940476D01*
X55090476Y-99845238D01*
X54995238Y-99750000D01*
X54852380Y-99702380D01*
X54757142Y-99702380D01*
X54614285Y-99750000D01*
X54566666Y-99797619D01*
X53709523Y-99702380D02*
X53900000Y-99702380D01*
X53995238Y-99750000D01*
X54042857Y-99797619D01*
X54138095Y-99940476D01*
X54185714Y-100130952D01*
X54185714Y-100511904D01*
X54138095Y-100607142D01*
X54090476Y-100654761D01*
X53995238Y-100702380D01*
X53804761Y-100702380D01*
X53709523Y-100654761D01*
X53661904Y-100607142D01*
X53614285Y-100511904D01*
X53614285Y-100273809D01*
X53661904Y-100178571D01*
X53709523Y-100130952D01*
X53804761Y-100083333D01*
X53995238Y-100083333D01*
X54090476Y-100130952D01*
X54138095Y-100178571D01*
X54185714Y-100273809D01*
%TO.C,C19*%
X65780357Y-95257142D02*
X65827976Y-95304761D01*
X65970833Y-95352380D01*
X66066071Y-95352380D01*
X66208928Y-95304761D01*
X66304166Y-95209523D01*
X66351785Y-95114285D01*
X66399404Y-94923809D01*
X66399404Y-94780952D01*
X66351785Y-94590476D01*
X66304166Y-94495238D01*
X66208928Y-94400000D01*
X66066071Y-94352380D01*
X65970833Y-94352380D01*
X65827976Y-94400000D01*
X65780357Y-94447619D01*
X64827976Y-95352380D02*
X65399404Y-95352380D01*
X65113690Y-95352380D02*
X65113690Y-94352380D01*
X65208928Y-94495238D01*
X65304166Y-94590476D01*
X65399404Y-94638095D01*
X64351785Y-95352380D02*
X64161309Y-95352380D01*
X64066071Y-95304761D01*
X64018452Y-95257142D01*
X63923214Y-95114285D01*
X63875595Y-94923809D01*
X63875595Y-94542857D01*
X63923214Y-94447619D01*
X63970833Y-94400000D01*
X64066071Y-94352380D01*
X64256547Y-94352380D01*
X64351785Y-94400000D01*
X64399404Y-94447619D01*
X64447023Y-94542857D01*
X64447023Y-94780952D01*
X64399404Y-94876190D01*
X64351785Y-94923809D01*
X64256547Y-94971428D01*
X64066071Y-94971428D01*
X63970833Y-94923809D01*
X63923214Y-94876190D01*
X63875595Y-94780952D01*
%TO.C,C32*%
X79580357Y-128227142D02*
X79627976Y-128274761D01*
X79770833Y-128322380D01*
X79866071Y-128322380D01*
X80008928Y-128274761D01*
X80104166Y-128179523D01*
X80151785Y-128084285D01*
X80199404Y-127893809D01*
X80199404Y-127750952D01*
X80151785Y-127560476D01*
X80104166Y-127465238D01*
X80008928Y-127370000D01*
X79866071Y-127322380D01*
X79770833Y-127322380D01*
X79627976Y-127370000D01*
X79580357Y-127417619D01*
X79247023Y-127322380D02*
X78627976Y-127322380D01*
X78961309Y-127703333D01*
X78818452Y-127703333D01*
X78723214Y-127750952D01*
X78675595Y-127798571D01*
X78627976Y-127893809D01*
X78627976Y-128131904D01*
X78675595Y-128227142D01*
X78723214Y-128274761D01*
X78818452Y-128322380D01*
X79104166Y-128322380D01*
X79199404Y-128274761D01*
X79247023Y-128227142D01*
X78247023Y-127417619D02*
X78199404Y-127370000D01*
X78104166Y-127322380D01*
X77866071Y-127322380D01*
X77770833Y-127370000D01*
X77723214Y-127417619D01*
X77675595Y-127512857D01*
X77675595Y-127608095D01*
X77723214Y-127750952D01*
X78294642Y-128322380D01*
X77675595Y-128322380D01*
%TO.C,C31*%
X62880357Y-134987142D02*
X62927976Y-135034761D01*
X63070833Y-135082380D01*
X63166071Y-135082380D01*
X63308928Y-135034761D01*
X63404166Y-134939523D01*
X63451785Y-134844285D01*
X63499404Y-134653809D01*
X63499404Y-134510952D01*
X63451785Y-134320476D01*
X63404166Y-134225238D01*
X63308928Y-134130000D01*
X63166071Y-134082380D01*
X63070833Y-134082380D01*
X62927976Y-134130000D01*
X62880357Y-134177619D01*
X62547023Y-134082380D02*
X61927976Y-134082380D01*
X62261309Y-134463333D01*
X62118452Y-134463333D01*
X62023214Y-134510952D01*
X61975595Y-134558571D01*
X61927976Y-134653809D01*
X61927976Y-134891904D01*
X61975595Y-134987142D01*
X62023214Y-135034761D01*
X62118452Y-135082380D01*
X62404166Y-135082380D01*
X62499404Y-135034761D01*
X62547023Y-134987142D01*
X60975595Y-135082380D02*
X61547023Y-135082380D01*
X61261309Y-135082380D02*
X61261309Y-134082380D01*
X61356547Y-134225238D01*
X61451785Y-134320476D01*
X61547023Y-134368095D01*
%TO.C,C17*%
X65742857Y-92057142D02*
X65790476Y-92104761D01*
X65933333Y-92152380D01*
X66028571Y-92152380D01*
X66171428Y-92104761D01*
X66266666Y-92009523D01*
X66314285Y-91914285D01*
X66361904Y-91723809D01*
X66361904Y-91580952D01*
X66314285Y-91390476D01*
X66266666Y-91295238D01*
X66171428Y-91200000D01*
X66028571Y-91152380D01*
X65933333Y-91152380D01*
X65790476Y-91200000D01*
X65742857Y-91247619D01*
X64790476Y-92152380D02*
X65361904Y-92152380D01*
X65076190Y-92152380D02*
X65076190Y-91152380D01*
X65171428Y-91295238D01*
X65266666Y-91390476D01*
X65361904Y-91438095D01*
X64457142Y-91152380D02*
X63790476Y-91152380D01*
X64219047Y-92152380D01*
%TO.C,R6*%
X59916666Y-131952380D02*
X60250000Y-131476190D01*
X60488095Y-131952380D02*
X60488095Y-130952380D01*
X60107142Y-130952380D01*
X60011904Y-131000000D01*
X59964285Y-131047619D01*
X59916666Y-131142857D01*
X59916666Y-131285714D01*
X59964285Y-131380952D01*
X60011904Y-131428571D01*
X60107142Y-131476190D01*
X60488095Y-131476190D01*
X59059523Y-130952380D02*
X59250000Y-130952380D01*
X59345238Y-131000000D01*
X59392857Y-131047619D01*
X59488095Y-131190476D01*
X59535714Y-131380952D01*
X59535714Y-131761904D01*
X59488095Y-131857142D01*
X59440476Y-131904761D01*
X59345238Y-131952380D01*
X59154761Y-131952380D01*
X59059523Y-131904761D01*
X59011904Y-131857142D01*
X58964285Y-131761904D01*
X58964285Y-131523809D01*
X59011904Y-131428571D01*
X59059523Y-131380952D01*
X59154761Y-131333333D01*
X59345238Y-131333333D01*
X59440476Y-131380952D01*
X59488095Y-131428571D01*
X59535714Y-131523809D01*
%TO.C,R7*%
X75579166Y-128322380D02*
X75912500Y-127846190D01*
X76150595Y-128322380D02*
X76150595Y-127322380D01*
X75769642Y-127322380D01*
X75674404Y-127370000D01*
X75626785Y-127417619D01*
X75579166Y-127512857D01*
X75579166Y-127655714D01*
X75626785Y-127750952D01*
X75674404Y-127798571D01*
X75769642Y-127846190D01*
X76150595Y-127846190D01*
X75245833Y-127322380D02*
X74579166Y-127322380D01*
X75007738Y-128322380D01*
%TO.C,C4*%
X58166666Y-98557142D02*
X58214285Y-98604761D01*
X58357142Y-98652380D01*
X58452380Y-98652380D01*
X58595238Y-98604761D01*
X58690476Y-98509523D01*
X58738095Y-98414285D01*
X58785714Y-98223809D01*
X58785714Y-98080952D01*
X58738095Y-97890476D01*
X58690476Y-97795238D01*
X58595238Y-97700000D01*
X58452380Y-97652380D01*
X58357142Y-97652380D01*
X58214285Y-97700000D01*
X58166666Y-97747619D01*
X57309523Y-97985714D02*
X57309523Y-98652380D01*
X57547619Y-97604761D02*
X57785714Y-98319047D01*
X57166666Y-98319047D01*
%TO.C,C18*%
X56107142Y-109107142D02*
X56154761Y-109059523D01*
X56202380Y-108916666D01*
X56202380Y-108821428D01*
X56154761Y-108678571D01*
X56059523Y-108583333D01*
X55964285Y-108535714D01*
X55773809Y-108488095D01*
X55630952Y-108488095D01*
X55440476Y-108535714D01*
X55345238Y-108583333D01*
X55250000Y-108678571D01*
X55202380Y-108821428D01*
X55202380Y-108916666D01*
X55250000Y-109059523D01*
X55297619Y-109107142D01*
X56202380Y-110059523D02*
X56202380Y-109488095D01*
X56202380Y-109773809D02*
X55202380Y-109773809D01*
X55345238Y-109678571D01*
X55440476Y-109583333D01*
X55488095Y-109488095D01*
X55630952Y-110630952D02*
X55583333Y-110535714D01*
X55535714Y-110488095D01*
X55440476Y-110440476D01*
X55392857Y-110440476D01*
X55297619Y-110488095D01*
X55250000Y-110535714D01*
X55202380Y-110630952D01*
X55202380Y-110821428D01*
X55250000Y-110916666D01*
X55297619Y-110964285D01*
X55392857Y-111011904D01*
X55440476Y-111011904D01*
X55535714Y-110964285D01*
X55583333Y-110916666D01*
X55630952Y-110821428D01*
X55630952Y-110630952D01*
X55678571Y-110535714D01*
X55726190Y-110488095D01*
X55821428Y-110440476D01*
X56011904Y-110440476D01*
X56107142Y-110488095D01*
X56154761Y-110535714D01*
X56202380Y-110630952D01*
X56202380Y-110821428D01*
X56154761Y-110916666D01*
X56107142Y-110964285D01*
X56011904Y-111011904D01*
X55821428Y-111011904D01*
X55726190Y-110964285D01*
X55678571Y-110916666D01*
X55630952Y-110821428D01*
D11*
%TO.C,L1*%
X60453733Y-100760000D02*
X60796267Y-100760000D01*
X60453733Y-99740000D02*
X60796267Y-99740000D01*
%TO.C,C22*%
X72490000Y-98491233D02*
X72490000Y-98783767D01*
X73510000Y-98491233D02*
X73510000Y-98783767D01*
%TO.C,C5*%
X74241233Y-107510000D02*
X74533767Y-107510000D01*
X74241233Y-106490000D02*
X74533767Y-106490000D01*
%TO.C,C3*%
X60758767Y-95990000D02*
X60466233Y-95990000D01*
X60758767Y-97010000D02*
X60466233Y-97010000D01*
%TO.C,C23*%
X68453733Y-98260000D02*
X68746267Y-98260000D01*
X68453733Y-97240000D02*
X68746267Y-97240000D01*
%TO.C,C21*%
X64991233Y-98260000D02*
X65283767Y-98260000D01*
X64991233Y-97240000D02*
X65283767Y-97240000D01*
%TO.C,C7*%
X74508767Y-110010000D02*
X74216233Y-110010000D01*
X74508767Y-108990000D02*
X74216233Y-108990000D01*
%TO.C,C8*%
X77258767Y-103490000D02*
X76966233Y-103490000D01*
X77258767Y-104510000D02*
X76966233Y-104510000D01*
%TO.C,C20*%
X68466233Y-95740000D02*
X68758767Y-95740000D01*
X68466233Y-96760000D02*
X68758767Y-96760000D01*
%TO.C,R5*%
X62442224Y-130222500D02*
X61932776Y-130222500D01*
X62442224Y-129177500D02*
X61932776Y-129177500D01*
%TO.C,C6*%
X57283767Y-100760000D02*
X56991233Y-100760000D01*
X57283767Y-99740000D02*
X56991233Y-99740000D01*
%TO.C,C19*%
X64991233Y-96760000D02*
X65283767Y-96760000D01*
X64991233Y-95740000D02*
X65283767Y-95740000D01*
%TO.C,C32*%
X79083767Y-128790000D02*
X78791233Y-128790000D01*
X79083767Y-129810000D02*
X78791233Y-129810000D01*
%TO.C,C31*%
X62091233Y-132690000D02*
X62383767Y-132690000D01*
X62091233Y-133710000D02*
X62383767Y-133710000D01*
%TO.C,C17*%
X64991233Y-92740000D02*
X65283767Y-92740000D01*
X64991233Y-93760000D02*
X65283767Y-93760000D01*
%TO.C,R6*%
X62442224Y-131972500D02*
X61932776Y-131972500D01*
X62442224Y-130927500D02*
X61932776Y-130927500D01*
%TO.C,R7*%
X75667224Y-128777500D02*
X75157776Y-128777500D01*
X75667224Y-129822500D02*
X75157776Y-129822500D01*
%TO.C,C4*%
X60758767Y-97740000D02*
X60466233Y-97740000D01*
X60758767Y-98760000D02*
X60466233Y-98760000D01*
%TO.C,C18*%
X58010000Y-109758767D02*
X58010000Y-109466233D01*
X56990000Y-109758767D02*
X56990000Y-109466233D01*
%TD*%
M02*
