%TF.GenerationSoftware,KiCad,Pcbnew,(6.0.4)*%
%TF.CreationDate,2022-04-28T19:14:27+02:00*%
%TF.ProjectId,MSK_RF,4d534b5f-5246-42e6-9b69-6361645f7063,rev?*%
%TF.SameCoordinates,Original*%
%TF.FileFunction,Copper,L2,Bot*%
%TF.FilePolarity,Positive*%
%FSLAX46Y46*%
G04 Gerber Fmt 4.6, Leading zero omitted, Abs format (unit mm)*
G04 Created by KiCad (PCBNEW (6.0.4)) date 2022-04-28 19:14:27*
%MOMM*%
%LPD*%
G01*
G04 APERTURE LIST*
G04 Aperture macros list*
%AMRoundRect*
0 Rectangle with rounded corners*
0 $1 Rounding radius*
0 $2 $3 $4 $5 $6 $7 $8 $9 X,Y pos of 4 corners*
0 Add a 4 corners polygon primitive as box body*
4,1,4,$2,$3,$4,$5,$6,$7,$8,$9,$2,$3,0*
0 Add four circle primitives for the rounded corners*
1,1,$1+$1,$2,$3*
1,1,$1+$1,$4,$5*
1,1,$1+$1,$6,$7*
1,1,$1+$1,$8,$9*
0 Add four rect primitives between the rounded corners*
20,1,$1+$1,$2,$3,$4,$5,0*
20,1,$1+$1,$4,$5,$6,$7,0*
20,1,$1+$1,$6,$7,$8,$9,0*
20,1,$1+$1,$8,$9,$2,$3,0*%
G04 Aperture macros list end*
%TA.AperFunction,SMDPad,CuDef*%
%ADD10R,0.460000X0.950000*%
%TD*%
%TA.AperFunction,ComponentPad*%
%ADD11C,0.970000*%
%TD*%
%TA.AperFunction,SMDPad,CuDef*%
%ADD12R,2.420000X5.080000*%
%TD*%
%TA.AperFunction,ComponentPad*%
%ADD13R,1.700000X1.700000*%
%TD*%
%TA.AperFunction,ComponentPad*%
%ADD14O,1.700000X1.700000*%
%TD*%
%TA.AperFunction,SMDPad,CuDef*%
%ADD15RoundRect,0.237500X-0.287500X-0.237500X0.287500X-0.237500X0.287500X0.237500X-0.287500X0.237500X0*%
%TD*%
%TA.AperFunction,SMDPad,CuDef*%
%ADD16RoundRect,0.237500X-0.237500X0.300000X-0.237500X-0.300000X0.237500X-0.300000X0.237500X0.300000X0*%
%TD*%
%TA.AperFunction,SMDPad,CuDef*%
%ADD17RoundRect,0.237500X-0.300000X-0.237500X0.300000X-0.237500X0.300000X0.237500X-0.300000X0.237500X0*%
%TD*%
%TA.AperFunction,SMDPad,CuDef*%
%ADD18RoundRect,0.237500X0.300000X0.237500X-0.300000X0.237500X-0.300000X-0.237500X0.300000X-0.237500X0*%
%TD*%
%TA.AperFunction,SMDPad,CuDef*%
%ADD19RoundRect,0.237500X0.250000X0.237500X-0.250000X0.237500X-0.250000X-0.237500X0.250000X-0.237500X0*%
%TD*%
%TA.AperFunction,SMDPad,CuDef*%
%ADD20RoundRect,0.237500X0.237500X-0.300000X0.237500X0.300000X-0.237500X0.300000X-0.237500X-0.300000X0*%
%TD*%
%TA.AperFunction,ViaPad*%
%ADD21C,0.800000*%
%TD*%
%TA.AperFunction,Conductor*%
%ADD22C,0.250000*%
%TD*%
G04 APERTURE END LIST*
D10*
%TO.P,J4,2,Ext*%
%TO.N,GND*%
X64870000Y-139812260D03*
D11*
X73630000Y-139362260D03*
D12*
X64870000Y-142802260D03*
X73630000Y-142802260D03*
D11*
X64870000Y-139362260D03*
D10*
X73630000Y-139812260D03*
%TD*%
D13*
%TO.P,JP1,1,A*%
%TO.N,Net-(JP1-Pad1)*%
X59500000Y-121250000D03*
D14*
%TO.P,JP1,2,B*%
%TO.N,Net-(JP1-Pad2)*%
X59500000Y-123790000D03*
%TD*%
D13*
%TO.P,J2,1,Pin_1*%
%TO.N,PA14*%
X87250000Y-95180000D03*
D14*
%TO.P,J2,2,Pin_2*%
%TO.N,PA13*%
X87250000Y-97720000D03*
%TO.P,J2,3,Pin_3*%
%TO.N,PA10*%
X87250000Y-100260000D03*
%TO.P,J2,4,Pin_4*%
%TO.N,PA9*%
X87250000Y-102800000D03*
%TO.P,J2,5,Pin_5*%
%TO.N,PB2*%
X87250000Y-105340000D03*
%TO.P,J2,6,Pin_6*%
%TO.N,NRST*%
X87250000Y-107880000D03*
%TO.P,J2,7,Pin_7*%
%TO.N,3.3V*%
X87250000Y-110420000D03*
%TO.P,J2,8,Pin_8*%
%TO.N,GND*%
X87250000Y-112960000D03*
%TO.P,J2,9,Pin_9*%
%TO.N,FE_CTRL*%
X87250000Y-115500000D03*
%TO.P,J2,10,Pin_10*%
%TO.N,PB7*%
X87250000Y-118040000D03*
%TO.P,J2,11,Pin_11*%
%TO.N,PB6*%
X87250000Y-120580000D03*
%TO.P,J2,12,Pin_12*%
%TO.N,PA8*%
X87250000Y-123120000D03*
%TD*%
D13*
%TO.P,J1,1,Pin_1*%
%TO.N,3.3V*%
X87250000Y-77500000D03*
D14*
%TO.P,J1,2,Pin_2*%
%TO.N,PA13*%
X87250000Y-80040000D03*
%TO.P,J1,3,Pin_3*%
%TO.N,PA14*%
X87250000Y-82580000D03*
%TO.P,J1,4,Pin_4*%
%TO.N,NRST*%
X87250000Y-85120000D03*
%TO.P,J1,5,Pin_5*%
%TO.N,GND*%
X87250000Y-87660000D03*
%TD*%
D13*
%TO.P,J3,1,Pin_1*%
%TO.N,3.3V*%
X39750000Y-95180000D03*
D14*
%TO.P,J3,2,Pin_2*%
%TO.N,PA0*%
X39750000Y-97720000D03*
%TO.P,J3,3,Pin_3*%
%TO.N,PA1*%
X39750000Y-100260000D03*
%TO.P,J3,4,Pin_4*%
%TO.N,PB12*%
X39750000Y-102800000D03*
%TO.P,J3,5,Pin_5*%
%TO.N,PA6*%
X39750000Y-105340000D03*
%TO.P,J3,6,Pin_6*%
%TO.N,GND*%
X39750000Y-107880000D03*
%TO.P,J3,7,Pin_7*%
%TO.N,PA2*%
X39750000Y-110420000D03*
%TO.P,J3,8,Pin_8*%
%TO.N,PA3*%
X39750000Y-112960000D03*
%TO.P,J3,9,Pin_9*%
%TO.N,PA4*%
X39750000Y-115500000D03*
%TO.P,J3,10,Pin_10*%
%TO.N,PA5*%
X39750000Y-118040000D03*
%TO.P,J3,11,Pin_11*%
%TO.N,PA7*%
X39750000Y-120580000D03*
%TO.P,J3,12,Pin_12*%
%TO.N,PA11*%
X39750000Y-123120000D03*
%TD*%
D15*
%TO.P,L1,1,1*%
%TO.N,Net-(C6-Pad1)*%
X59750000Y-100250000D03*
%TO.P,L1,2,2*%
%TO.N,Net-(L1-Pad2)*%
X61500000Y-100250000D03*
%TD*%
D16*
%TO.P,C22,1*%
%TO.N,GND*%
X73000000Y-97775000D03*
%TO.P,C22,2*%
%TO.N,3.3V*%
X73000000Y-99500000D03*
%TD*%
D17*
%TO.P,C5,1*%
%TO.N,3.3V*%
X73525000Y-107000000D03*
%TO.P,C5,2*%
%TO.N,GND*%
X75250000Y-107000000D03*
%TD*%
D18*
%TO.P,C3,1*%
%TO.N,3.3V*%
X61475000Y-96500000D03*
%TO.P,C3,2*%
%TO.N,GND*%
X59750000Y-96500000D03*
%TD*%
D17*
%TO.P,C23,1*%
%TO.N,3.3V*%
X67737500Y-97750000D03*
%TO.P,C23,2*%
%TO.N,GND*%
X69462500Y-97750000D03*
%TD*%
%TO.P,C21,1*%
%TO.N,GND*%
X64275000Y-97750000D03*
%TO.P,C21,2*%
%TO.N,3.3V*%
X66000000Y-97750000D03*
%TD*%
D18*
%TO.P,C7,1*%
%TO.N,GND*%
X75225000Y-109500000D03*
%TO.P,C7,2*%
%TO.N,Net-(C6-Pad1)*%
X73500000Y-109500000D03*
%TD*%
%TO.P,C8,1*%
%TO.N,GND*%
X77975000Y-104000000D03*
%TO.P,C8,2*%
%TO.N,Net-(C6-Pad1)*%
X76250000Y-104000000D03*
%TD*%
D17*
%TO.P,C20,1*%
%TO.N,3.3V*%
X67750000Y-96250000D03*
%TO.P,C20,2*%
%TO.N,GND*%
X69475000Y-96250000D03*
%TD*%
D19*
%TO.P,R5,1*%
%TO.N,/2.8V*%
X63100000Y-129700000D03*
%TO.P,R5,2*%
%TO.N,3.3V*%
X61275000Y-129700000D03*
%TD*%
D18*
%TO.P,C6,1*%
%TO.N,Net-(C6-Pad1)*%
X58000000Y-100250000D03*
%TO.P,C6,2*%
%TO.N,GND*%
X56275000Y-100250000D03*
%TD*%
D17*
%TO.P,C19,1*%
%TO.N,GND*%
X64275000Y-96250000D03*
%TO.P,C19,2*%
%TO.N,3.3V*%
X66000000Y-96250000D03*
%TD*%
D18*
%TO.P,C32,1*%
%TO.N,GND*%
X79800000Y-129300000D03*
%TO.P,C32,2*%
%TO.N,FE_CTRL*%
X78075000Y-129300000D03*
%TD*%
D17*
%TO.P,C31,1*%
%TO.N,GND*%
X61375000Y-133200000D03*
%TO.P,C31,2*%
%TO.N,/2.8V*%
X63100000Y-133200000D03*
%TD*%
%TO.P,C17,1*%
%TO.N,GND*%
X64275000Y-93250000D03*
%TO.P,C17,2*%
%TO.N,3.3V*%
X66000000Y-93250000D03*
%TD*%
D19*
%TO.P,R6,1*%
%TO.N,/2.8V*%
X63100000Y-131450000D03*
%TO.P,R6,2*%
%TO.N,GND*%
X61275000Y-131450000D03*
%TD*%
%TO.P,R7,1*%
%TO.N,FE_CTRL*%
X76325000Y-129300000D03*
%TO.P,R7,2*%
%TO.N,Net-(R7-Pad2)*%
X74500000Y-129300000D03*
%TD*%
D18*
%TO.P,C4,1*%
%TO.N,3.3V*%
X61475000Y-98250000D03*
%TO.P,C4,2*%
%TO.N,GND*%
X59750000Y-98250000D03*
%TD*%
D20*
%TO.P,C18,1*%
%TO.N,GND*%
X57500000Y-110475000D03*
%TO.P,C18,2*%
%TO.N,3.3V*%
X57500000Y-108750000D03*
%TD*%
D21*
%TO.N,GND*%
X53250000Y-144500000D03*
X75500000Y-111000000D03*
X70750000Y-136750000D03*
X68000000Y-118750000D03*
X56000000Y-102000000D03*
X67750000Y-124000000D03*
X74000000Y-121750000D03*
X50250000Y-137000000D03*
X44250000Y-140000000D03*
X61500000Y-126000000D03*
X85250000Y-134250000D03*
X57750000Y-137000000D03*
X71000000Y-112000000D03*
X75500000Y-112250000D03*
X61750000Y-124250000D03*
X51750000Y-137000000D03*
X67750000Y-125250000D03*
X56250000Y-144500000D03*
X80750000Y-138750000D03*
X73250000Y-123000000D03*
X45750000Y-135500000D03*
X70750000Y-128250000D03*
X64250000Y-121500000D03*
X59250000Y-144500000D03*
X68000000Y-116750000D03*
X62250000Y-144500000D03*
X86750000Y-135750000D03*
X63250000Y-122000000D03*
X39750000Y-138500000D03*
X79250000Y-144750000D03*
X64500000Y-119000000D03*
X54750000Y-141500000D03*
X64000000Y-116750000D03*
X41250000Y-137000000D03*
X76250000Y-143250000D03*
X67750000Y-126250000D03*
X76250000Y-134250000D03*
X82250000Y-135750000D03*
X71250000Y-131000000D03*
X72500000Y-131250000D03*
X63250000Y-126750000D03*
X77000000Y-125500000D03*
X60750000Y-138500000D03*
X85250000Y-138750000D03*
X85250000Y-137250000D03*
X67750000Y-137000000D03*
X45750000Y-143000000D03*
X70000000Y-112250000D03*
X82250000Y-141750000D03*
X70500000Y-117750000D03*
X42750000Y-140000000D03*
X88250000Y-135750000D03*
X76250000Y-137250000D03*
X77750000Y-135750000D03*
X42750000Y-144500000D03*
X80750000Y-143250000D03*
X66500000Y-135500000D03*
X57750000Y-135500000D03*
X62250000Y-138500000D03*
X47250000Y-137000000D03*
X70612701Y-96887299D03*
X64000000Y-118000000D03*
X77000000Y-127000000D03*
X70750000Y-124250000D03*
X76500000Y-127750000D03*
X72000000Y-137750000D03*
X64250000Y-122750000D03*
X67750000Y-135500000D03*
X76250000Y-135750000D03*
X63750000Y-137000000D03*
X77750000Y-143250000D03*
X50250000Y-140000000D03*
X79250000Y-132750000D03*
X47250000Y-143000000D03*
X38500000Y-144500000D03*
X47250000Y-135500000D03*
X56250000Y-140000000D03*
X88250000Y-132750000D03*
X88250000Y-134250000D03*
X70750000Y-119855500D03*
X79250000Y-138750000D03*
X86750000Y-132750000D03*
X48750000Y-138500000D03*
X62500000Y-119750000D03*
X47250000Y-144500000D03*
X54750000Y-140000000D03*
X51750000Y-140000000D03*
X86750000Y-134250000D03*
X56250000Y-135500000D03*
X71750000Y-134250000D03*
X86750000Y-140250000D03*
X64500000Y-127250000D03*
X60750000Y-144500000D03*
X38500000Y-137000000D03*
X50250000Y-141500000D03*
X63500000Y-120500000D03*
X60750000Y-141500000D03*
X62000000Y-122750000D03*
X71750000Y-124250000D03*
X67750000Y-138750000D03*
X60750000Y-137000000D03*
X70750000Y-132750000D03*
X83750000Y-134250000D03*
X56250000Y-137000000D03*
X54750000Y-135500000D03*
X45750000Y-138500000D03*
X71750000Y-121500000D03*
X77750000Y-112000000D03*
X63750000Y-135500000D03*
X70750000Y-138750000D03*
X50250000Y-138500000D03*
X48750000Y-140000000D03*
X76750000Y-124250000D03*
X77750000Y-141750000D03*
X41250000Y-143000000D03*
X88250000Y-138750000D03*
X58250000Y-98250000D03*
X80750000Y-140250000D03*
X39750000Y-135500000D03*
X45750000Y-141500000D03*
X67000000Y-119000000D03*
X80750000Y-137250000D03*
X44250000Y-135500000D03*
X62750000Y-96500000D03*
X57750000Y-141500000D03*
X82250000Y-132750000D03*
X80750000Y-141750000D03*
X42750000Y-141500000D03*
X82250000Y-137250000D03*
X38500000Y-135500000D03*
X82500000Y-98750000D03*
X62000000Y-128000000D03*
X79250000Y-135750000D03*
X57750000Y-140000000D03*
X62000000Y-121000000D03*
X74500000Y-115000000D03*
X86750000Y-138750000D03*
X59250000Y-141500000D03*
X44250000Y-138500000D03*
X76250000Y-132750000D03*
X64250000Y-124500000D03*
X75000000Y-135750000D03*
X66500000Y-122750000D03*
X62250000Y-141500000D03*
X70250000Y-127250000D03*
X66500000Y-125250000D03*
X67250000Y-127250000D03*
X73000000Y-124250000D03*
X50250000Y-144500000D03*
X84000000Y-90250000D03*
X42750000Y-137000000D03*
X85250000Y-140250000D03*
X56250000Y-138500000D03*
X38500000Y-138500000D03*
X54750000Y-138500000D03*
X66500000Y-138250000D03*
X62750000Y-117000000D03*
X73500000Y-135750000D03*
X53250000Y-140000000D03*
X80750000Y-134250000D03*
X72000000Y-136000000D03*
X59250000Y-138500000D03*
X65000000Y-137000000D03*
X47250000Y-138500000D03*
X76000000Y-108500000D03*
X62250000Y-143000000D03*
X75000000Y-137250000D03*
X83750000Y-140250000D03*
X72000000Y-132750000D03*
X66000000Y-129500000D03*
X67750000Y-122750000D03*
X83750000Y-138750000D03*
X59250000Y-137000000D03*
X51750000Y-138500000D03*
X85250000Y-132750000D03*
X73500000Y-132750000D03*
X76250000Y-144750000D03*
X59250000Y-135500000D03*
X51750000Y-141500000D03*
X77750000Y-140250000D03*
X42750000Y-138500000D03*
X77750000Y-132750000D03*
X83750000Y-143250000D03*
X75250000Y-124250000D03*
X64500000Y-125750000D03*
X54750000Y-113500000D03*
X53250000Y-135500000D03*
X76750000Y-121500000D03*
X53250000Y-141500000D03*
X85250000Y-141750000D03*
X83750000Y-144750000D03*
X57750000Y-144500000D03*
X77750000Y-138750000D03*
X85250000Y-135750000D03*
X41250000Y-138500000D03*
X74500000Y-124750000D03*
X76250000Y-140250000D03*
X39750000Y-141500000D03*
X83750000Y-137250000D03*
X82250000Y-134250000D03*
X76750000Y-122750000D03*
X41250000Y-140000000D03*
X41250000Y-135500000D03*
X85250000Y-144750000D03*
X38500000Y-141500000D03*
X72250000Y-122500000D03*
X54750000Y-143000000D03*
X70750000Y-123000000D03*
X75000000Y-134250000D03*
X82250000Y-138750000D03*
X66500000Y-126500000D03*
X66500000Y-124000000D03*
X77750000Y-137250000D03*
X73000000Y-128250000D03*
X73500000Y-137250000D03*
X45750000Y-144500000D03*
X75250000Y-127500000D03*
X79250000Y-137250000D03*
X59250000Y-140000000D03*
X64500000Y-129500000D03*
X80750000Y-144750000D03*
X71250000Y-127250000D03*
X56250000Y-141500000D03*
X73750000Y-130750000D03*
X65000000Y-135500000D03*
X38500000Y-143000000D03*
X53250000Y-137000000D03*
X73750000Y-127250000D03*
X66500000Y-137000000D03*
X67750000Y-119750000D03*
X74500000Y-126250000D03*
X72647746Y-110366456D03*
X56250000Y-143000000D03*
X88250000Y-143250000D03*
X62250000Y-140000000D03*
X63250000Y-125250000D03*
X75750000Y-125750000D03*
X67750000Y-121750000D03*
X83750000Y-135750000D03*
X88250000Y-140250000D03*
X62250000Y-137000000D03*
X66500000Y-121750000D03*
X62250000Y-135500000D03*
X50250000Y-135500000D03*
X82250000Y-144750000D03*
X79250000Y-143250000D03*
X47250000Y-140000000D03*
X39750000Y-140000000D03*
X54750000Y-137000000D03*
X70750000Y-122000000D03*
X76250000Y-141750000D03*
X44250000Y-137000000D03*
X42750000Y-143000000D03*
X66500000Y-119750000D03*
X74250000Y-123000000D03*
X48750000Y-141500000D03*
X77750000Y-134250000D03*
X60750000Y-135500000D03*
X82250000Y-143250000D03*
X44250000Y-141500000D03*
X47250000Y-141500000D03*
X80750000Y-132750000D03*
X57750000Y-143000000D03*
X59750000Y-103250000D03*
X83750000Y-141750000D03*
X88250000Y-144750000D03*
X48750000Y-135500000D03*
X53250000Y-143000000D03*
X82500000Y-96250000D03*
X75750000Y-115000000D03*
X86750000Y-137250000D03*
X51750000Y-143000000D03*
X51750000Y-135500000D03*
X73000000Y-121500000D03*
X79250000Y-140250000D03*
X88250000Y-141750000D03*
X82250000Y-140250000D03*
X57750000Y-138500000D03*
X49250000Y-104000000D03*
X83750000Y-132750000D03*
X54750000Y-97750000D03*
X79250000Y-134250000D03*
X44250000Y-144500000D03*
X75500000Y-122750000D03*
X42750000Y-135500000D03*
X70500000Y-135000000D03*
X45750000Y-140000000D03*
X53250000Y-138500000D03*
X38500000Y-140000000D03*
X86750000Y-143250000D03*
X41250000Y-141500000D03*
X44250000Y-143000000D03*
X77750000Y-119500000D03*
X70500000Y-93500000D03*
X79250000Y-141750000D03*
X86750000Y-144750000D03*
X61000000Y-119750000D03*
X51750000Y-144500000D03*
X61500000Y-118750000D03*
X39750000Y-144500000D03*
X50250000Y-143000000D03*
X54750000Y-144500000D03*
X45750000Y-137000000D03*
X39750000Y-143000000D03*
X48750000Y-144500000D03*
X76250000Y-138750000D03*
X75000000Y-132750000D03*
X70000000Y-111000000D03*
X75500000Y-121500000D03*
X50250000Y-118250000D03*
X41250000Y-144500000D03*
X73250000Y-119500000D03*
X72500000Y-127250000D03*
X65000000Y-131250000D03*
X85250000Y-143250000D03*
X60750000Y-140000000D03*
X39750000Y-137000000D03*
X63750000Y-128250000D03*
X86750000Y-141750000D03*
X73500000Y-134250000D03*
X88250000Y-137250000D03*
X48750000Y-143000000D03*
X65250000Y-128500000D03*
X77750000Y-144750000D03*
X80750000Y-135750000D03*
X48750000Y-137000000D03*
X60750000Y-143000000D03*
X62500000Y-93250000D03*
X59250000Y-143000000D03*
X63500000Y-123750000D03*
%TO.N,3.3V*%
X72012299Y-100512299D03*
X66250000Y-99750000D03*
X69793206Y-100046478D03*
X72211226Y-107025500D03*
X64250000Y-100000000D03*
X66000000Y-91500000D03*
X59000000Y-108724500D03*
%TO.N,Net-(C6-Pad1)*%
X76267475Y-106026608D03*
X72000000Y-109250000D03*
X60750000Y-101500000D03*
%TO.N,NRST*%
X61750000Y-114250000D03*
%TO.N,/2.8V*%
X65200000Y-133200000D03*
%TO.N,PA14*%
X67998988Y-100300118D03*
%TO.N,PA9*%
X61974951Y-113000451D03*
%TO.N,FE_CTRL*%
X80000000Y-121750000D03*
%TO.N,PB7*%
X61500000Y-105750000D03*
%TO.N,PB6*%
X61000000Y-104750000D03*
%TO.N,PA8*%
X63000000Y-112000000D03*
%TO.N,PB12*%
X73250000Y-105000000D03*
%TO.N,PA11*%
X71750000Y-104025500D03*
%TO.N,Net-(L1-Pad2)*%
X64250000Y-101250000D03*
%TO.N,Net-(R7-Pad2)*%
X72000000Y-129300000D03*
%TD*%
D22*
%TO.N,3.3V*%
X50262316Y-95180000D02*
X55000000Y-99917684D01*
X38000000Y-96930000D02*
X38000000Y-123031010D01*
X57500000Y-99250000D02*
X57137980Y-99612020D01*
X59917684Y-95000000D02*
X55000000Y-99917684D01*
X57137980Y-99612020D02*
X57137980Y-100970296D01*
X67975402Y-97750000D02*
X67750000Y-97750000D01*
X61500000Y-95000000D02*
X59917684Y-95000000D01*
X75000000Y-105250000D02*
X74750000Y-105500000D01*
X44668990Y-129700000D02*
X61275000Y-129700000D01*
X75000000Y-104123551D02*
X75000000Y-105250000D01*
X86774614Y-91500000D02*
X80750000Y-91500000D01*
X84250000Y-88000000D02*
X84250000Y-80500000D01*
X84250000Y-80500000D02*
X87250000Y-77500000D01*
X55000000Y-102750000D02*
X55000000Y-106250000D01*
X87250000Y-110420000D02*
X88424511Y-109245489D01*
X60674906Y-102449520D02*
X69249350Y-102449520D01*
X88424511Y-109245489D02*
X88424511Y-93149897D01*
X72012299Y-100512299D02*
X72012299Y-100487701D01*
X66000000Y-91500000D02*
X66000000Y-93250000D01*
X72000000Y-97250000D02*
X69750000Y-95000000D01*
X61475000Y-96500000D02*
X61500000Y-96475000D01*
X80750000Y-91500000D02*
X84250000Y-88000000D01*
X67750000Y-95000000D02*
X67750000Y-96250000D01*
X72000000Y-98500000D02*
X73000000Y-99500000D01*
X58106100Y-101938416D02*
X60163802Y-101938416D01*
X61500000Y-96475000D02*
X61500000Y-95000000D01*
X69249350Y-102449520D02*
X69499350Y-102199520D01*
X66000000Y-99000000D02*
X66000000Y-97750000D01*
X60475000Y-99250000D02*
X57500000Y-99250000D01*
X73075969Y-102199520D02*
X75000000Y-104123551D01*
X64250000Y-100000000D02*
X62500000Y-98250000D01*
X74250000Y-105500000D02*
X73500000Y-106250000D01*
X69793206Y-100046478D02*
X69793206Y-99567804D01*
X66250000Y-99250000D02*
X66000000Y-99000000D01*
X39750000Y-95180000D02*
X50262316Y-95180000D01*
X72012299Y-100487701D02*
X73000000Y-99500000D01*
X72211226Y-107025500D02*
X73474500Y-107025500D01*
X72000000Y-97250000D02*
X72000000Y-98500000D01*
X58974500Y-108750000D02*
X59000000Y-108724500D01*
X66000000Y-91500000D02*
X80750000Y-91500000D01*
X55000000Y-99917684D02*
X55000000Y-102750000D01*
X66000000Y-94750000D02*
X66000000Y-93250000D01*
X73500000Y-106250000D02*
X73500000Y-107000000D01*
X67750000Y-95000000D02*
X61500000Y-95000000D01*
X61475000Y-98250000D02*
X60475000Y-99250000D01*
X57500000Y-108750000D02*
X55000000Y-106250000D01*
X69750000Y-95000000D02*
X67750000Y-95000000D01*
X66000000Y-96250000D02*
X66000000Y-94750000D01*
X67750000Y-96250000D02*
X67750000Y-97750000D01*
X38000000Y-123031010D02*
X44668990Y-129700000D01*
X39750000Y-95180000D02*
X38000000Y-96930000D01*
X62500000Y-98250000D02*
X61475000Y-98250000D01*
X73474500Y-107025500D02*
X73500000Y-107000000D01*
X66000000Y-97750000D02*
X66000000Y-96250000D01*
X72124762Y-107000000D02*
X73500000Y-107000000D01*
X88424511Y-93149897D02*
X86774614Y-91500000D01*
X69499350Y-102199520D02*
X73075969Y-102199520D01*
X66250000Y-99750000D02*
X66250000Y-99250000D01*
X74750000Y-105500000D02*
X74250000Y-105500000D01*
X57500000Y-108750000D02*
X58974500Y-108750000D01*
X69793206Y-99567804D02*
X67975402Y-97750000D01*
X60163802Y-101938416D02*
X60674906Y-102449520D01*
X61475000Y-98250000D02*
X61475000Y-96500000D01*
X57137980Y-100970296D02*
X58106100Y-101938416D01*
%TO.N,Net-(C6-Pad1)*%
X60750000Y-101500000D02*
X60750000Y-101250000D01*
X76267475Y-106026608D02*
X76267475Y-104017475D01*
X74362020Y-106112020D02*
X74362020Y-108637980D01*
X60750000Y-101500000D02*
X61250000Y-102000000D01*
X69063152Y-102000000D02*
X69313152Y-101750000D01*
X74362020Y-106112020D02*
X74447432Y-106026608D01*
X74000000Y-101750000D02*
X76250000Y-104000000D01*
X60750000Y-101250000D02*
X59750000Y-100250000D01*
X72250000Y-109500000D02*
X73500000Y-109500000D01*
X61250000Y-102000000D02*
X69063152Y-102000000D01*
X69313152Y-101750000D02*
X74000000Y-101750000D01*
X74447432Y-106026608D02*
X76267475Y-106026608D01*
X74362020Y-108637980D02*
X73500000Y-109500000D01*
X76267475Y-104017475D02*
X76250000Y-104000000D01*
X72000000Y-109250000D02*
X72250000Y-109500000D01*
X59750000Y-100250000D02*
X58000000Y-100250000D01*
%TO.N,NRST*%
X80880000Y-114250000D02*
X87250000Y-107880000D01*
X61750000Y-114250000D02*
X80880000Y-114250000D01*
%TO.N,/2.8V*%
X63100000Y-133200000D02*
X63100000Y-131450000D01*
X63100000Y-131450000D02*
X63100000Y-129700000D01*
X63100000Y-133200000D02*
X65200000Y-133200000D01*
%TO.N,PA14*%
X67998988Y-100300118D02*
X68948870Y-101250000D01*
X87094614Y-95180000D02*
X87250000Y-95180000D01*
X81024614Y-101250000D02*
X87094614Y-95180000D01*
X68948870Y-101250000D02*
X81024614Y-101250000D01*
%TO.N,PA9*%
X81000000Y-109050000D02*
X87250000Y-102800000D01*
X81000000Y-111500000D02*
X81000000Y-109050000D01*
X61974951Y-113000451D02*
X61975402Y-113000000D01*
X61975402Y-113000000D02*
X79500000Y-113000000D01*
X79500000Y-113000000D02*
X81000000Y-111500000D01*
%TO.N,FE_CTRL*%
X78075000Y-123675000D02*
X80000000Y-121750000D01*
X78075000Y-129300000D02*
X78075000Y-123675000D01*
X76325000Y-129300000D02*
X78075000Y-129300000D01*
%TO.N,PB7*%
X59750000Y-112500000D02*
X59750000Y-114750000D01*
X74040000Y-118040000D02*
X87250000Y-118040000D01*
X61500000Y-110750000D02*
X59750000Y-112500000D01*
X61000000Y-116000000D02*
X72000000Y-116000000D01*
X72000000Y-116000000D02*
X74040000Y-118040000D01*
X59750000Y-114750000D02*
X61000000Y-116000000D01*
X61500000Y-105750000D02*
X61500000Y-110750000D01*
%TO.N,PB6*%
X59300480Y-112313802D02*
X59300480Y-115050480D01*
X64830000Y-120580000D02*
X87250000Y-120580000D01*
X60750000Y-110864282D02*
X59300480Y-112313802D01*
X59300480Y-115050480D02*
X64830000Y-120580000D01*
X60750000Y-105000000D02*
X60750000Y-110864282D01*
X61000000Y-104750000D02*
X60750000Y-105000000D01*
%TO.N,PA8*%
X61250000Y-115250000D02*
X72750000Y-115250000D01*
X61250000Y-112000000D02*
X60250000Y-113000000D01*
X60250000Y-114250000D02*
X61250000Y-115250000D01*
X60250000Y-113000000D02*
X60250000Y-114250000D01*
X74250000Y-116750000D02*
X87621010Y-116750000D01*
X72750000Y-115250000D02*
X74250000Y-116750000D01*
X63000000Y-112000000D02*
X61250000Y-112000000D01*
X88500000Y-117628990D02*
X88500000Y-121870000D01*
X87621010Y-116750000D02*
X88500000Y-117628990D01*
X88500000Y-121870000D02*
X87250000Y-123120000D01*
%TO.N,PB12*%
X72050103Y-103300989D02*
X60788680Y-103300989D01*
X59136134Y-109612980D02*
X57029704Y-109612980D01*
X73250000Y-104500886D02*
X72050103Y-103300989D01*
X57029704Y-109612980D02*
X50216724Y-102800000D01*
X59750000Y-108999114D02*
X59136134Y-109612980D01*
X60788680Y-103300989D02*
X59750000Y-104339669D01*
X73250000Y-105000000D02*
X73250000Y-104500886D01*
X59750000Y-104339669D02*
X59750000Y-108999114D01*
X50216724Y-102800000D02*
X39750000Y-102800000D01*
%TO.N,PA11*%
X60275489Y-110474511D02*
X47630000Y-123120000D01*
X60275489Y-104449897D02*
X60275489Y-110474511D01*
X71750000Y-104025500D02*
X60699886Y-104025500D01*
X60699886Y-104025500D02*
X60275489Y-104449897D01*
X47630000Y-123120000D02*
X39750000Y-123120000D01*
%TO.N,Net-(L1-Pad2)*%
X63250000Y-100250000D02*
X61500000Y-100250000D01*
X64250000Y-101250000D02*
X63250000Y-100250000D01*
%TO.N,Net-(R7-Pad2)*%
X72000000Y-129300000D02*
X74500000Y-129300000D01*
%TD*%
%TA.AperFunction,Conductor*%
%TO.N,GND*%
G36*
X58585012Y-113165059D02*
G01*
X58641848Y-113207606D01*
X58666659Y-113274126D01*
X58666980Y-113283115D01*
X58666980Y-114971713D01*
X58666453Y-114982896D01*
X58664778Y-114990389D01*
X58665027Y-114998315D01*
X58665027Y-114998316D01*
X58666918Y-115058466D01*
X58666980Y-115062425D01*
X58666980Y-115090336D01*
X58667477Y-115094270D01*
X58667477Y-115094271D01*
X58667485Y-115094336D01*
X58668418Y-115106173D01*
X58669807Y-115150369D01*
X58675458Y-115169819D01*
X58679467Y-115189180D01*
X58682006Y-115209277D01*
X58684925Y-115216648D01*
X58684925Y-115216650D01*
X58698284Y-115250392D01*
X58702129Y-115261622D01*
X58708201Y-115282522D01*
X58714462Y-115304073D01*
X58718495Y-115310892D01*
X58718497Y-115310897D01*
X58724773Y-115321508D01*
X58733468Y-115339256D01*
X58740928Y-115358097D01*
X58745590Y-115364513D01*
X58745590Y-115364514D01*
X58766916Y-115393867D01*
X58773432Y-115403787D01*
X58795938Y-115441842D01*
X58810259Y-115456163D01*
X58823099Y-115471196D01*
X58835008Y-115487587D01*
X58869085Y-115515778D01*
X58877864Y-115523768D01*
X64326343Y-120972247D01*
X64333887Y-120980537D01*
X64338000Y-120987018D01*
X64343777Y-120992443D01*
X64387667Y-121033658D01*
X64390509Y-121036413D01*
X64410230Y-121056134D01*
X64413425Y-121058612D01*
X64422447Y-121066318D01*
X64454679Y-121096586D01*
X64461628Y-121100406D01*
X64472432Y-121106346D01*
X64488956Y-121117199D01*
X64504959Y-121129613D01*
X64545543Y-121147176D01*
X64556173Y-121152383D01*
X64594940Y-121173695D01*
X64602617Y-121175666D01*
X64602622Y-121175668D01*
X64614558Y-121178732D01*
X64633266Y-121185137D01*
X64651855Y-121193181D01*
X64659683Y-121194421D01*
X64659690Y-121194423D01*
X64695524Y-121200099D01*
X64707144Y-121202505D01*
X64742289Y-121211528D01*
X64749970Y-121213500D01*
X64770224Y-121213500D01*
X64789934Y-121215051D01*
X64809943Y-121218220D01*
X64817835Y-121217474D01*
X64853961Y-121214059D01*
X64865819Y-121213500D01*
X79045644Y-121213500D01*
X79113765Y-121233502D01*
X79160258Y-121287158D01*
X79170362Y-121357432D01*
X79163943Y-121377947D01*
X79165473Y-121378444D01*
X79106458Y-121560072D01*
X79105768Y-121566633D01*
X79105768Y-121566635D01*
X79100419Y-121617529D01*
X79093098Y-121687191D01*
X79089093Y-121725293D01*
X79062080Y-121790950D01*
X79052878Y-121801218D01*
X78367595Y-122486500D01*
X77682747Y-123171348D01*
X77674461Y-123178888D01*
X77667982Y-123183000D01*
X77662557Y-123188777D01*
X77621357Y-123232651D01*
X77618602Y-123235493D01*
X77598865Y-123255230D01*
X77596385Y-123258427D01*
X77588682Y-123267447D01*
X77558414Y-123299679D01*
X77554595Y-123306625D01*
X77554593Y-123306628D01*
X77548652Y-123317434D01*
X77537801Y-123333953D01*
X77525386Y-123349959D01*
X77522241Y-123357228D01*
X77522238Y-123357232D01*
X77507826Y-123390537D01*
X77502609Y-123401187D01*
X77481305Y-123439940D01*
X77479334Y-123447615D01*
X77479334Y-123447616D01*
X77476267Y-123459562D01*
X77469863Y-123478266D01*
X77461819Y-123496855D01*
X77460580Y-123504678D01*
X77460577Y-123504688D01*
X77454901Y-123540524D01*
X77452495Y-123552144D01*
X77443472Y-123587289D01*
X77441500Y-123594970D01*
X77441500Y-123615224D01*
X77439949Y-123634934D01*
X77436780Y-123654943D01*
X77437526Y-123662835D01*
X77440941Y-123698961D01*
X77441500Y-123710819D01*
X77441500Y-128321360D01*
X77421498Y-128389481D01*
X77381804Y-128428503D01*
X77308469Y-128473884D01*
X77267207Y-128515219D01*
X77264145Y-128518286D01*
X77201862Y-128552366D01*
X77131042Y-128547363D01*
X77085953Y-128518442D01*
X77082725Y-128515219D01*
X77040503Y-128473071D01*
X76910397Y-128392872D01*
X76898650Y-128385631D01*
X76898648Y-128385630D01*
X76892420Y-128381791D01*
X76727309Y-128327026D01*
X76720473Y-128326326D01*
X76720470Y-128326325D01*
X76668974Y-128321049D01*
X76624572Y-128316500D01*
X76025428Y-128316500D01*
X76022182Y-128316837D01*
X76022178Y-128316837D01*
X75928265Y-128326581D01*
X75928261Y-128326582D01*
X75921407Y-128327293D01*
X75914871Y-128329474D01*
X75914869Y-128329474D01*
X75782105Y-128373768D01*
X75756393Y-128382346D01*
X75608469Y-128473884D01*
X75603296Y-128479066D01*
X75501753Y-128580786D01*
X75439470Y-128614865D01*
X75368650Y-128609862D01*
X75323563Y-128580941D01*
X75220688Y-128478246D01*
X75220683Y-128478242D01*
X75215503Y-128473071D01*
X75085397Y-128392872D01*
X75073650Y-128385631D01*
X75073648Y-128385630D01*
X75067420Y-128381791D01*
X74902309Y-128327026D01*
X74895473Y-128326326D01*
X74895470Y-128326325D01*
X74843974Y-128321049D01*
X74799572Y-128316500D01*
X74200428Y-128316500D01*
X74197182Y-128316837D01*
X74197178Y-128316837D01*
X74103265Y-128326581D01*
X74103261Y-128326582D01*
X74096407Y-128327293D01*
X74089871Y-128329474D01*
X74089869Y-128329474D01*
X73957105Y-128373768D01*
X73931393Y-128382346D01*
X73783469Y-128473884D01*
X73778296Y-128479066D01*
X73665742Y-128591816D01*
X73665738Y-128591821D01*
X73660571Y-128596997D01*
X73656731Y-128603227D01*
X73656730Y-128603228D01*
X73654643Y-128606614D01*
X73652614Y-128608441D01*
X73652193Y-128608973D01*
X73652102Y-128608901D01*
X73601872Y-128654108D01*
X73547382Y-128666500D01*
X72708200Y-128666500D01*
X72640079Y-128646498D01*
X72620853Y-128630157D01*
X72620580Y-128630460D01*
X72615668Y-128626037D01*
X72611253Y-128621134D01*
X72578031Y-128596997D01*
X72462094Y-128512763D01*
X72462093Y-128512762D01*
X72456752Y-128508882D01*
X72450724Y-128506198D01*
X72450722Y-128506197D01*
X72288319Y-128433891D01*
X72288318Y-128433891D01*
X72282288Y-128431206D01*
X72188888Y-128411353D01*
X72101944Y-128392872D01*
X72101939Y-128392872D01*
X72095487Y-128391500D01*
X71904513Y-128391500D01*
X71898061Y-128392872D01*
X71898056Y-128392872D01*
X71811112Y-128411353D01*
X71717712Y-128431206D01*
X71711682Y-128433891D01*
X71711681Y-128433891D01*
X71549278Y-128506197D01*
X71549276Y-128506198D01*
X71543248Y-128508882D01*
X71537907Y-128512762D01*
X71537906Y-128512763D01*
X71530090Y-128518442D01*
X71388747Y-128621134D01*
X71384326Y-128626044D01*
X71384325Y-128626045D01*
X71293402Y-128727026D01*
X71260960Y-128763056D01*
X71165473Y-128928444D01*
X71106458Y-129110072D01*
X71086496Y-129300000D01*
X71106458Y-129489928D01*
X71165473Y-129671556D01*
X71260960Y-129836944D01*
X71265378Y-129841851D01*
X71265379Y-129841852D01*
X71282563Y-129860937D01*
X71388747Y-129978866D01*
X71421969Y-130003003D01*
X71530305Y-130081714D01*
X71543248Y-130091118D01*
X71549276Y-130093802D01*
X71549278Y-130093803D01*
X71621855Y-130126116D01*
X71717712Y-130168794D01*
X71781041Y-130182255D01*
X71898056Y-130207128D01*
X71898061Y-130207128D01*
X71904513Y-130208500D01*
X72095487Y-130208500D01*
X72101939Y-130207128D01*
X72101944Y-130207128D01*
X72218959Y-130182255D01*
X72282288Y-130168794D01*
X72378145Y-130126116D01*
X72450722Y-130093803D01*
X72450724Y-130093802D01*
X72456752Y-130091118D01*
X72469696Y-130081714D01*
X72604386Y-129983855D01*
X72611253Y-129978866D01*
X72615668Y-129973963D01*
X72620580Y-129969540D01*
X72621705Y-129970789D01*
X72675014Y-129937949D01*
X72708200Y-129933500D01*
X73547536Y-129933500D01*
X73615657Y-129953502D01*
X73654679Y-129993196D01*
X73661384Y-130004031D01*
X73666566Y-130009204D01*
X73779316Y-130121758D01*
X73779321Y-130121762D01*
X73784497Y-130126929D01*
X73790727Y-130130769D01*
X73790728Y-130130770D01*
X73921143Y-130211159D01*
X73932580Y-130218209D01*
X74097691Y-130272974D01*
X74104527Y-130273674D01*
X74104530Y-130273675D01*
X74151870Y-130278525D01*
X74200428Y-130283500D01*
X74799572Y-130283500D01*
X74802818Y-130283163D01*
X74802822Y-130283163D01*
X74896735Y-130273419D01*
X74896739Y-130273418D01*
X74903593Y-130272707D01*
X74910129Y-130270526D01*
X74910131Y-130270526D01*
X75042895Y-130226232D01*
X75068607Y-130217654D01*
X75216531Y-130126116D01*
X75259602Y-130082970D01*
X75323247Y-130019214D01*
X75385530Y-129985135D01*
X75456350Y-129990138D01*
X75501437Y-130019059D01*
X75604312Y-130121754D01*
X75604317Y-130121758D01*
X75609497Y-130126929D01*
X75615727Y-130130769D01*
X75615728Y-130130770D01*
X75746143Y-130211159D01*
X75757580Y-130218209D01*
X75922691Y-130272974D01*
X75929527Y-130273674D01*
X75929530Y-130273675D01*
X75976870Y-130278525D01*
X76025428Y-130283500D01*
X76624572Y-130283500D01*
X76627818Y-130283163D01*
X76627822Y-130283163D01*
X76721735Y-130273419D01*
X76721739Y-130273418D01*
X76728593Y-130272707D01*
X76735129Y-130270526D01*
X76735131Y-130270526D01*
X76867895Y-130226232D01*
X76893607Y-130217654D01*
X77041531Y-130126116D01*
X77085856Y-130081713D01*
X77148138Y-130047634D01*
X77218958Y-130052637D01*
X77264046Y-130081557D01*
X77309497Y-130126929D01*
X77315727Y-130130769D01*
X77315728Y-130130770D01*
X77446143Y-130211159D01*
X77457580Y-130218209D01*
X77622691Y-130272974D01*
X77629527Y-130273674D01*
X77629530Y-130273675D01*
X77676870Y-130278525D01*
X77725428Y-130283500D01*
X78424572Y-130283500D01*
X78427818Y-130283163D01*
X78427822Y-130283163D01*
X78521735Y-130273419D01*
X78521739Y-130273418D01*
X78528593Y-130272707D01*
X78535129Y-130270526D01*
X78535131Y-130270526D01*
X78667895Y-130226232D01*
X78693607Y-130217654D01*
X78841531Y-130126116D01*
X78848774Y-130118861D01*
X78850538Y-130117895D01*
X78852441Y-130116387D01*
X78852699Y-130116713D01*
X78911054Y-130084781D01*
X78981875Y-130089782D01*
X79026970Y-130118708D01*
X79029631Y-130121364D01*
X79041040Y-130130375D01*
X79176563Y-130213912D01*
X79189741Y-130220056D01*
X79341266Y-130270315D01*
X79354632Y-130273181D01*
X79447270Y-130282672D01*
X79453685Y-130283000D01*
X79527885Y-130283000D01*
X79543124Y-130278525D01*
X79544329Y-130277135D01*
X79546000Y-130269452D01*
X79546000Y-130264885D01*
X80054000Y-130264885D01*
X80058475Y-130280124D01*
X80059865Y-130281329D01*
X80067548Y-130283000D01*
X80146266Y-130283000D01*
X80152782Y-130282663D01*
X80246632Y-130272925D01*
X80260028Y-130270032D01*
X80411453Y-130219512D01*
X80424615Y-130213347D01*
X80559992Y-130129574D01*
X80571390Y-130120540D01*
X80683863Y-130007871D01*
X80692875Y-129996460D01*
X80776412Y-129860937D01*
X80782556Y-129847759D01*
X80832815Y-129696234D01*
X80835681Y-129682868D01*
X80845172Y-129590230D01*
X80845500Y-129583815D01*
X80845500Y-129572115D01*
X80841025Y-129556876D01*
X80839635Y-129555671D01*
X80831952Y-129554000D01*
X80072115Y-129554000D01*
X80056876Y-129558475D01*
X80055671Y-129559865D01*
X80054000Y-129567548D01*
X80054000Y-130264885D01*
X79546000Y-130264885D01*
X79546000Y-129027885D01*
X80054000Y-129027885D01*
X80058475Y-129043124D01*
X80059865Y-129044329D01*
X80067548Y-129046000D01*
X80827385Y-129046000D01*
X80842624Y-129041525D01*
X80843829Y-129040135D01*
X80845500Y-129032452D01*
X80845500Y-129016234D01*
X80845163Y-129009718D01*
X80835425Y-128915868D01*
X80832532Y-128902472D01*
X80782012Y-128751047D01*
X80775847Y-128737885D01*
X80692074Y-128602508D01*
X80683040Y-128591110D01*
X80570371Y-128478637D01*
X80558960Y-128469625D01*
X80423437Y-128386088D01*
X80410259Y-128379944D01*
X80258734Y-128329685D01*
X80245368Y-128326819D01*
X80152730Y-128317328D01*
X80146315Y-128317000D01*
X80072115Y-128317000D01*
X80056876Y-128321475D01*
X80055671Y-128322865D01*
X80054000Y-128330548D01*
X80054000Y-129027885D01*
X79546000Y-129027885D01*
X79546000Y-128335115D01*
X79541525Y-128319876D01*
X79540135Y-128318671D01*
X79532452Y-128317000D01*
X79453734Y-128317000D01*
X79447218Y-128317337D01*
X79353368Y-128327075D01*
X79339972Y-128329968D01*
X79188547Y-128380488D01*
X79175385Y-128386653D01*
X79040008Y-128470426D01*
X79028606Y-128479464D01*
X79026933Y-128481139D01*
X79025507Y-128481919D01*
X79022873Y-128484007D01*
X79022516Y-128483556D01*
X78964651Y-128515219D01*
X78893831Y-128510216D01*
X78848746Y-128481299D01*
X78845685Y-128478244D01*
X78840503Y-128473071D01*
X78776942Y-128433891D01*
X78768384Y-128428616D01*
X78720891Y-128375844D01*
X78708500Y-128321356D01*
X78708500Y-123989594D01*
X78728502Y-123921473D01*
X78745405Y-123900499D01*
X79950500Y-122695405D01*
X80012812Y-122661379D01*
X80039595Y-122658500D01*
X80095487Y-122658500D01*
X80101939Y-122657128D01*
X80101944Y-122657128D01*
X80198955Y-122636507D01*
X80282288Y-122618794D01*
X80372575Y-122578596D01*
X80450722Y-122543803D01*
X80450724Y-122543802D01*
X80456752Y-122541118D01*
X80611253Y-122428866D01*
X80685231Y-122346705D01*
X80734621Y-122291852D01*
X80734622Y-122291851D01*
X80739040Y-122286944D01*
X80834527Y-122121556D01*
X80893542Y-121939928D01*
X80901849Y-121860897D01*
X80912814Y-121756565D01*
X80913504Y-121750000D01*
X80907895Y-121696632D01*
X80894232Y-121566635D01*
X80894232Y-121566633D01*
X80893542Y-121560072D01*
X80834527Y-121378444D01*
X80838305Y-121377216D01*
X80829084Y-121325975D01*
X80856283Y-121260395D01*
X80914619Y-121219930D01*
X80954356Y-121213500D01*
X85974274Y-121213500D01*
X86042395Y-121233502D01*
X86081707Y-121273665D01*
X86149987Y-121385088D01*
X86296250Y-121553938D01*
X86468126Y-121696632D01*
X86517174Y-121725293D01*
X86541445Y-121739476D01*
X86590169Y-121791114D01*
X86603240Y-121860897D01*
X86576509Y-121926669D01*
X86536055Y-121960027D01*
X86523607Y-121966507D01*
X86519474Y-121969610D01*
X86519471Y-121969612D01*
X86349100Y-122097530D01*
X86344965Y-122100635D01*
X86190629Y-122262138D01*
X86064743Y-122446680D01*
X86047596Y-122483621D01*
X85976629Y-122636507D01*
X85970688Y-122649305D01*
X85910989Y-122864570D01*
X85887251Y-123086695D01*
X85887548Y-123091848D01*
X85887548Y-123091851D01*
X85895749Y-123234079D01*
X85900110Y-123309715D01*
X85901247Y-123314761D01*
X85901248Y-123314767D01*
X85918324Y-123390537D01*
X85949222Y-123527639D01*
X86000914Y-123654943D01*
X86026662Y-123718351D01*
X86033266Y-123734616D01*
X86046796Y-123756695D01*
X86108012Y-123856590D01*
X86149987Y-123925088D01*
X86296250Y-124093938D01*
X86468126Y-124236632D01*
X86661000Y-124349338D01*
X86869692Y-124429030D01*
X86874760Y-124430061D01*
X86874763Y-124430062D01*
X86969518Y-124449340D01*
X87088597Y-124473567D01*
X87093772Y-124473757D01*
X87093774Y-124473757D01*
X87306673Y-124481564D01*
X87306677Y-124481564D01*
X87311837Y-124481753D01*
X87316957Y-124481097D01*
X87316959Y-124481097D01*
X87528288Y-124454025D01*
X87528289Y-124454025D01*
X87533416Y-124453368D01*
X87546842Y-124449340D01*
X87742429Y-124390661D01*
X87742434Y-124390659D01*
X87747384Y-124389174D01*
X87947994Y-124290896D01*
X88129860Y-124161173D01*
X88140562Y-124150509D01*
X88284435Y-124007137D01*
X88288096Y-124003489D01*
X88347594Y-123920689D01*
X88415435Y-123826277D01*
X88418453Y-123822077D01*
X88422145Y-123814608D01*
X88515136Y-123626453D01*
X88515137Y-123626451D01*
X88517430Y-123621811D01*
X88557605Y-123489580D01*
X88580865Y-123413023D01*
X88580865Y-123413021D01*
X88582370Y-123408069D01*
X88611529Y-123186590D01*
X88611749Y-123177593D01*
X88613074Y-123123365D01*
X88613074Y-123123361D01*
X88613156Y-123120000D01*
X88594852Y-122897361D01*
X88566821Y-122785765D01*
X88569625Y-122714825D01*
X88599930Y-122665974D01*
X88776405Y-122489500D01*
X88838717Y-122455475D01*
X88909533Y-122460540D01*
X88966368Y-122503087D01*
X88991179Y-122569608D01*
X88991500Y-122578596D01*
X88991500Y-145115500D01*
X88971498Y-145183621D01*
X88917842Y-145230114D01*
X88865500Y-145241500D01*
X75474000Y-145241500D01*
X75405879Y-145221498D01*
X75359386Y-145167842D01*
X75348000Y-145115500D01*
X75348000Y-143074375D01*
X75343525Y-143059136D01*
X75342135Y-143057931D01*
X75334452Y-143056260D01*
X71930116Y-143056260D01*
X71914877Y-143060735D01*
X71913672Y-143062125D01*
X71912001Y-143069808D01*
X71912001Y-145115500D01*
X71891999Y-145183621D01*
X71838343Y-145230114D01*
X71786001Y-145241500D01*
X66714000Y-145241500D01*
X66645879Y-145221498D01*
X66599386Y-145167842D01*
X66588000Y-145115500D01*
X66588000Y-143074375D01*
X66583525Y-143059136D01*
X66582135Y-143057931D01*
X66574452Y-143056260D01*
X63170116Y-143056260D01*
X63154877Y-143060735D01*
X63153672Y-143062125D01*
X63152001Y-143069808D01*
X63152001Y-145115500D01*
X63131999Y-145183621D01*
X63078343Y-145230114D01*
X63026001Y-145241500D01*
X38134500Y-145241500D01*
X38066379Y-145221498D01*
X38019886Y-145167842D01*
X38008500Y-145115500D01*
X38008500Y-142530145D01*
X63152000Y-142530145D01*
X63156475Y-142545384D01*
X63157865Y-142546589D01*
X63165548Y-142548260D01*
X64597885Y-142548260D01*
X64613124Y-142543785D01*
X64614329Y-142542395D01*
X64616000Y-142534712D01*
X64616000Y-140060375D01*
X64611525Y-140045136D01*
X64610135Y-140043931D01*
X64602452Y-140042260D01*
X64218000Y-140042260D01*
X64149879Y-140022258D01*
X64103386Y-139968602D01*
X64092000Y-139916260D01*
X64092000Y-139708260D01*
X64112002Y-139640139D01*
X64165658Y-139593646D01*
X64218000Y-139582260D01*
X64712675Y-139582260D01*
X64721949Y-139579537D01*
X65016513Y-139579537D01*
X65023814Y-139582260D01*
X65522000Y-139582260D01*
X65590121Y-139602262D01*
X65636614Y-139655918D01*
X65648000Y-139708260D01*
X65648000Y-139916260D01*
X65627998Y-139984381D01*
X65574342Y-140030874D01*
X65522000Y-140042260D01*
X65142115Y-140042260D01*
X65126876Y-140046735D01*
X65125671Y-140048125D01*
X65124000Y-140055808D01*
X65124000Y-142530145D01*
X65128475Y-142545384D01*
X65129865Y-142546589D01*
X65137548Y-142548260D01*
X66569884Y-142548260D01*
X66585123Y-142543785D01*
X66586328Y-142542395D01*
X66587999Y-142534712D01*
X66587999Y-142530145D01*
X71912000Y-142530145D01*
X71916475Y-142545384D01*
X71917865Y-142546589D01*
X71925548Y-142548260D01*
X73357885Y-142548260D01*
X73373124Y-142543785D01*
X73374329Y-142542395D01*
X73376000Y-142534712D01*
X73376000Y-140060375D01*
X73371525Y-140045136D01*
X73370135Y-140043931D01*
X73362452Y-140042260D01*
X72978000Y-140042260D01*
X72909879Y-140022258D01*
X72863386Y-139968602D01*
X72852000Y-139916260D01*
X72852000Y-139708260D01*
X72872002Y-139640139D01*
X72925658Y-139593646D01*
X72978000Y-139582260D01*
X73472675Y-139582260D01*
X73481949Y-139579537D01*
X73776513Y-139579537D01*
X73783814Y-139582260D01*
X74282000Y-139582260D01*
X74350121Y-139602262D01*
X74396614Y-139655918D01*
X74408000Y-139708260D01*
X74408000Y-139916260D01*
X74387998Y-139984381D01*
X74334342Y-140030874D01*
X74282000Y-140042260D01*
X73902115Y-140042260D01*
X73886876Y-140046735D01*
X73885671Y-140048125D01*
X73884000Y-140055808D01*
X73884000Y-142530145D01*
X73888475Y-142545384D01*
X73889865Y-142546589D01*
X73897548Y-142548260D01*
X75329884Y-142548260D01*
X75345123Y-142543785D01*
X75346328Y-142542395D01*
X75347999Y-142534712D01*
X75347999Y-140217591D01*
X75347629Y-140210770D01*
X75342105Y-140159908D01*
X75338479Y-140144656D01*
X75293324Y-140024206D01*
X75284786Y-140008611D01*
X75208285Y-139906536D01*
X75195724Y-139893975D01*
X75093649Y-139817474D01*
X75078054Y-139808936D01*
X74957606Y-139763782D01*
X74942351Y-139760155D01*
X74891486Y-139754629D01*
X74884672Y-139754260D01*
X74720848Y-139754260D01*
X74652727Y-139734258D01*
X74606234Y-139680602D01*
X74596130Y-139610328D01*
X74599709Y-139595182D01*
X74599698Y-139595179D01*
X74603782Y-139577202D01*
X74626973Y-139393624D01*
X74627465Y-139386595D01*
X74627756Y-139365765D01*
X74627463Y-139358772D01*
X74609403Y-139174585D01*
X74607020Y-139162550D01*
X74554298Y-138987925D01*
X74549623Y-138976584D01*
X74497472Y-138878501D01*
X74487610Y-138868418D01*
X74480484Y-138870986D01*
X73782022Y-139569448D01*
X73776513Y-139579537D01*
X73481949Y-139579537D01*
X73483700Y-139579023D01*
X73480462Y-139571932D01*
X72784166Y-138875636D01*
X72771786Y-138868876D01*
X72765398Y-138873658D01*
X72715854Y-138963776D01*
X72711017Y-138975061D01*
X72655861Y-139148935D01*
X72653313Y-139160924D01*
X72632979Y-139342203D01*
X72632808Y-139354472D01*
X72648071Y-139536242D01*
X72650286Y-139548310D01*
X72663253Y-139593532D01*
X72662802Y-139664527D01*
X72624040Y-139724008D01*
X72559273Y-139753090D01*
X72542134Y-139754261D01*
X72375331Y-139754261D01*
X72368510Y-139754631D01*
X72317648Y-139760155D01*
X72302396Y-139763781D01*
X72181946Y-139808936D01*
X72166351Y-139817474D01*
X72064276Y-139893975D01*
X72051715Y-139906536D01*
X71975214Y-140008611D01*
X71966676Y-140024206D01*
X71921522Y-140144654D01*
X71917895Y-140159909D01*
X71912369Y-140210774D01*
X71912000Y-140217588D01*
X71912000Y-142530145D01*
X66587999Y-142530145D01*
X66587999Y-140217591D01*
X66587629Y-140210770D01*
X66582105Y-140159908D01*
X66578479Y-140144656D01*
X66533324Y-140024206D01*
X66524786Y-140008611D01*
X66448285Y-139906536D01*
X66435724Y-139893975D01*
X66333649Y-139817474D01*
X66318054Y-139808936D01*
X66197606Y-139763782D01*
X66182351Y-139760155D01*
X66131486Y-139754629D01*
X66124672Y-139754260D01*
X65960848Y-139754260D01*
X65892727Y-139734258D01*
X65846234Y-139680602D01*
X65836130Y-139610328D01*
X65839709Y-139595182D01*
X65839698Y-139595179D01*
X65843782Y-139577202D01*
X65866973Y-139393624D01*
X65867465Y-139386595D01*
X65867756Y-139365765D01*
X65867463Y-139358772D01*
X65849403Y-139174585D01*
X65847020Y-139162550D01*
X65794298Y-138987925D01*
X65789623Y-138976584D01*
X65737472Y-138878501D01*
X65727610Y-138868418D01*
X65720484Y-138870986D01*
X65022022Y-139569448D01*
X65016513Y-139579537D01*
X64721949Y-139579537D01*
X64723700Y-139579023D01*
X64720462Y-139571932D01*
X64024166Y-138875636D01*
X64011786Y-138868876D01*
X64005398Y-138873658D01*
X63955854Y-138963776D01*
X63951017Y-138975061D01*
X63895861Y-139148935D01*
X63893313Y-139160924D01*
X63872979Y-139342203D01*
X63872808Y-139354472D01*
X63888071Y-139536242D01*
X63890286Y-139548310D01*
X63903253Y-139593532D01*
X63902802Y-139664527D01*
X63864040Y-139724008D01*
X63799273Y-139753090D01*
X63782134Y-139754261D01*
X63615331Y-139754261D01*
X63608510Y-139754631D01*
X63557648Y-139760155D01*
X63542396Y-139763781D01*
X63421946Y-139808936D01*
X63406351Y-139817474D01*
X63304276Y-139893975D01*
X63291715Y-139906536D01*
X63215214Y-140008611D01*
X63206676Y-140024206D01*
X63161522Y-140144654D01*
X63157895Y-140159909D01*
X63152369Y-140210774D01*
X63152000Y-140217588D01*
X63152000Y-142530145D01*
X38008500Y-142530145D01*
X38008500Y-138504476D01*
X64375934Y-138504476D01*
X64378389Y-138511439D01*
X64857188Y-138990238D01*
X64871132Y-138997852D01*
X64872965Y-138997721D01*
X64879580Y-138993470D01*
X65356766Y-138516284D01*
X65363214Y-138504476D01*
X73135934Y-138504476D01*
X73138389Y-138511439D01*
X73617188Y-138990238D01*
X73631132Y-138997852D01*
X73632965Y-138997721D01*
X73639580Y-138993470D01*
X74116766Y-138516284D01*
X74123526Y-138503904D01*
X74118867Y-138497681D01*
X74022083Y-138445350D01*
X74010778Y-138440598D01*
X73836524Y-138386657D01*
X73824511Y-138384191D01*
X73643094Y-138365123D01*
X73630826Y-138365038D01*
X73449169Y-138381570D01*
X73437120Y-138383868D01*
X73262128Y-138435371D01*
X73250751Y-138439968D01*
X73146083Y-138494687D01*
X73135934Y-138504476D01*
X65363214Y-138504476D01*
X65363526Y-138503904D01*
X65358867Y-138497681D01*
X65262083Y-138445350D01*
X65250778Y-138440598D01*
X65076524Y-138386657D01*
X65064511Y-138384191D01*
X64883094Y-138365123D01*
X64870826Y-138365038D01*
X64689169Y-138381570D01*
X64677120Y-138383868D01*
X64502128Y-138435371D01*
X64490751Y-138439968D01*
X64386083Y-138494687D01*
X64375934Y-138504476D01*
X38008500Y-138504476D01*
X38008500Y-133483766D01*
X60329500Y-133483766D01*
X60329837Y-133490282D01*
X60339575Y-133584132D01*
X60342468Y-133597528D01*
X60392988Y-133748953D01*
X60399153Y-133762115D01*
X60482926Y-133897492D01*
X60491960Y-133908890D01*
X60604629Y-134021363D01*
X60616040Y-134030375D01*
X60751563Y-134113912D01*
X60764741Y-134120056D01*
X60916266Y-134170315D01*
X60929632Y-134173181D01*
X61022270Y-134182672D01*
X61028685Y-134183000D01*
X61102885Y-134183000D01*
X61118124Y-134178525D01*
X61119329Y-134177135D01*
X61121000Y-134169452D01*
X61121000Y-133472115D01*
X61116525Y-133456876D01*
X61115135Y-133455671D01*
X61107452Y-133454000D01*
X60347615Y-133454000D01*
X60332376Y-133458475D01*
X60331171Y-133459865D01*
X60329500Y-133467548D01*
X60329500Y-133483766D01*
X38008500Y-133483766D01*
X38008500Y-131733766D01*
X60279500Y-131733766D01*
X60279837Y-131740282D01*
X60289575Y-131834132D01*
X60292468Y-131847528D01*
X60342988Y-131998953D01*
X60349153Y-132012115D01*
X60432926Y-132147492D01*
X60441960Y-132158890D01*
X60544038Y-132260790D01*
X60578117Y-132323072D01*
X60573114Y-132393892D01*
X60544193Y-132438981D01*
X60491137Y-132492129D01*
X60482125Y-132503540D01*
X60398588Y-132639063D01*
X60392444Y-132652241D01*
X60342185Y-132803766D01*
X60339319Y-132817132D01*
X60329828Y-132909770D01*
X60329500Y-132916185D01*
X60329500Y-132927885D01*
X60333975Y-132943124D01*
X60335365Y-132944329D01*
X60343048Y-132946000D01*
X61102885Y-132946000D01*
X61118124Y-132941525D01*
X61119329Y-132940135D01*
X61121000Y-132932452D01*
X61121000Y-132491115D01*
X61116525Y-132475876D01*
X61109925Y-132470157D01*
X61057906Y-132441753D01*
X61023880Y-132379441D01*
X61021000Y-132352656D01*
X61021000Y-131722115D01*
X61016525Y-131706876D01*
X61015135Y-131705671D01*
X61007452Y-131704000D01*
X60297615Y-131704000D01*
X60282376Y-131708475D01*
X60281171Y-131709865D01*
X60279500Y-131717548D01*
X60279500Y-131733766D01*
X38008500Y-131733766D01*
X38008500Y-124239604D01*
X38028502Y-124171483D01*
X38082158Y-124124990D01*
X38152432Y-124114886D01*
X38217012Y-124144380D01*
X38223595Y-124150509D01*
X44165338Y-130092253D01*
X44172878Y-130100539D01*
X44176990Y-130107018D01*
X44182767Y-130112443D01*
X44226641Y-130153643D01*
X44229483Y-130156398D01*
X44249220Y-130176135D01*
X44252417Y-130178615D01*
X44261437Y-130186318D01*
X44293669Y-130216586D01*
X44300615Y-130220405D01*
X44300618Y-130220407D01*
X44311424Y-130226348D01*
X44327943Y-130237199D01*
X44343949Y-130249614D01*
X44351218Y-130252759D01*
X44351222Y-130252762D01*
X44384527Y-130267174D01*
X44395177Y-130272391D01*
X44433930Y-130293695D01*
X44441605Y-130295666D01*
X44441606Y-130295666D01*
X44453552Y-130298733D01*
X44472257Y-130305137D01*
X44490845Y-130313181D01*
X44498668Y-130314420D01*
X44498678Y-130314423D01*
X44534514Y-130320099D01*
X44546134Y-130322505D01*
X44581279Y-130331528D01*
X44588960Y-130333500D01*
X44609214Y-130333500D01*
X44628924Y-130335051D01*
X44648933Y-130338220D01*
X44656825Y-130337474D01*
X44692951Y-130334059D01*
X44704809Y-130333500D01*
X60322536Y-130333500D01*
X60390657Y-130353502D01*
X60429679Y-130393196D01*
X60436384Y-130404031D01*
X60441566Y-130409204D01*
X60441570Y-130409209D01*
X60518640Y-130486144D01*
X60552720Y-130548426D01*
X60547717Y-130619246D01*
X60518796Y-130664335D01*
X60441137Y-130742129D01*
X60432125Y-130753540D01*
X60348588Y-130889063D01*
X60342444Y-130902241D01*
X60292185Y-131053766D01*
X60289319Y-131067132D01*
X60279828Y-131159770D01*
X60279500Y-131166185D01*
X60279500Y-131177885D01*
X60283975Y-131193124D01*
X60285365Y-131194329D01*
X60293048Y-131196000D01*
X61403000Y-131196000D01*
X61471121Y-131216002D01*
X61517614Y-131269658D01*
X61529000Y-131322000D01*
X61529000Y-132158885D01*
X61533475Y-132174124D01*
X61540075Y-132179843D01*
X61592094Y-132208247D01*
X61626120Y-132270559D01*
X61629000Y-132297344D01*
X61629000Y-134164885D01*
X61633475Y-134180124D01*
X61634865Y-134181329D01*
X61642548Y-134183000D01*
X61721266Y-134183000D01*
X61727782Y-134182663D01*
X61821632Y-134172925D01*
X61835028Y-134170032D01*
X61986453Y-134119512D01*
X61999615Y-134113347D01*
X62134992Y-134029574D01*
X62146394Y-134020536D01*
X62148067Y-134018861D01*
X62149493Y-134018081D01*
X62152127Y-134015993D01*
X62152484Y-134016444D01*
X62210349Y-133984781D01*
X62281169Y-133989784D01*
X62326254Y-134018701D01*
X62328921Y-134021363D01*
X62334497Y-134026929D01*
X62482580Y-134118209D01*
X62647691Y-134172974D01*
X62654527Y-134173674D01*
X62654530Y-134173675D01*
X62701870Y-134178525D01*
X62750428Y-134183500D01*
X63449572Y-134183500D01*
X63452818Y-134183163D01*
X63452822Y-134183163D01*
X63546735Y-134173419D01*
X63546739Y-134173418D01*
X63553593Y-134172707D01*
X63560129Y-134170526D01*
X63560131Y-134170526D01*
X63692895Y-134126232D01*
X63718607Y-134117654D01*
X63866531Y-134026116D01*
X63907794Y-133984781D01*
X63984258Y-133908184D01*
X63984262Y-133908179D01*
X63989429Y-133903003D01*
X63995357Y-133893386D01*
X63997386Y-133891559D01*
X63997807Y-133891027D01*
X63997898Y-133891099D01*
X64048128Y-133845892D01*
X64102618Y-133833500D01*
X64491800Y-133833500D01*
X64559921Y-133853502D01*
X64579147Y-133869843D01*
X64579420Y-133869540D01*
X64584332Y-133873963D01*
X64588747Y-133878866D01*
X64605485Y-133891027D01*
X64623384Y-133904031D01*
X64743248Y-133991118D01*
X64749276Y-133993802D01*
X64749278Y-133993803D01*
X64812062Y-134021756D01*
X64917712Y-134068794D01*
X65011112Y-134088647D01*
X65098056Y-134107128D01*
X65098061Y-134107128D01*
X65104513Y-134108500D01*
X65295487Y-134108500D01*
X65301939Y-134107128D01*
X65301944Y-134107128D01*
X65388888Y-134088647D01*
X65482288Y-134068794D01*
X65587938Y-134021756D01*
X65650722Y-133993803D01*
X65650724Y-133993802D01*
X65656752Y-133991118D01*
X65811253Y-133878866D01*
X65939040Y-133736944D01*
X66034527Y-133571556D01*
X66093542Y-133389928D01*
X66113504Y-133200000D01*
X66093542Y-133010072D01*
X66034527Y-132828444D01*
X65939040Y-132663056D01*
X65922855Y-132645080D01*
X65815675Y-132526045D01*
X65815674Y-132526044D01*
X65811253Y-132521134D01*
X65656752Y-132408882D01*
X65650724Y-132406198D01*
X65650722Y-132406197D01*
X65488319Y-132333891D01*
X65488318Y-132333891D01*
X65482288Y-132331206D01*
X65380424Y-132309554D01*
X65301944Y-132292872D01*
X65301939Y-132292872D01*
X65295487Y-132291500D01*
X65104513Y-132291500D01*
X65098061Y-132292872D01*
X65098056Y-132292872D01*
X65019576Y-132309554D01*
X64917712Y-132331206D01*
X64911682Y-132333891D01*
X64911681Y-132333891D01*
X64749278Y-132406197D01*
X64749276Y-132406198D01*
X64743248Y-132408882D01*
X64737907Y-132412762D01*
X64737906Y-132412763D01*
X64621969Y-132496997D01*
X64588747Y-132521134D01*
X64584332Y-132526037D01*
X64579420Y-132530460D01*
X64578295Y-132529211D01*
X64524986Y-132562051D01*
X64491800Y-132566500D01*
X64102464Y-132566500D01*
X64034343Y-132546498D01*
X63995321Y-132506804D01*
X63988616Y-132495969D01*
X63983434Y-132490796D01*
X63983430Y-132490791D01*
X63881671Y-132389210D01*
X63847591Y-132326928D01*
X63852594Y-132256108D01*
X63881514Y-132211020D01*
X63934257Y-132158184D01*
X63939429Y-132153003D01*
X64030709Y-132004920D01*
X64085474Y-131839809D01*
X64096000Y-131737072D01*
X64096000Y-131162928D01*
X64095663Y-131159678D01*
X64085919Y-131065765D01*
X64085918Y-131065761D01*
X64085207Y-131058907D01*
X64030154Y-130893893D01*
X63938616Y-130745969D01*
X63856713Y-130664209D01*
X63822634Y-130601929D01*
X63827637Y-130531108D01*
X63856558Y-130486019D01*
X63934258Y-130408184D01*
X63934262Y-130408179D01*
X63939429Y-130403003D01*
X63980126Y-130336980D01*
X64026869Y-130261150D01*
X64026870Y-130261148D01*
X64030709Y-130254920D01*
X64085474Y-130089809D01*
X64086304Y-130081714D01*
X64095672Y-129990271D01*
X64096000Y-129987072D01*
X64096000Y-129412928D01*
X64085207Y-129308907D01*
X64082236Y-129300000D01*
X64032472Y-129150841D01*
X64030154Y-129143893D01*
X63938616Y-128995969D01*
X63923562Y-128980941D01*
X63820684Y-128878242D01*
X63820679Y-128878238D01*
X63815503Y-128873071D01*
X63667420Y-128781791D01*
X63502309Y-128727026D01*
X63495473Y-128726326D01*
X63495470Y-128726325D01*
X63443974Y-128721049D01*
X63399572Y-128716500D01*
X62800428Y-128716500D01*
X62797182Y-128716837D01*
X62797178Y-128716837D01*
X62703265Y-128726581D01*
X62703261Y-128726582D01*
X62696407Y-128727293D01*
X62689871Y-128729474D01*
X62689869Y-128729474D01*
X62603923Y-128758148D01*
X62531393Y-128782346D01*
X62383469Y-128873884D01*
X62378296Y-128879066D01*
X62276753Y-128980786D01*
X62214470Y-129014865D01*
X62143650Y-129009862D01*
X62098563Y-128980941D01*
X61995688Y-128878246D01*
X61995683Y-128878242D01*
X61990503Y-128873071D01*
X61842420Y-128781791D01*
X61677309Y-128727026D01*
X61670473Y-128726326D01*
X61670470Y-128726325D01*
X61618974Y-128721049D01*
X61574572Y-128716500D01*
X60975428Y-128716500D01*
X60972182Y-128716837D01*
X60972178Y-128716837D01*
X60878265Y-128726581D01*
X60878261Y-128726582D01*
X60871407Y-128727293D01*
X60864871Y-128729474D01*
X60864869Y-128729474D01*
X60778923Y-128758148D01*
X60706393Y-128782346D01*
X60558469Y-128873884D01*
X60553296Y-128879066D01*
X60440742Y-128991816D01*
X60440738Y-128991821D01*
X60435571Y-128996997D01*
X60431731Y-129003227D01*
X60431730Y-129003228D01*
X60429643Y-129006614D01*
X60427614Y-129008441D01*
X60427193Y-129008973D01*
X60427102Y-129008901D01*
X60376872Y-129054108D01*
X60322382Y-129066500D01*
X44983584Y-129066500D01*
X44915463Y-129046498D01*
X44894489Y-129029595D01*
X40376547Y-124511652D01*
X40342521Y-124449340D01*
X40347586Y-124378525D01*
X40390133Y-124321689D01*
X40410200Y-124309411D01*
X40447994Y-124290896D01*
X40629860Y-124161173D01*
X40640562Y-124150509D01*
X40784435Y-124007137D01*
X40788096Y-124003489D01*
X40847594Y-123920689D01*
X40915435Y-123826277D01*
X40918453Y-123822077D01*
X40920746Y-123817437D01*
X40922446Y-123814608D01*
X40974674Y-123766518D01*
X41016762Y-123756695D01*
X58137251Y-123756695D01*
X58137548Y-123761848D01*
X58137548Y-123761851D01*
X58146707Y-123920689D01*
X58150110Y-123979715D01*
X58151247Y-123984761D01*
X58151248Y-123984767D01*
X58171119Y-124072939D01*
X58199222Y-124197639D01*
X58237461Y-124291811D01*
X58277600Y-124390661D01*
X58283266Y-124404616D01*
X58285965Y-124409020D01*
X58348858Y-124511652D01*
X58399987Y-124595088D01*
X58546250Y-124763938D01*
X58718126Y-124906632D01*
X58911000Y-125019338D01*
X59119692Y-125099030D01*
X59124760Y-125100061D01*
X59124763Y-125100062D01*
X59232017Y-125121883D01*
X59338597Y-125143567D01*
X59343772Y-125143757D01*
X59343774Y-125143757D01*
X59556673Y-125151564D01*
X59556677Y-125151564D01*
X59561837Y-125151753D01*
X59566957Y-125151097D01*
X59566959Y-125151097D01*
X59778288Y-125124025D01*
X59778289Y-125124025D01*
X59783416Y-125123368D01*
X59788366Y-125121883D01*
X59992429Y-125060661D01*
X59992434Y-125060659D01*
X59997384Y-125059174D01*
X60197994Y-124960896D01*
X60379860Y-124831173D01*
X60538096Y-124673489D01*
X60597594Y-124590689D01*
X60665435Y-124496277D01*
X60668453Y-124492077D01*
X60673556Y-124481753D01*
X60765136Y-124296453D01*
X60765137Y-124296451D01*
X60767430Y-124291811D01*
X60821184Y-124114886D01*
X60830865Y-124083023D01*
X60830865Y-124083021D01*
X60832370Y-124078069D01*
X60861529Y-123856590D01*
X60863156Y-123790000D01*
X60844852Y-123567361D01*
X60790431Y-123350702D01*
X60701354Y-123145840D01*
X60580014Y-122958277D01*
X60576532Y-122954450D01*
X60432798Y-122796488D01*
X60401746Y-122732642D01*
X60410141Y-122662143D01*
X60455317Y-122607375D01*
X60481761Y-122593706D01*
X60588297Y-122553767D01*
X60596705Y-122550615D01*
X60713261Y-122463261D01*
X60800615Y-122346705D01*
X60851745Y-122210316D01*
X60858500Y-122148134D01*
X60858500Y-120351866D01*
X60851745Y-120289684D01*
X60800615Y-120153295D01*
X60713261Y-120036739D01*
X60596705Y-119949385D01*
X60460316Y-119898255D01*
X60398134Y-119891500D01*
X58601866Y-119891500D01*
X58539684Y-119898255D01*
X58403295Y-119949385D01*
X58286739Y-120036739D01*
X58199385Y-120153295D01*
X58148255Y-120289684D01*
X58141500Y-120351866D01*
X58141500Y-122148134D01*
X58148255Y-122210316D01*
X58199385Y-122346705D01*
X58286739Y-122463261D01*
X58403295Y-122550615D01*
X58411704Y-122553767D01*
X58411705Y-122553768D01*
X58520451Y-122594535D01*
X58577216Y-122637176D01*
X58601916Y-122703738D01*
X58586709Y-122773087D01*
X58567316Y-122799568D01*
X58500290Y-122869707D01*
X58440629Y-122932138D01*
X58314743Y-123116680D01*
X58283847Y-123183240D01*
X58225140Y-123309715D01*
X58220688Y-123319305D01*
X58160989Y-123534570D01*
X58137251Y-123756695D01*
X41016762Y-123756695D01*
X41030451Y-123753500D01*
X47551233Y-123753500D01*
X47562416Y-123754027D01*
X47569909Y-123755702D01*
X47577835Y-123755453D01*
X47577836Y-123755453D01*
X47637986Y-123753562D01*
X47641945Y-123753500D01*
X47669856Y-123753500D01*
X47673791Y-123753003D01*
X47673856Y-123752995D01*
X47685693Y-123752062D01*
X47717951Y-123751048D01*
X47721970Y-123750922D01*
X47729889Y-123750673D01*
X47749343Y-123745021D01*
X47768700Y-123741013D01*
X47780930Y-123739468D01*
X47780931Y-123739468D01*
X47788797Y-123738474D01*
X47796168Y-123735555D01*
X47796170Y-123735555D01*
X47829912Y-123722196D01*
X47841142Y-123718351D01*
X47875983Y-123708229D01*
X47875984Y-123708229D01*
X47883593Y-123706018D01*
X47890412Y-123701985D01*
X47890417Y-123701983D01*
X47901028Y-123695707D01*
X47918776Y-123687012D01*
X47937617Y-123679552D01*
X47973387Y-123653564D01*
X47983307Y-123647048D01*
X48014535Y-123628580D01*
X48014538Y-123628578D01*
X48021362Y-123624542D01*
X48035683Y-123610221D01*
X48050717Y-123597380D01*
X48060694Y-123590131D01*
X48067107Y-123585472D01*
X48095298Y-123551395D01*
X48103288Y-123542616D01*
X58451885Y-113194020D01*
X58514197Y-113159994D01*
X58585012Y-113165059D01*
G37*
%TD.AperFunction*%
%TA.AperFunction,Conductor*%
G36*
X49970251Y-103453502D02*
G01*
X49991225Y-103470405D01*
X56486662Y-109965842D01*
X56520688Y-110028154D01*
X56522911Y-110067780D01*
X56517328Y-110122270D01*
X56517000Y-110128685D01*
X56517000Y-110202885D01*
X56521475Y-110218124D01*
X56522865Y-110219329D01*
X56530548Y-110221000D01*
X56819422Y-110221000D01*
X56849539Y-110225287D01*
X56851559Y-110226161D01*
X56859383Y-110227400D01*
X56859389Y-110227402D01*
X56895228Y-110233079D01*
X56906848Y-110235485D01*
X56938663Y-110243653D01*
X56949674Y-110246480D01*
X56969928Y-110246480D01*
X56989638Y-110248031D01*
X57009647Y-110251200D01*
X57017539Y-110250454D01*
X57036284Y-110248682D01*
X57053666Y-110247039D01*
X57065523Y-110246480D01*
X59057367Y-110246480D01*
X59068550Y-110247007D01*
X59076043Y-110248682D01*
X59083969Y-110248433D01*
X59083970Y-110248433D01*
X59144120Y-110246542D01*
X59148079Y-110246480D01*
X59175990Y-110246480D01*
X59179925Y-110245983D01*
X59179990Y-110245975D01*
X59191827Y-110245042D01*
X59224085Y-110244028D01*
X59228104Y-110243902D01*
X59236023Y-110243653D01*
X59255477Y-110238001D01*
X59274834Y-110233993D01*
X59287060Y-110232449D01*
X59287065Y-110232448D01*
X59294424Y-110231518D01*
X59294932Y-110231454D01*
X59294942Y-110231536D01*
X59362079Y-110233838D01*
X59420455Y-110274246D01*
X59447718Y-110339800D01*
X59435212Y-110409686D01*
X59411554Y-110442542D01*
X58620598Y-111233498D01*
X58558286Y-111267524D01*
X58487471Y-111262459D01*
X58430635Y-111219912D01*
X58405824Y-111153392D01*
X58417307Y-111091156D01*
X58420056Y-111085260D01*
X58470315Y-110933734D01*
X58473181Y-110920368D01*
X58482672Y-110827730D01*
X58483000Y-110821315D01*
X58483000Y-110747115D01*
X58478525Y-110731876D01*
X58477135Y-110730671D01*
X58469452Y-110729000D01*
X57772115Y-110729000D01*
X57756876Y-110733475D01*
X57755671Y-110734865D01*
X57754000Y-110742548D01*
X57754000Y-111502385D01*
X57758475Y-111517624D01*
X57759865Y-111518829D01*
X57767548Y-111520500D01*
X57783766Y-111520500D01*
X57790282Y-111520163D01*
X57884132Y-111510425D01*
X57897528Y-111507532D01*
X58048957Y-111457011D01*
X58053451Y-111454906D01*
X58123624Y-111444123D01*
X58188486Y-111472991D01*
X58227445Y-111532343D01*
X58228132Y-111603336D01*
X58195993Y-111658103D01*
X52694182Y-117159913D01*
X47404500Y-122449595D01*
X47342188Y-122483621D01*
X47315405Y-122486500D01*
X41026805Y-122486500D01*
X40958684Y-122466498D01*
X40921013Y-122428940D01*
X40832822Y-122292617D01*
X40832820Y-122292614D01*
X40830014Y-122288277D01*
X40679670Y-122123051D01*
X40675619Y-122119852D01*
X40675615Y-122119848D01*
X40508414Y-121987800D01*
X40508410Y-121987798D01*
X40504359Y-121984598D01*
X40463053Y-121961796D01*
X40413084Y-121911364D01*
X40398312Y-121841921D01*
X40423428Y-121775516D01*
X40450780Y-121748909D01*
X40494603Y-121717650D01*
X40629860Y-121621173D01*
X40688766Y-121562473D01*
X40784435Y-121467137D01*
X40788096Y-121463489D01*
X40918453Y-121282077D01*
X40922611Y-121273665D01*
X41015136Y-121086453D01*
X41015137Y-121086451D01*
X41017430Y-121081811D01*
X41082370Y-120868069D01*
X41111529Y-120646590D01*
X41113156Y-120580000D01*
X41094852Y-120357361D01*
X41040431Y-120140702D01*
X40951354Y-119935840D01*
X40830014Y-119748277D01*
X40679670Y-119583051D01*
X40675619Y-119579852D01*
X40675615Y-119579848D01*
X40508414Y-119447800D01*
X40508410Y-119447798D01*
X40504359Y-119444598D01*
X40463053Y-119421796D01*
X40413084Y-119371364D01*
X40398312Y-119301921D01*
X40423428Y-119235516D01*
X40450780Y-119208909D01*
X40494603Y-119177650D01*
X40629860Y-119081173D01*
X40688766Y-119022473D01*
X40784435Y-118927137D01*
X40788096Y-118923489D01*
X40918453Y-118742077D01*
X40922611Y-118733665D01*
X41015136Y-118546453D01*
X41015137Y-118546451D01*
X41017430Y-118541811D01*
X41082370Y-118328069D01*
X41111529Y-118106590D01*
X41113156Y-118040000D01*
X41094852Y-117817361D01*
X41040431Y-117600702D01*
X40951354Y-117395840D01*
X40830014Y-117208277D01*
X40679670Y-117043051D01*
X40675619Y-117039852D01*
X40675615Y-117039848D01*
X40508414Y-116907800D01*
X40508410Y-116907798D01*
X40504359Y-116904598D01*
X40463053Y-116881796D01*
X40413084Y-116831364D01*
X40398312Y-116761921D01*
X40423428Y-116695516D01*
X40450780Y-116668909D01*
X40494603Y-116637650D01*
X40629860Y-116541173D01*
X40688766Y-116482473D01*
X40719129Y-116452215D01*
X40788096Y-116383489D01*
X40918453Y-116202077D01*
X41017430Y-116001811D01*
X41082370Y-115788069D01*
X41111529Y-115566590D01*
X41112678Y-115519557D01*
X41113074Y-115503365D01*
X41113074Y-115503361D01*
X41113156Y-115500000D01*
X41094852Y-115277361D01*
X41040431Y-115060702D01*
X40951354Y-114855840D01*
X40830014Y-114668277D01*
X40679670Y-114503051D01*
X40675619Y-114499852D01*
X40675615Y-114499848D01*
X40508414Y-114367800D01*
X40508410Y-114367798D01*
X40504359Y-114364598D01*
X40463053Y-114341796D01*
X40413084Y-114291364D01*
X40398312Y-114221921D01*
X40423428Y-114155516D01*
X40450780Y-114128909D01*
X40494603Y-114097650D01*
X40629860Y-114001173D01*
X40688766Y-113942473D01*
X40784435Y-113847137D01*
X40788096Y-113843489D01*
X40918453Y-113662077D01*
X40940979Y-113616500D01*
X41015136Y-113466453D01*
X41015137Y-113466451D01*
X41017430Y-113461811D01*
X41055086Y-113337872D01*
X41080865Y-113253023D01*
X41080865Y-113253021D01*
X41082370Y-113248069D01*
X41111529Y-113026590D01*
X41113156Y-112960000D01*
X41094852Y-112737361D01*
X41040431Y-112520702D01*
X40951354Y-112315840D01*
X40830014Y-112128277D01*
X40679670Y-111963051D01*
X40675619Y-111959852D01*
X40675615Y-111959848D01*
X40508414Y-111827800D01*
X40508410Y-111827798D01*
X40504359Y-111824598D01*
X40463053Y-111801796D01*
X40413084Y-111751364D01*
X40398312Y-111681921D01*
X40423428Y-111615516D01*
X40450780Y-111588909D01*
X40505536Y-111549852D01*
X40629860Y-111461173D01*
X40688766Y-111402473D01*
X40744936Y-111346498D01*
X40788096Y-111303489D01*
X40847594Y-111220689D01*
X40915435Y-111126277D01*
X40918453Y-111122077D01*
X40929555Y-111099615D01*
X41015136Y-110926453D01*
X41015137Y-110926451D01*
X41017430Y-110921811D01*
X41047978Y-110821266D01*
X56517000Y-110821266D01*
X56517337Y-110827782D01*
X56527075Y-110921632D01*
X56529968Y-110935028D01*
X56580488Y-111086453D01*
X56586653Y-111099615D01*
X56670426Y-111234992D01*
X56679460Y-111246390D01*
X56792129Y-111358863D01*
X56803540Y-111367875D01*
X56939063Y-111451412D01*
X56952241Y-111457556D01*
X57103766Y-111507815D01*
X57117132Y-111510681D01*
X57209770Y-111520172D01*
X57216185Y-111520500D01*
X57227885Y-111520500D01*
X57243124Y-111516025D01*
X57244329Y-111514635D01*
X57246000Y-111506952D01*
X57246000Y-110747115D01*
X57241525Y-110731876D01*
X57240135Y-110730671D01*
X57232452Y-110729000D01*
X56535115Y-110729000D01*
X56519876Y-110733475D01*
X56518671Y-110734865D01*
X56517000Y-110742548D01*
X56517000Y-110821266D01*
X41047978Y-110821266D01*
X41070507Y-110747115D01*
X41080865Y-110713023D01*
X41080865Y-110713021D01*
X41082370Y-110708069D01*
X41111529Y-110486590D01*
X41111915Y-110470809D01*
X41113074Y-110423365D01*
X41113074Y-110423361D01*
X41113156Y-110420000D01*
X41094852Y-110197361D01*
X41040431Y-109980702D01*
X40951354Y-109775840D01*
X40830014Y-109588277D01*
X40679670Y-109423051D01*
X40675619Y-109419852D01*
X40675615Y-109419848D01*
X40508414Y-109287800D01*
X40508410Y-109287798D01*
X40504359Y-109284598D01*
X40462569Y-109261529D01*
X40412598Y-109211097D01*
X40397826Y-109141654D01*
X40422942Y-109075248D01*
X40450294Y-109048641D01*
X40625328Y-108923792D01*
X40633200Y-108917139D01*
X40784052Y-108766812D01*
X40790730Y-108758965D01*
X40915003Y-108586020D01*
X40920313Y-108577183D01*
X41014670Y-108386267D01*
X41018469Y-108376672D01*
X41080377Y-108172910D01*
X41082555Y-108162837D01*
X41083986Y-108151962D01*
X41081775Y-108137778D01*
X41068617Y-108134000D01*
X39622000Y-108134000D01*
X39553879Y-108113998D01*
X39507386Y-108060342D01*
X39496000Y-108008000D01*
X39496000Y-107752000D01*
X39516002Y-107683879D01*
X39569658Y-107637386D01*
X39622000Y-107626000D01*
X41068344Y-107626000D01*
X41081875Y-107622027D01*
X41083180Y-107612947D01*
X41041214Y-107445875D01*
X41037894Y-107436124D01*
X40952972Y-107240814D01*
X40948105Y-107231739D01*
X40832426Y-107052926D01*
X40826136Y-107044757D01*
X40682806Y-106887240D01*
X40675273Y-106880215D01*
X40508139Y-106748222D01*
X40499556Y-106742520D01*
X40462602Y-106722120D01*
X40412631Y-106671687D01*
X40397859Y-106602245D01*
X40422975Y-106535839D01*
X40450327Y-106509232D01*
X40479314Y-106488556D01*
X40629860Y-106381173D01*
X40642866Y-106368213D01*
X40784435Y-106227137D01*
X40788096Y-106223489D01*
X40847594Y-106140689D01*
X40915435Y-106046277D01*
X40918453Y-106042077D01*
X40935298Y-106007995D01*
X41015136Y-105846453D01*
X41015137Y-105846451D01*
X41017430Y-105841811D01*
X41082370Y-105628069D01*
X41111529Y-105406590D01*
X41113156Y-105340000D01*
X41094852Y-105117361D01*
X41040431Y-104900702D01*
X40951354Y-104695840D01*
X40830014Y-104508277D01*
X40679670Y-104343051D01*
X40675619Y-104339852D01*
X40675615Y-104339848D01*
X40508414Y-104207800D01*
X40508410Y-104207798D01*
X40504359Y-104204598D01*
X40463053Y-104181796D01*
X40413084Y-104131364D01*
X40398312Y-104061921D01*
X40423428Y-103995516D01*
X40450780Y-103968909D01*
X40515107Y-103923025D01*
X40629860Y-103841173D01*
X40688766Y-103782473D01*
X40738962Y-103732452D01*
X40788096Y-103683489D01*
X40918453Y-103502077D01*
X40920746Y-103497437D01*
X40922446Y-103494608D01*
X40974674Y-103446518D01*
X41030451Y-103433500D01*
X49902130Y-103433500D01*
X49970251Y-103453502D01*
G37*
%TD.AperFunction*%
%TA.AperFunction,Conductor*%
G36*
X71753527Y-116653502D02*
G01*
X71774501Y-116670405D01*
X73536343Y-118432247D01*
X73543887Y-118440537D01*
X73548000Y-118447018D01*
X73553777Y-118452443D01*
X73597667Y-118493658D01*
X73600509Y-118496413D01*
X73620231Y-118516135D01*
X73623355Y-118518558D01*
X73623359Y-118518562D01*
X73623424Y-118518612D01*
X73632445Y-118526317D01*
X73664679Y-118556586D01*
X73671627Y-118560405D01*
X73671629Y-118560407D01*
X73682432Y-118566346D01*
X73698959Y-118577202D01*
X73708698Y-118584757D01*
X73708700Y-118584758D01*
X73714960Y-118589614D01*
X73755540Y-118607174D01*
X73766188Y-118612391D01*
X73804940Y-118633695D01*
X73812616Y-118635666D01*
X73812619Y-118635667D01*
X73824562Y-118638733D01*
X73843267Y-118645137D01*
X73861855Y-118653181D01*
X73869678Y-118654420D01*
X73869688Y-118654423D01*
X73905524Y-118660099D01*
X73917144Y-118662505D01*
X73952289Y-118671528D01*
X73959970Y-118673500D01*
X73980224Y-118673500D01*
X73999934Y-118675051D01*
X74019943Y-118678220D01*
X74027835Y-118677474D01*
X74063961Y-118674059D01*
X74075819Y-118673500D01*
X85974274Y-118673500D01*
X86042395Y-118693502D01*
X86081707Y-118733665D01*
X86149987Y-118845088D01*
X86296250Y-119013938D01*
X86468126Y-119156632D01*
X86538595Y-119197811D01*
X86541445Y-119199476D01*
X86590169Y-119251114D01*
X86603240Y-119320897D01*
X86576509Y-119386669D01*
X86536055Y-119420027D01*
X86523607Y-119426507D01*
X86519474Y-119429610D01*
X86519471Y-119429612D01*
X86349100Y-119557530D01*
X86344965Y-119560635D01*
X86190629Y-119722138D01*
X86187715Y-119726410D01*
X86187714Y-119726411D01*
X86075095Y-119891504D01*
X86020184Y-119936507D01*
X85971007Y-119946500D01*
X65144595Y-119946500D01*
X65076474Y-119926498D01*
X65055500Y-119909595D01*
X61994500Y-116848595D01*
X61960474Y-116786283D01*
X61965539Y-116715468D01*
X62008086Y-116658632D01*
X62074606Y-116633821D01*
X62083595Y-116633500D01*
X71685406Y-116633500D01*
X71753527Y-116653502D01*
G37*
%TD.AperFunction*%
%TA.AperFunction,Conductor*%
G36*
X88909532Y-109760538D02*
G01*
X88966368Y-109803085D01*
X88991179Y-109869605D01*
X88991500Y-109878594D01*
X88991500Y-116920395D01*
X88971498Y-116988516D01*
X88917842Y-117035009D01*
X88847568Y-117045113D01*
X88782988Y-117015619D01*
X88776405Y-117009490D01*
X88306216Y-116539301D01*
X88272190Y-116476989D01*
X88277255Y-116406174D01*
X88292986Y-116376684D01*
X88418453Y-116202077D01*
X88517430Y-116001811D01*
X88582370Y-115788069D01*
X88611529Y-115566590D01*
X88612678Y-115519557D01*
X88613074Y-115503365D01*
X88613074Y-115503361D01*
X88613156Y-115500000D01*
X88594852Y-115277361D01*
X88540431Y-115060702D01*
X88451354Y-114855840D01*
X88330014Y-114668277D01*
X88179670Y-114503051D01*
X88175619Y-114499852D01*
X88175615Y-114499848D01*
X88008414Y-114367800D01*
X88008410Y-114367798D01*
X88004359Y-114364598D01*
X87962569Y-114341529D01*
X87912598Y-114291097D01*
X87897826Y-114221654D01*
X87922942Y-114155248D01*
X87950294Y-114128641D01*
X88125328Y-114003792D01*
X88133200Y-113997139D01*
X88284052Y-113846812D01*
X88290730Y-113838965D01*
X88415003Y-113666020D01*
X88420313Y-113657183D01*
X88514670Y-113466267D01*
X88518469Y-113456672D01*
X88580377Y-113252910D01*
X88582555Y-113242837D01*
X88583986Y-113231962D01*
X88581775Y-113217778D01*
X88568617Y-113214000D01*
X85933225Y-113214000D01*
X85919694Y-113217973D01*
X85918257Y-113227966D01*
X85948565Y-113362446D01*
X85951645Y-113372275D01*
X86031770Y-113569603D01*
X86036413Y-113578794D01*
X86147694Y-113760388D01*
X86153777Y-113768699D01*
X86293213Y-113929667D01*
X86300580Y-113936883D01*
X86464434Y-114072916D01*
X86472881Y-114078831D01*
X86541969Y-114119203D01*
X86590693Y-114170842D01*
X86603764Y-114240625D01*
X86577033Y-114306396D01*
X86536584Y-114339752D01*
X86523607Y-114346507D01*
X86519474Y-114349610D01*
X86519471Y-114349612D01*
X86349100Y-114477530D01*
X86344965Y-114480635D01*
X86190629Y-114642138D01*
X86064743Y-114826680D01*
X86038219Y-114883821D01*
X85985073Y-114998316D01*
X85970688Y-115029305D01*
X85910989Y-115244570D01*
X85887251Y-115466695D01*
X85887548Y-115471848D01*
X85887548Y-115471851D01*
X85893011Y-115566590D01*
X85900110Y-115689715D01*
X85901247Y-115694761D01*
X85901248Y-115694767D01*
X85921119Y-115782939D01*
X85949222Y-115907639D01*
X85951166Y-115912426D01*
X85951167Y-115912430D01*
X85963619Y-115943097D01*
X85970714Y-116013739D01*
X85938492Y-116077002D01*
X85877182Y-116112801D01*
X85846876Y-116116500D01*
X74564595Y-116116500D01*
X74496474Y-116096498D01*
X74475500Y-116079595D01*
X73494500Y-115098595D01*
X73460474Y-115036283D01*
X73465539Y-114965468D01*
X73508086Y-114908632D01*
X73574606Y-114883821D01*
X73583595Y-114883500D01*
X80801233Y-114883500D01*
X80812416Y-114884027D01*
X80819909Y-114885702D01*
X80827835Y-114885453D01*
X80827836Y-114885453D01*
X80887986Y-114883562D01*
X80891945Y-114883500D01*
X80919856Y-114883500D01*
X80923791Y-114883003D01*
X80923856Y-114882995D01*
X80935693Y-114882062D01*
X80967951Y-114881048D01*
X80971970Y-114880922D01*
X80979889Y-114880673D01*
X80999343Y-114875021D01*
X81018700Y-114871013D01*
X81030930Y-114869468D01*
X81030931Y-114869468D01*
X81038797Y-114868474D01*
X81046168Y-114865555D01*
X81046170Y-114865555D01*
X81079912Y-114852196D01*
X81091142Y-114848351D01*
X81125983Y-114838229D01*
X81125984Y-114838229D01*
X81133593Y-114836018D01*
X81140412Y-114831985D01*
X81140417Y-114831983D01*
X81151028Y-114825707D01*
X81168776Y-114817012D01*
X81187617Y-114809552D01*
X81223387Y-114783564D01*
X81233307Y-114777048D01*
X81264535Y-114758580D01*
X81264538Y-114758578D01*
X81271362Y-114754542D01*
X81285683Y-114740221D01*
X81300717Y-114727380D01*
X81310694Y-114720131D01*
X81317107Y-114715472D01*
X81345298Y-114681395D01*
X81353288Y-114672616D01*
X85675019Y-110350885D01*
X85737331Y-110316859D01*
X85808146Y-110321924D01*
X85864982Y-110364471D01*
X85889905Y-110432727D01*
X85892101Y-110470809D01*
X85900110Y-110609715D01*
X85901247Y-110614761D01*
X85901248Y-110614767D01*
X85921119Y-110702939D01*
X85949222Y-110827639D01*
X86033266Y-111034616D01*
X86068965Y-111092872D01*
X86138411Y-111206197D01*
X86149987Y-111225088D01*
X86296250Y-111393938D01*
X86468126Y-111536632D01*
X86528824Y-111572101D01*
X86541955Y-111579774D01*
X86590679Y-111631412D01*
X86603750Y-111701195D01*
X86577019Y-111766967D01*
X86536562Y-111800327D01*
X86528457Y-111804546D01*
X86519738Y-111810036D01*
X86349433Y-111937905D01*
X86341726Y-111944748D01*
X86194590Y-112098717D01*
X86188104Y-112106727D01*
X86068098Y-112282649D01*
X86063000Y-112291623D01*
X85973338Y-112484783D01*
X85969775Y-112494470D01*
X85914389Y-112694183D01*
X85915912Y-112702607D01*
X85928292Y-112706000D01*
X88568344Y-112706000D01*
X88581875Y-112702027D01*
X88583180Y-112692947D01*
X88541214Y-112525875D01*
X88537894Y-112516124D01*
X88452972Y-112320814D01*
X88448105Y-112311739D01*
X88332426Y-112132926D01*
X88326136Y-112124757D01*
X88182806Y-111967240D01*
X88175273Y-111960215D01*
X88008139Y-111828222D01*
X87999556Y-111822520D01*
X87962602Y-111802120D01*
X87912631Y-111751687D01*
X87897859Y-111682245D01*
X87922975Y-111615839D01*
X87950327Y-111589232D01*
X88005536Y-111549852D01*
X88129860Y-111461173D01*
X88188766Y-111402473D01*
X88244936Y-111346498D01*
X88288096Y-111303489D01*
X88347594Y-111220689D01*
X88415435Y-111126277D01*
X88418453Y-111122077D01*
X88429555Y-111099615D01*
X88515136Y-110926453D01*
X88515137Y-110926451D01*
X88517430Y-110921811D01*
X88570507Y-110747115D01*
X88580865Y-110713023D01*
X88580865Y-110713021D01*
X88582370Y-110708069D01*
X88611529Y-110486590D01*
X88611915Y-110470809D01*
X88613074Y-110423365D01*
X88613074Y-110423361D01*
X88613156Y-110420000D01*
X88594852Y-110197361D01*
X88566821Y-110085765D01*
X88569625Y-110014823D01*
X88599930Y-109965974D01*
X88776405Y-109789499D01*
X88838717Y-109755473D01*
X88909532Y-109760538D01*
G37*
%TD.AperFunction*%
%TA.AperFunction,Conductor*%
G36*
X85816354Y-97458330D02*
G01*
X85873190Y-97500877D01*
X85898001Y-97567397D01*
X85897609Y-97589771D01*
X85892714Y-97635577D01*
X85887917Y-97680467D01*
X85887251Y-97686695D01*
X85887548Y-97691847D01*
X85887548Y-97691851D01*
X85897655Y-97867132D01*
X85900110Y-97909715D01*
X85901247Y-97914761D01*
X85901248Y-97914767D01*
X85918234Y-97990135D01*
X85949222Y-98127639D01*
X86033266Y-98334616D01*
X86073931Y-98400976D01*
X86146435Y-98519291D01*
X86149987Y-98525088D01*
X86296250Y-98693938D01*
X86468126Y-98836632D01*
X86534062Y-98875162D01*
X86541445Y-98879476D01*
X86590169Y-98931114D01*
X86603240Y-99000897D01*
X86576509Y-99066669D01*
X86536055Y-99100027D01*
X86523607Y-99106507D01*
X86519474Y-99109610D01*
X86519471Y-99109612D01*
X86350207Y-99236699D01*
X86344965Y-99240635D01*
X86341393Y-99244373D01*
X86213272Y-99378444D01*
X86190629Y-99402138D01*
X86187715Y-99406410D01*
X86187714Y-99406411D01*
X86148623Y-99463717D01*
X86064743Y-99586680D01*
X86033234Y-99654560D01*
X85982818Y-99763174D01*
X85970688Y-99789305D01*
X85910989Y-100004570D01*
X85887251Y-100226695D01*
X85887548Y-100231848D01*
X85887548Y-100231851D01*
X85893011Y-100326590D01*
X85900110Y-100449715D01*
X85901247Y-100454761D01*
X85901248Y-100454767D01*
X85919377Y-100535207D01*
X85949222Y-100667639D01*
X86033266Y-100874616D01*
X86073963Y-100941027D01*
X86118734Y-101014087D01*
X86149987Y-101065088D01*
X86296250Y-101233938D01*
X86468126Y-101376632D01*
X86529428Y-101412454D01*
X86541445Y-101419476D01*
X86590169Y-101471114D01*
X86603240Y-101540897D01*
X86576509Y-101606669D01*
X86536055Y-101640027D01*
X86523607Y-101646507D01*
X86519474Y-101649610D01*
X86519471Y-101649612D01*
X86349742Y-101777048D01*
X86344965Y-101780635D01*
X86341393Y-101784373D01*
X86244561Y-101885702D01*
X86190629Y-101942138D01*
X86064743Y-102126680D01*
X86026011Y-102210121D01*
X85989471Y-102288841D01*
X85970688Y-102329305D01*
X85910989Y-102544570D01*
X85887251Y-102766695D01*
X85887548Y-102771848D01*
X85887548Y-102771851D01*
X85896416Y-102925654D01*
X85900110Y-102989715D01*
X85901247Y-102994761D01*
X85901248Y-102994767D01*
X85933453Y-103137668D01*
X85928917Y-103208520D01*
X85899631Y-103254464D01*
X80607747Y-108546348D01*
X80599461Y-108553888D01*
X80592982Y-108558000D01*
X80587557Y-108563777D01*
X80546357Y-108607651D01*
X80543602Y-108610493D01*
X80523865Y-108630230D01*
X80521385Y-108633427D01*
X80513682Y-108642447D01*
X80483414Y-108674679D01*
X80479595Y-108681625D01*
X80479593Y-108681628D01*
X80473652Y-108692434D01*
X80462801Y-108708953D01*
X80450386Y-108724959D01*
X80447241Y-108732228D01*
X80447238Y-108732232D01*
X80432826Y-108765537D01*
X80427609Y-108776187D01*
X80406305Y-108814940D01*
X80404334Y-108822615D01*
X80404334Y-108822616D01*
X80401267Y-108834562D01*
X80394863Y-108853266D01*
X80386819Y-108871855D01*
X80385580Y-108879678D01*
X80385577Y-108879688D01*
X80379901Y-108915524D01*
X80377495Y-108927144D01*
X80371358Y-108951047D01*
X80366500Y-108969970D01*
X80366500Y-108990224D01*
X80364949Y-109009934D01*
X80361780Y-109029943D01*
X80362526Y-109037835D01*
X80365941Y-109073961D01*
X80366500Y-109085819D01*
X80366500Y-111185405D01*
X80346498Y-111253526D01*
X80329595Y-111274500D01*
X79274500Y-112329595D01*
X79212188Y-112363621D01*
X79185405Y-112366500D01*
X64009594Y-112366500D01*
X63941473Y-112346498D01*
X63894980Y-112292842D01*
X63884876Y-112222568D01*
X63889762Y-112201562D01*
X63891502Y-112196208D01*
X63891503Y-112196203D01*
X63893542Y-112189928D01*
X63913504Y-112000000D01*
X63910022Y-111966870D01*
X63894232Y-111816635D01*
X63894232Y-111816633D01*
X63893542Y-111810072D01*
X63834527Y-111628444D01*
X63827250Y-111615839D01*
X63772011Y-111520163D01*
X63739040Y-111463056D01*
X63734064Y-111457529D01*
X63615675Y-111326045D01*
X63615674Y-111326044D01*
X63611253Y-111321134D01*
X63473003Y-111220689D01*
X63462094Y-111212763D01*
X63462093Y-111212762D01*
X63456752Y-111208882D01*
X63450724Y-111206198D01*
X63450722Y-111206197D01*
X63288319Y-111133891D01*
X63288318Y-111133891D01*
X63282288Y-111131206D01*
X63188888Y-111111353D01*
X63101944Y-111092872D01*
X63101939Y-111092872D01*
X63095487Y-111091500D01*
X62904513Y-111091500D01*
X62898061Y-111092872D01*
X62898056Y-111092872D01*
X62811112Y-111111353D01*
X62717712Y-111131206D01*
X62711682Y-111133891D01*
X62711681Y-111133891D01*
X62549278Y-111206197D01*
X62549276Y-111206198D01*
X62543248Y-111208882D01*
X62537907Y-111212762D01*
X62537906Y-111212763D01*
X62452933Y-111274500D01*
X62388747Y-111321134D01*
X62384332Y-111326037D01*
X62379420Y-111330460D01*
X62378295Y-111329211D01*
X62324986Y-111362051D01*
X62291800Y-111366500D01*
X62081273Y-111366500D01*
X62013152Y-111346498D01*
X61966659Y-111292842D01*
X61956555Y-111222568D01*
X61989422Y-111154248D01*
X62008538Y-111133891D01*
X62016586Y-111125321D01*
X62020405Y-111118375D01*
X62020407Y-111118372D01*
X62026348Y-111107566D01*
X62037199Y-111091047D01*
X62040762Y-111086453D01*
X62049614Y-111075041D01*
X62052759Y-111067772D01*
X62052762Y-111067768D01*
X62067174Y-111034463D01*
X62072391Y-111023813D01*
X62093695Y-110985060D01*
X62098733Y-110965437D01*
X62105137Y-110946734D01*
X62110033Y-110935420D01*
X62110033Y-110935419D01*
X62113181Y-110928145D01*
X62114420Y-110920322D01*
X62114423Y-110920312D01*
X62120099Y-110884476D01*
X62122505Y-110872856D01*
X62131528Y-110837711D01*
X62131528Y-110837710D01*
X62133500Y-110830030D01*
X62133500Y-110809776D01*
X62135051Y-110790065D01*
X62136980Y-110777886D01*
X62138220Y-110770057D01*
X62134059Y-110726038D01*
X62133500Y-110714181D01*
X62133500Y-106452524D01*
X62153502Y-106384403D01*
X62165858Y-106368221D01*
X62239040Y-106286944D01*
X62334527Y-106121556D01*
X62393542Y-105939928D01*
X62401019Y-105868794D01*
X62412814Y-105756565D01*
X62413504Y-105750000D01*
X62406028Y-105678866D01*
X62394232Y-105566635D01*
X62394232Y-105566633D01*
X62393542Y-105560072D01*
X62334527Y-105378444D01*
X62331067Y-105372450D01*
X62272428Y-105270886D01*
X62239040Y-105213056D01*
X62218216Y-105189928D01*
X62115675Y-105076045D01*
X62115674Y-105076044D01*
X62111253Y-105071134D01*
X61956752Y-104958882D01*
X61958232Y-104956844D01*
X61917065Y-104913662D01*
X61903754Y-104842765D01*
X61904489Y-104835779D01*
X61909323Y-104789782D01*
X61911210Y-104771829D01*
X61938224Y-104706172D01*
X61996445Y-104665543D01*
X62036520Y-104659000D01*
X71041800Y-104659000D01*
X71109921Y-104679002D01*
X71129147Y-104695343D01*
X71129420Y-104695040D01*
X71134332Y-104699463D01*
X71138747Y-104704366D01*
X71144086Y-104708245D01*
X71256312Y-104789782D01*
X71293248Y-104816618D01*
X71299276Y-104819302D01*
X71299278Y-104819303D01*
X71461681Y-104891609D01*
X71467712Y-104894294D01*
X71557349Y-104913347D01*
X71648056Y-104932628D01*
X71648061Y-104932628D01*
X71654513Y-104934000D01*
X71845487Y-104934000D01*
X71851939Y-104932628D01*
X71851944Y-104932628D01*
X71942651Y-104913347D01*
X72032288Y-104894294D01*
X72163716Y-104835779D01*
X72234082Y-104826345D01*
X72298379Y-104856451D01*
X72336193Y-104916540D01*
X72340274Y-104964056D01*
X72336496Y-105000000D01*
X72337186Y-105006565D01*
X72345385Y-105084570D01*
X72356458Y-105189928D01*
X72415473Y-105371556D01*
X72510960Y-105536944D01*
X72515378Y-105541851D01*
X72515379Y-105541852D01*
X72537694Y-105566635D01*
X72638747Y-105678866D01*
X72793248Y-105791118D01*
X72799274Y-105793801D01*
X72799281Y-105793805D01*
X72857747Y-105819835D01*
X72911843Y-105865815D01*
X72932493Y-105933742D01*
X72916914Y-105995642D01*
X72906305Y-106014940D01*
X72904334Y-106022615D01*
X72904334Y-106022616D01*
X72901267Y-106034562D01*
X72894863Y-106053267D01*
X72889166Y-106066432D01*
X72839832Y-106123535D01*
X72781890Y-106159391D01*
X72758469Y-106173884D01*
X72753298Y-106179064D01*
X72753293Y-106179068D01*
X72750049Y-106182318D01*
X72687766Y-106216395D01*
X72616946Y-106211389D01*
X72609632Y-106208404D01*
X72499549Y-106159392D01*
X72499541Y-106159389D01*
X72493514Y-106156706D01*
X72400114Y-106136853D01*
X72313170Y-106118372D01*
X72313165Y-106118372D01*
X72306713Y-106117000D01*
X72115739Y-106117000D01*
X72109287Y-106118372D01*
X72109282Y-106118372D01*
X72022338Y-106136853D01*
X71928938Y-106156706D01*
X71922908Y-106159391D01*
X71922907Y-106159391D01*
X71760504Y-106231697D01*
X71760502Y-106231698D01*
X71754474Y-106234382D01*
X71599973Y-106346634D01*
X71595552Y-106351544D01*
X71595551Y-106351545D01*
X71566175Y-106384171D01*
X71472186Y-106488556D01*
X71376699Y-106653944D01*
X71317684Y-106835572D01*
X71316994Y-106842133D01*
X71316994Y-106842135D01*
X71311678Y-106892717D01*
X71297722Y-107025500D01*
X71298412Y-107032065D01*
X71316765Y-107206680D01*
X71317684Y-107215428D01*
X71376699Y-107397056D01*
X71472186Y-107562444D01*
X71476604Y-107567351D01*
X71476605Y-107567352D01*
X71587038Y-107690000D01*
X71599973Y-107704366D01*
X71673960Y-107758121D01*
X71707485Y-107782478D01*
X71754474Y-107816618D01*
X71760502Y-107819302D01*
X71760504Y-107819303D01*
X71922907Y-107891609D01*
X71928938Y-107894294D01*
X72018575Y-107913347D01*
X72109282Y-107932628D01*
X72109287Y-107932628D01*
X72115739Y-107934000D01*
X72306713Y-107934000D01*
X72313165Y-107932628D01*
X72313170Y-107932628D01*
X72403877Y-107913347D01*
X72493514Y-107894294D01*
X72569258Y-107860571D01*
X72650650Y-107824333D01*
X72721017Y-107814899D01*
X72768015Y-107832180D01*
X72899692Y-107913347D01*
X72907580Y-107918209D01*
X73072691Y-107972974D01*
X73079527Y-107973674D01*
X73079530Y-107973675D01*
X73131026Y-107978951D01*
X73175428Y-107983500D01*
X73602520Y-107983500D01*
X73670641Y-108003502D01*
X73717134Y-108057158D01*
X73728520Y-108109500D01*
X73728520Y-108323385D01*
X73708518Y-108391506D01*
X73691615Y-108412480D01*
X73624500Y-108479595D01*
X73562188Y-108513621D01*
X73535405Y-108516500D01*
X73150428Y-108516500D01*
X73147182Y-108516837D01*
X73147178Y-108516837D01*
X73053265Y-108526581D01*
X73053261Y-108526582D01*
X73046407Y-108527293D01*
X73039871Y-108529474D01*
X73039869Y-108529474D01*
X72965346Y-108554337D01*
X72881393Y-108582346D01*
X72835908Y-108610493D01*
X72803903Y-108630298D01*
X72735451Y-108649135D01*
X72667682Y-108627973D01*
X72643965Y-108607464D01*
X72615668Y-108576037D01*
X72615666Y-108576036D01*
X72611253Y-108571134D01*
X72536056Y-108516500D01*
X72462094Y-108462763D01*
X72462093Y-108462762D01*
X72456752Y-108458882D01*
X72450724Y-108456198D01*
X72450722Y-108456197D01*
X72288319Y-108383891D01*
X72288318Y-108383891D01*
X72282288Y-108381206D01*
X72188887Y-108361353D01*
X72101944Y-108342872D01*
X72101939Y-108342872D01*
X72095487Y-108341500D01*
X71904513Y-108341500D01*
X71898061Y-108342872D01*
X71898056Y-108342872D01*
X71811113Y-108361353D01*
X71717712Y-108381206D01*
X71711682Y-108383891D01*
X71711681Y-108383891D01*
X71549278Y-108456197D01*
X71549276Y-108456198D01*
X71543248Y-108458882D01*
X71388747Y-108571134D01*
X71384326Y-108576044D01*
X71384325Y-108576045D01*
X71296231Y-108673884D01*
X71260960Y-108713056D01*
X71224505Y-108776198D01*
X71169236Y-108871927D01*
X71165473Y-108878444D01*
X71106458Y-109060072D01*
X71105768Y-109066633D01*
X71105768Y-109066635D01*
X71090730Y-109209718D01*
X71086496Y-109250000D01*
X71087186Y-109256565D01*
X71105086Y-109426870D01*
X71106458Y-109439928D01*
X71165473Y-109621556D01*
X71260960Y-109786944D01*
X71388747Y-109928866D01*
X71439640Y-109965842D01*
X71525405Y-110028154D01*
X71543248Y-110041118D01*
X71549276Y-110043802D01*
X71549278Y-110043803D01*
X71711681Y-110116109D01*
X71717712Y-110118794D01*
X71789528Y-110134059D01*
X71898056Y-110157128D01*
X71898061Y-110157128D01*
X71904513Y-110158500D01*
X72095487Y-110158500D01*
X72101940Y-110157128D01*
X72101944Y-110157128D01*
X72157370Y-110145347D01*
X72185093Y-110139454D01*
X72215246Y-110136763D01*
X72222112Y-110136979D01*
X72229943Y-110138219D01*
X72237835Y-110137473D01*
X72273954Y-110134059D01*
X72285811Y-110133500D01*
X72497536Y-110133500D01*
X72565657Y-110153502D01*
X72604679Y-110193196D01*
X72611384Y-110204031D01*
X72616566Y-110209204D01*
X72729316Y-110321758D01*
X72729321Y-110321762D01*
X72734497Y-110326929D01*
X72740727Y-110330769D01*
X72740728Y-110330770D01*
X72773361Y-110350885D01*
X72882580Y-110418209D01*
X73047691Y-110472974D01*
X73054527Y-110473674D01*
X73054530Y-110473675D01*
X73101870Y-110478525D01*
X73150428Y-110483500D01*
X73849572Y-110483500D01*
X73852818Y-110483163D01*
X73852822Y-110483163D01*
X73946735Y-110473419D01*
X73946739Y-110473418D01*
X73953593Y-110472707D01*
X73960129Y-110470526D01*
X73960131Y-110470526D01*
X74101489Y-110423365D01*
X74118607Y-110417654D01*
X74266531Y-110326116D01*
X74273774Y-110318861D01*
X74275538Y-110317895D01*
X74277441Y-110316387D01*
X74277699Y-110316713D01*
X74336054Y-110284781D01*
X74406875Y-110289782D01*
X74451970Y-110318708D01*
X74454631Y-110321364D01*
X74466040Y-110330375D01*
X74601563Y-110413912D01*
X74614741Y-110420056D01*
X74766266Y-110470315D01*
X74779632Y-110473181D01*
X74872270Y-110482672D01*
X74878685Y-110483000D01*
X74952885Y-110483000D01*
X74968124Y-110478525D01*
X74969329Y-110477135D01*
X74971000Y-110469452D01*
X74971000Y-110464885D01*
X75479000Y-110464885D01*
X75483475Y-110480124D01*
X75484865Y-110481329D01*
X75492548Y-110483000D01*
X75571266Y-110483000D01*
X75577782Y-110482663D01*
X75671632Y-110472925D01*
X75685028Y-110470032D01*
X75836453Y-110419512D01*
X75849615Y-110413347D01*
X75984992Y-110329574D01*
X75996390Y-110320540D01*
X76108863Y-110207871D01*
X76117875Y-110196460D01*
X76201412Y-110060937D01*
X76207556Y-110047759D01*
X76257815Y-109896234D01*
X76260681Y-109882868D01*
X76270172Y-109790230D01*
X76270500Y-109783815D01*
X76270500Y-109772115D01*
X76266025Y-109756876D01*
X76264635Y-109755671D01*
X76256952Y-109754000D01*
X75497115Y-109754000D01*
X75481876Y-109758475D01*
X75480671Y-109759865D01*
X75479000Y-109767548D01*
X75479000Y-110464885D01*
X74971000Y-110464885D01*
X74971000Y-109227885D01*
X75479000Y-109227885D01*
X75483475Y-109243124D01*
X75484865Y-109244329D01*
X75492548Y-109246000D01*
X76252385Y-109246000D01*
X76267624Y-109241525D01*
X76268829Y-109240135D01*
X76270500Y-109232452D01*
X76270500Y-109216234D01*
X76270163Y-109209718D01*
X76260425Y-109115868D01*
X76257532Y-109102472D01*
X76207012Y-108951047D01*
X76200847Y-108937885D01*
X76117074Y-108802508D01*
X76108040Y-108791110D01*
X75995371Y-108678637D01*
X75983960Y-108669625D01*
X75848437Y-108586088D01*
X75835259Y-108579944D01*
X75683734Y-108529685D01*
X75670368Y-108526819D01*
X75577730Y-108517328D01*
X75571315Y-108517000D01*
X75497115Y-108517000D01*
X75481876Y-108521475D01*
X75480671Y-108522865D01*
X75479000Y-108530548D01*
X75479000Y-109227885D01*
X74971000Y-109227885D01*
X74971000Y-108844957D01*
X74975055Y-108816461D01*
X74975201Y-108816125D01*
X74982117Y-108772461D01*
X74984524Y-108760840D01*
X74993548Y-108725691D01*
X74993548Y-108725690D01*
X74995520Y-108718010D01*
X74995520Y-108697749D01*
X74997071Y-108678038D01*
X74998404Y-108669625D01*
X75000239Y-108658037D01*
X74996079Y-108614026D01*
X74995520Y-108602169D01*
X74995520Y-107985207D01*
X74996000Y-107980741D01*
X74996000Y-107964885D01*
X75504000Y-107964885D01*
X75508475Y-107980124D01*
X75509865Y-107981329D01*
X75517548Y-107983000D01*
X75596266Y-107983000D01*
X75602782Y-107982663D01*
X75696632Y-107972925D01*
X75710028Y-107970032D01*
X75861453Y-107919512D01*
X75874615Y-107913347D01*
X76009992Y-107829574D01*
X76021390Y-107820540D01*
X76133863Y-107707871D01*
X76142875Y-107696460D01*
X76226412Y-107560937D01*
X76232556Y-107547759D01*
X76282815Y-107396234D01*
X76285681Y-107382868D01*
X76295172Y-107290230D01*
X76295500Y-107283815D01*
X76295500Y-107272115D01*
X76291025Y-107256876D01*
X76289635Y-107255671D01*
X76281952Y-107254000D01*
X75522115Y-107254000D01*
X75506876Y-107258475D01*
X75505671Y-107259865D01*
X75504000Y-107267548D01*
X75504000Y-107964885D01*
X74996000Y-107964885D01*
X74996000Y-106872000D01*
X75016002Y-106803879D01*
X75069658Y-106757386D01*
X75122000Y-106746000D01*
X75671061Y-106746000D01*
X75739182Y-106766002D01*
X75745122Y-106770064D01*
X75810723Y-106817726D01*
X75816751Y-106820410D01*
X75816753Y-106820411D01*
X75979156Y-106892717D01*
X75985187Y-106895402D01*
X76078587Y-106915255D01*
X76165531Y-106933736D01*
X76165536Y-106933736D01*
X76171988Y-106935108D01*
X76362962Y-106935108D01*
X76369414Y-106933736D01*
X76369419Y-106933736D01*
X76456363Y-106915255D01*
X76549763Y-106895402D01*
X76555794Y-106892717D01*
X76718197Y-106820411D01*
X76718199Y-106820410D01*
X76724227Y-106817726D01*
X76878728Y-106705474D01*
X76946377Y-106630342D01*
X77002096Y-106568460D01*
X77002097Y-106568459D01*
X77006515Y-106563552D01*
X77073696Y-106447191D01*
X77098698Y-106403887D01*
X77098699Y-106403886D01*
X77102002Y-106398164D01*
X77161017Y-106216536D01*
X77164614Y-106182318D01*
X77180289Y-106033173D01*
X77180979Y-106026608D01*
X77173875Y-105959020D01*
X77161707Y-105843243D01*
X77161707Y-105843241D01*
X77161017Y-105836680D01*
X77102002Y-105655052D01*
X77006515Y-105489664D01*
X76933338Y-105408393D01*
X76902622Y-105344387D01*
X76900975Y-105324084D01*
X76900975Y-104967826D01*
X76920977Y-104899705D01*
X76960671Y-104860683D01*
X77016531Y-104826116D01*
X77023774Y-104818861D01*
X77025538Y-104817895D01*
X77027441Y-104816387D01*
X77027699Y-104816713D01*
X77086054Y-104784781D01*
X77156875Y-104789782D01*
X77201970Y-104818708D01*
X77204631Y-104821364D01*
X77216040Y-104830375D01*
X77351563Y-104913912D01*
X77364741Y-104920056D01*
X77516266Y-104970315D01*
X77529632Y-104973181D01*
X77622270Y-104982672D01*
X77628685Y-104983000D01*
X77702885Y-104983000D01*
X77718124Y-104978525D01*
X77719329Y-104977135D01*
X77721000Y-104969452D01*
X77721000Y-104964885D01*
X78229000Y-104964885D01*
X78233475Y-104980124D01*
X78234865Y-104981329D01*
X78242548Y-104983000D01*
X78321266Y-104983000D01*
X78327782Y-104982663D01*
X78421632Y-104972925D01*
X78435028Y-104970032D01*
X78586453Y-104919512D01*
X78599615Y-104913347D01*
X78734992Y-104829574D01*
X78746390Y-104820540D01*
X78858863Y-104707871D01*
X78867875Y-104696460D01*
X78951412Y-104560937D01*
X78957556Y-104547759D01*
X79007815Y-104396234D01*
X79010681Y-104382868D01*
X79020172Y-104290230D01*
X79020500Y-104283815D01*
X79020500Y-104272115D01*
X79016025Y-104256876D01*
X79014635Y-104255671D01*
X79006952Y-104254000D01*
X78247115Y-104254000D01*
X78231876Y-104258475D01*
X78230671Y-104259865D01*
X78229000Y-104267548D01*
X78229000Y-104964885D01*
X77721000Y-104964885D01*
X77721000Y-103727885D01*
X78229000Y-103727885D01*
X78233475Y-103743124D01*
X78234865Y-103744329D01*
X78242548Y-103746000D01*
X79002385Y-103746000D01*
X79017624Y-103741525D01*
X79018829Y-103740135D01*
X79020500Y-103732452D01*
X79020500Y-103716234D01*
X79020163Y-103709718D01*
X79010425Y-103615868D01*
X79007532Y-103602472D01*
X78957012Y-103451047D01*
X78950847Y-103437885D01*
X78867074Y-103302508D01*
X78858040Y-103291110D01*
X78745371Y-103178637D01*
X78733960Y-103169625D01*
X78598437Y-103086088D01*
X78585259Y-103079944D01*
X78433734Y-103029685D01*
X78420368Y-103026819D01*
X78327730Y-103017328D01*
X78321315Y-103017000D01*
X78247115Y-103017000D01*
X78231876Y-103021475D01*
X78230671Y-103022865D01*
X78229000Y-103030548D01*
X78229000Y-103727885D01*
X77721000Y-103727885D01*
X77721000Y-103035115D01*
X77716525Y-103019876D01*
X77715135Y-103018671D01*
X77707452Y-103017000D01*
X77628734Y-103017000D01*
X77622218Y-103017337D01*
X77528368Y-103027075D01*
X77514972Y-103029968D01*
X77363547Y-103080488D01*
X77350385Y-103086653D01*
X77215008Y-103170426D01*
X77203606Y-103179464D01*
X77201933Y-103181139D01*
X77200507Y-103181919D01*
X77197873Y-103184007D01*
X77197516Y-103183556D01*
X77139651Y-103215219D01*
X77068831Y-103210216D01*
X77023746Y-103181299D01*
X77020685Y-103178244D01*
X77015503Y-103173071D01*
X76867420Y-103081791D01*
X76702309Y-103027026D01*
X76695473Y-103026326D01*
X76695470Y-103026325D01*
X76643974Y-103021049D01*
X76599572Y-103016500D01*
X76214594Y-103016500D01*
X76146473Y-102996498D01*
X76125503Y-102979599D01*
X75244498Y-102098593D01*
X75210474Y-102036283D01*
X75215539Y-101965467D01*
X75258086Y-101908632D01*
X75324606Y-101883821D01*
X75333595Y-101883500D01*
X80945847Y-101883500D01*
X80957030Y-101884027D01*
X80964523Y-101885702D01*
X80972449Y-101885453D01*
X80972450Y-101885453D01*
X81032600Y-101883562D01*
X81036559Y-101883500D01*
X81064470Y-101883500D01*
X81068405Y-101883003D01*
X81068470Y-101882995D01*
X81080307Y-101882062D01*
X81112565Y-101881048D01*
X81116584Y-101880922D01*
X81124503Y-101880673D01*
X81143957Y-101875021D01*
X81163314Y-101871013D01*
X81175544Y-101869468D01*
X81175545Y-101869468D01*
X81183411Y-101868474D01*
X81190782Y-101865555D01*
X81190784Y-101865555D01*
X81224526Y-101852196D01*
X81235756Y-101848351D01*
X81270597Y-101838229D01*
X81270598Y-101838229D01*
X81278207Y-101836018D01*
X81285026Y-101831985D01*
X81285031Y-101831983D01*
X81295642Y-101825707D01*
X81313390Y-101817012D01*
X81332231Y-101809552D01*
X81368001Y-101783564D01*
X81377921Y-101777048D01*
X81409149Y-101758580D01*
X81409152Y-101758578D01*
X81415976Y-101754542D01*
X81430297Y-101740221D01*
X81445331Y-101727380D01*
X81455308Y-101720131D01*
X81461721Y-101715472D01*
X81489912Y-101681395D01*
X81497902Y-101672616D01*
X85683227Y-97487291D01*
X85745539Y-97453265D01*
X85816354Y-97458330D01*
G37*
%TD.AperFunction*%
%TA.AperFunction,Conductor*%
G36*
X56446601Y-100016002D02*
G01*
X56493094Y-100069658D01*
X56504480Y-100122000D01*
X56504480Y-100891529D01*
X56503953Y-100902712D01*
X56502278Y-100910205D01*
X56502527Y-100918131D01*
X56502527Y-100918132D01*
X56504418Y-100978282D01*
X56504480Y-100982241D01*
X56504480Y-101010152D01*
X56504977Y-101014086D01*
X56504977Y-101014087D01*
X56504985Y-101014152D01*
X56505918Y-101025989D01*
X56507307Y-101070185D01*
X56512958Y-101089635D01*
X56516967Y-101108996D01*
X56519506Y-101129093D01*
X56522424Y-101136463D01*
X56524396Y-101144144D01*
X56522792Y-101144556D01*
X56529000Y-101177109D01*
X56529000Y-101214885D01*
X56533475Y-101230124D01*
X56554276Y-101248149D01*
X56578367Y-101277957D01*
X56578428Y-101277913D01*
X56592680Y-101297529D01*
X56604416Y-101313683D01*
X56610932Y-101323603D01*
X56629270Y-101354610D01*
X56633438Y-101361658D01*
X56647759Y-101375979D01*
X56660599Y-101391012D01*
X56672508Y-101407403D01*
X56678614Y-101412454D01*
X56706585Y-101435594D01*
X56715364Y-101443584D01*
X57602443Y-102330663D01*
X57609987Y-102338953D01*
X57614100Y-102345434D01*
X57619877Y-102350859D01*
X57663767Y-102392074D01*
X57666609Y-102394829D01*
X57686330Y-102414550D01*
X57689525Y-102417028D01*
X57698547Y-102424734D01*
X57730779Y-102455002D01*
X57737728Y-102458822D01*
X57748532Y-102464762D01*
X57765056Y-102475615D01*
X57781059Y-102488029D01*
X57821643Y-102505592D01*
X57832273Y-102510799D01*
X57871040Y-102532111D01*
X57878717Y-102534082D01*
X57878722Y-102534084D01*
X57890658Y-102537148D01*
X57909366Y-102543553D01*
X57927955Y-102551597D01*
X57935780Y-102552836D01*
X57935782Y-102552837D01*
X57971619Y-102558513D01*
X57983240Y-102560920D01*
X58018389Y-102569944D01*
X58026070Y-102571916D01*
X58046331Y-102571916D01*
X58066040Y-102573467D01*
X58086043Y-102576635D01*
X58093935Y-102575889D01*
X58099162Y-102575395D01*
X58130054Y-102572475D01*
X58141911Y-102571916D01*
X59849208Y-102571916D01*
X59917329Y-102591918D01*
X59938303Y-102608821D01*
X60171249Y-102841767D01*
X60178793Y-102850058D01*
X60181252Y-102853932D01*
X60208408Y-102917194D01*
X60196696Y-102987218D01*
X60172407Y-103021357D01*
X59357747Y-103836017D01*
X59349461Y-103843557D01*
X59342982Y-103847669D01*
X59337557Y-103853446D01*
X59296357Y-103897320D01*
X59293602Y-103900162D01*
X59273865Y-103919899D01*
X59271385Y-103923096D01*
X59263682Y-103932116D01*
X59233414Y-103964348D01*
X59229595Y-103971294D01*
X59229593Y-103971297D01*
X59223652Y-103982103D01*
X59212801Y-103998622D01*
X59200386Y-104014628D01*
X59197241Y-104021897D01*
X59197238Y-104021901D01*
X59182826Y-104055206D01*
X59177609Y-104065856D01*
X59156305Y-104104609D01*
X59154334Y-104112284D01*
X59154334Y-104112285D01*
X59151267Y-104124231D01*
X59144863Y-104142935D01*
X59136819Y-104161524D01*
X59135580Y-104169347D01*
X59135577Y-104169357D01*
X59129901Y-104205193D01*
X59127495Y-104216813D01*
X59119670Y-104247293D01*
X59116500Y-104259639D01*
X59116500Y-104279893D01*
X59114949Y-104299603D01*
X59111780Y-104319612D01*
X59112526Y-104327504D01*
X59115941Y-104363630D01*
X59116500Y-104375488D01*
X59116500Y-107690000D01*
X59096498Y-107758121D01*
X59042842Y-107804614D01*
X58990500Y-107816000D01*
X58904513Y-107816000D01*
X58898061Y-107817372D01*
X58898056Y-107817372D01*
X58811113Y-107835853D01*
X58717712Y-107855706D01*
X58711682Y-107858391D01*
X58711681Y-107858391D01*
X58549278Y-107930697D01*
X58549276Y-107930698D01*
X58543248Y-107933382D01*
X58478914Y-107980124D01*
X58475525Y-107982586D01*
X58408658Y-108006444D01*
X58339506Y-107990364D01*
X58312446Y-107969823D01*
X58208183Y-107865742D01*
X58203003Y-107860571D01*
X58172165Y-107841562D01*
X58061150Y-107773131D01*
X58061148Y-107773130D01*
X58054920Y-107769291D01*
X57889809Y-107714526D01*
X57882973Y-107713826D01*
X57882970Y-107713825D01*
X57831474Y-107708549D01*
X57787072Y-107704000D01*
X57402094Y-107704000D01*
X57333973Y-107683998D01*
X57312999Y-107667095D01*
X55670405Y-106024500D01*
X55636379Y-105962188D01*
X55633500Y-105935405D01*
X55633500Y-101334237D01*
X55653502Y-101266116D01*
X55707158Y-101219623D01*
X55777432Y-101209519D01*
X55799165Y-101214643D01*
X55816267Y-101220315D01*
X55829632Y-101223181D01*
X55922270Y-101232672D01*
X55928685Y-101233000D01*
X56002885Y-101233000D01*
X56018124Y-101228525D01*
X56019329Y-101227135D01*
X56021000Y-101219452D01*
X56021000Y-100122000D01*
X56041002Y-100053879D01*
X56094658Y-100007386D01*
X56147000Y-99996000D01*
X56378480Y-99996000D01*
X56446601Y-100016002D01*
G37*
%TD.AperFunction*%
%TA.AperFunction,Conductor*%
G36*
X80682416Y-92134027D02*
G01*
X80689909Y-92135702D01*
X80697835Y-92135453D01*
X80697836Y-92135453D01*
X80757986Y-92133562D01*
X80761945Y-92133500D01*
X86460020Y-92133500D01*
X86528141Y-92153502D01*
X86549115Y-92170405D01*
X87754106Y-93375396D01*
X87788132Y-93437708D01*
X87791011Y-93464491D01*
X87791011Y-93695500D01*
X87771009Y-93763621D01*
X87717353Y-93810114D01*
X87665011Y-93821500D01*
X86351866Y-93821500D01*
X86289684Y-93828255D01*
X86153295Y-93879385D01*
X86036739Y-93966739D01*
X85949385Y-94083295D01*
X85898255Y-94219684D01*
X85891500Y-94281866D01*
X85891500Y-95435019D01*
X85871498Y-95503140D01*
X85854595Y-95524114D01*
X80799114Y-100579595D01*
X80736802Y-100613621D01*
X80710019Y-100616500D01*
X73776971Y-100616500D01*
X73708850Y-100596498D01*
X73662357Y-100542842D01*
X73652253Y-100472568D01*
X73681747Y-100407988D01*
X73698244Y-100392197D01*
X73704031Y-100388616D01*
X73727335Y-100365271D01*
X73821758Y-100270684D01*
X73821762Y-100270679D01*
X73826929Y-100265503D01*
X73847409Y-100232279D01*
X73914369Y-100123650D01*
X73914370Y-100123648D01*
X73918209Y-100117420D01*
X73972974Y-99952309D01*
X73983500Y-99849572D01*
X73983500Y-99150428D01*
X73983163Y-99147178D01*
X73973419Y-99053265D01*
X73973418Y-99053261D01*
X73972707Y-99046407D01*
X73970522Y-99039856D01*
X73919972Y-98888341D01*
X73917654Y-98881393D01*
X73826116Y-98733469D01*
X73818861Y-98726226D01*
X73817895Y-98724462D01*
X73816387Y-98722559D01*
X73816713Y-98722301D01*
X73784781Y-98663946D01*
X73789782Y-98593125D01*
X73818708Y-98548030D01*
X73821364Y-98545369D01*
X73830375Y-98533960D01*
X73913912Y-98398437D01*
X73920056Y-98385259D01*
X73970315Y-98233734D01*
X73973181Y-98220368D01*
X73982672Y-98127730D01*
X73983000Y-98121315D01*
X73983000Y-98047115D01*
X73978525Y-98031876D01*
X73977135Y-98030671D01*
X73969452Y-98029000D01*
X72872000Y-98029000D01*
X72803879Y-98008998D01*
X72757386Y-97955342D01*
X72746000Y-97903000D01*
X72746000Y-97502885D01*
X73254000Y-97502885D01*
X73258475Y-97518124D01*
X73259865Y-97519329D01*
X73267548Y-97521000D01*
X73964885Y-97521000D01*
X73980124Y-97516525D01*
X73981329Y-97515135D01*
X73983000Y-97507452D01*
X73983000Y-97428734D01*
X73982663Y-97422218D01*
X73972925Y-97328368D01*
X73970032Y-97314972D01*
X73919512Y-97163547D01*
X73913347Y-97150385D01*
X73829574Y-97015008D01*
X73820540Y-97003610D01*
X73707871Y-96891137D01*
X73696460Y-96882125D01*
X73560937Y-96798588D01*
X73547759Y-96792444D01*
X73396234Y-96742185D01*
X73382868Y-96739319D01*
X73290230Y-96729828D01*
X73283815Y-96729500D01*
X73272115Y-96729500D01*
X73256876Y-96733975D01*
X73255671Y-96735365D01*
X73254000Y-96743048D01*
X73254000Y-97502885D01*
X72746000Y-97502885D01*
X72746000Y-96747615D01*
X72741525Y-96732376D01*
X72740135Y-96731171D01*
X72732452Y-96729500D01*
X72716234Y-96729500D01*
X72709718Y-96729837D01*
X72615868Y-96739575D01*
X72602466Y-96742470D01*
X72515824Y-96771376D01*
X72444874Y-96773961D01*
X72386852Y-96740948D01*
X71335486Y-95689581D01*
X70253652Y-94607747D01*
X70246112Y-94599461D01*
X70242000Y-94592982D01*
X70192348Y-94546356D01*
X70189507Y-94543602D01*
X70169770Y-94523865D01*
X70166573Y-94521385D01*
X70157551Y-94513680D01*
X70144116Y-94501064D01*
X70125321Y-94483414D01*
X70118375Y-94479595D01*
X70118372Y-94479593D01*
X70107566Y-94473652D01*
X70091047Y-94462801D01*
X70090583Y-94462441D01*
X70075041Y-94450386D01*
X70067772Y-94447241D01*
X70067768Y-94447238D01*
X70034463Y-94432826D01*
X70023813Y-94427609D01*
X69985060Y-94406305D01*
X69965437Y-94401267D01*
X69946734Y-94394863D01*
X69935420Y-94389967D01*
X69935419Y-94389967D01*
X69928145Y-94386819D01*
X69920322Y-94385580D01*
X69920312Y-94385577D01*
X69884476Y-94379901D01*
X69872856Y-94377495D01*
X69837711Y-94368472D01*
X69837710Y-94368472D01*
X69830030Y-94366500D01*
X69809776Y-94366500D01*
X69790065Y-94364949D01*
X69787534Y-94364548D01*
X69770057Y-94361780D01*
X69744351Y-94364210D01*
X69726039Y-94365941D01*
X69714181Y-94366500D01*
X67821793Y-94366500D01*
X67798184Y-94364268D01*
X67797881Y-94364210D01*
X67797877Y-94364210D01*
X67790094Y-94362725D01*
X67734049Y-94366251D01*
X67726138Y-94366500D01*
X66759500Y-94366500D01*
X66691379Y-94346498D01*
X66644886Y-94292842D01*
X66633500Y-94240500D01*
X66633500Y-94228640D01*
X66653502Y-94160519D01*
X66693196Y-94121497D01*
X66766531Y-94076116D01*
X66868550Y-93973919D01*
X66884258Y-93958184D01*
X66884262Y-93958179D01*
X66889429Y-93953003D01*
X66966851Y-93827402D01*
X66976869Y-93811150D01*
X66976870Y-93811148D01*
X66980709Y-93804920D01*
X67035474Y-93639809D01*
X67046000Y-93537072D01*
X67046000Y-92962928D01*
X67045663Y-92959678D01*
X67035919Y-92865765D01*
X67035918Y-92865761D01*
X67035207Y-92858907D01*
X66980154Y-92693893D01*
X66888616Y-92545969D01*
X66807725Y-92465219D01*
X66770684Y-92428242D01*
X66770679Y-92428238D01*
X66765503Y-92423071D01*
X66693384Y-92378616D01*
X66645891Y-92325844D01*
X66633500Y-92271356D01*
X66633500Y-92259500D01*
X66653502Y-92191379D01*
X66707158Y-92144886D01*
X66759500Y-92133500D01*
X80671233Y-92133500D01*
X80682416Y-92134027D01*
G37*
%TD.AperFunction*%
%TA.AperFunction,Conductor*%
G36*
X69671121Y-96016002D02*
G01*
X69717614Y-96069658D01*
X69729000Y-96122000D01*
X69729000Y-97219372D01*
X69721013Y-97246572D01*
X69725007Y-97247441D01*
X69716500Y-97286548D01*
X69716500Y-97477885D01*
X69720975Y-97493124D01*
X69722365Y-97494329D01*
X69730048Y-97496000D01*
X70489885Y-97496000D01*
X70505124Y-97491525D01*
X70506329Y-97490135D01*
X70508000Y-97482452D01*
X70508000Y-97466234D01*
X70507663Y-97459718D01*
X70497925Y-97365868D01*
X70495032Y-97352472D01*
X70444512Y-97201047D01*
X70438349Y-97187889D01*
X70369438Y-97076530D01*
X70350601Y-97008078D01*
X70369323Y-96944112D01*
X70449233Y-96814472D01*
X70502004Y-96766978D01*
X70572076Y-96755554D01*
X70637200Y-96783828D01*
X70645588Y-96791492D01*
X71329595Y-97475499D01*
X71363621Y-97537811D01*
X71366500Y-97564594D01*
X71366500Y-98421233D01*
X71365973Y-98432416D01*
X71364298Y-98439909D01*
X71364547Y-98447835D01*
X71364547Y-98447836D01*
X71366438Y-98507986D01*
X71366500Y-98511945D01*
X71366500Y-98539856D01*
X71366997Y-98543790D01*
X71366997Y-98543791D01*
X71367005Y-98543856D01*
X71367938Y-98555693D01*
X71369327Y-98599889D01*
X71374153Y-98616500D01*
X71374978Y-98619339D01*
X71378987Y-98638700D01*
X71381526Y-98658797D01*
X71384445Y-98666168D01*
X71384445Y-98666170D01*
X71397804Y-98699912D01*
X71401649Y-98711142D01*
X71411771Y-98745983D01*
X71413982Y-98753593D01*
X71418015Y-98760412D01*
X71418017Y-98760417D01*
X71424293Y-98771028D01*
X71432988Y-98788776D01*
X71440448Y-98807617D01*
X71445110Y-98814033D01*
X71445110Y-98814034D01*
X71466436Y-98843387D01*
X71472952Y-98853307D01*
X71488429Y-98879476D01*
X71495458Y-98891362D01*
X71509779Y-98905683D01*
X71522619Y-98920716D01*
X71534528Y-98937107D01*
X71563666Y-98961212D01*
X71568605Y-98965298D01*
X71577384Y-98973288D01*
X71979595Y-99375499D01*
X72013621Y-99437811D01*
X72016500Y-99464594D01*
X72016500Y-99480576D01*
X71996498Y-99548697D01*
X71942842Y-99595190D01*
X71916697Y-99603823D01*
X71830581Y-99622128D01*
X71730011Y-99643505D01*
X71723981Y-99646190D01*
X71723980Y-99646190D01*
X71561577Y-99718496D01*
X71561575Y-99718497D01*
X71555547Y-99721181D01*
X71401046Y-99833433D01*
X71396625Y-99838343D01*
X71396624Y-99838344D01*
X71288134Y-99958835D01*
X71273259Y-99975355D01*
X71237460Y-100037361D01*
X71191238Y-100117420D01*
X71177772Y-100140743D01*
X71118757Y-100322371D01*
X71118067Y-100328932D01*
X71118067Y-100328934D01*
X71108101Y-100423759D01*
X71101825Y-100483475D01*
X71099702Y-100503670D01*
X71072689Y-100569327D01*
X71014467Y-100609957D01*
X70974392Y-100616500D01*
X70731387Y-100616500D01*
X70663266Y-100596498D01*
X70616773Y-100542842D01*
X70606669Y-100472568D01*
X70622267Y-100427502D01*
X70624428Y-100423759D01*
X70624429Y-100423756D01*
X70627733Y-100418034D01*
X70686748Y-100236406D01*
X70696803Y-100140743D01*
X70706020Y-100053043D01*
X70706710Y-100046478D01*
X70698719Y-99970447D01*
X70687438Y-99863113D01*
X70687438Y-99863111D01*
X70686748Y-99856550D01*
X70627733Y-99674922D01*
X70532246Y-99509534D01*
X70527827Y-99504626D01*
X70409419Y-99373120D01*
X70384852Y-99328985D01*
X70384585Y-99329100D01*
X70383428Y-99326427D01*
X70382060Y-99323969D01*
X70381438Y-99321827D01*
X70381434Y-99321818D01*
X70379224Y-99314211D01*
X70371215Y-99300668D01*
X70368913Y-99296776D01*
X70360218Y-99279028D01*
X70352758Y-99260187D01*
X70342436Y-99245979D01*
X70326770Y-99224417D01*
X70320254Y-99214497D01*
X70301786Y-99183269D01*
X70301784Y-99183266D01*
X70297748Y-99176442D01*
X70283427Y-99162121D01*
X70270586Y-99147087D01*
X70258678Y-99130697D01*
X70224601Y-99102506D01*
X70215822Y-99094516D01*
X70005766Y-98884460D01*
X69971740Y-98822148D01*
X69976805Y-98751333D01*
X70019352Y-98694497D01*
X70054983Y-98675842D01*
X70073950Y-98669514D01*
X70087115Y-98663347D01*
X70222492Y-98579574D01*
X70233890Y-98570540D01*
X70346363Y-98457871D01*
X70355375Y-98446460D01*
X70438912Y-98310937D01*
X70445056Y-98297759D01*
X70495315Y-98146234D01*
X70498181Y-98132868D01*
X70507672Y-98040230D01*
X70508000Y-98033815D01*
X70508000Y-98022115D01*
X70503525Y-98006876D01*
X70502135Y-98005671D01*
X70494452Y-98004000D01*
X69334500Y-98004000D01*
X69266379Y-97983998D01*
X69219886Y-97930342D01*
X69208500Y-97878000D01*
X69208500Y-96780628D01*
X69216487Y-96753428D01*
X69212493Y-96752559D01*
X69221000Y-96713452D01*
X69221000Y-96122000D01*
X69241002Y-96053879D01*
X69294658Y-96007386D01*
X69347000Y-95996000D01*
X69603000Y-95996000D01*
X69671121Y-96016002D01*
G37*
%TD.AperFunction*%
%TA.AperFunction,Conductor*%
G36*
X63208823Y-95653502D02*
G01*
X63255316Y-95707158D01*
X63265420Y-95777432D01*
X63260295Y-95799168D01*
X63242184Y-95853769D01*
X63239319Y-95867132D01*
X63229828Y-95959770D01*
X63229500Y-95966185D01*
X63229500Y-95977885D01*
X63233975Y-95993124D01*
X63235365Y-95994329D01*
X63243048Y-95996000D01*
X64403000Y-95996000D01*
X64471121Y-96016002D01*
X64517614Y-96069658D01*
X64529000Y-96122000D01*
X64529000Y-98714885D01*
X64533475Y-98730124D01*
X64534865Y-98731329D01*
X64542548Y-98733000D01*
X64621266Y-98733000D01*
X64627782Y-98732663D01*
X64721632Y-98722925D01*
X64735028Y-98720032D01*
X64886453Y-98669512D01*
X64899615Y-98663347D01*
X65034992Y-98579574D01*
X65046394Y-98570536D01*
X65048067Y-98568861D01*
X65049493Y-98568081D01*
X65052127Y-98565993D01*
X65052484Y-98566444D01*
X65110349Y-98534781D01*
X65181169Y-98539784D01*
X65226254Y-98568701D01*
X65229083Y-98571524D01*
X65234497Y-98576929D01*
X65240727Y-98580769D01*
X65240728Y-98580770D01*
X65306616Y-98621384D01*
X65354109Y-98674156D01*
X65366500Y-98728644D01*
X65366500Y-98921233D01*
X65365973Y-98932416D01*
X65364298Y-98939909D01*
X65364547Y-98947835D01*
X65364547Y-98947836D01*
X65366438Y-99007986D01*
X65366500Y-99011945D01*
X65366500Y-99039856D01*
X65366997Y-99043790D01*
X65366997Y-99043791D01*
X65367005Y-99043856D01*
X65367938Y-99055693D01*
X65369327Y-99099889D01*
X65372152Y-99109612D01*
X65374978Y-99119339D01*
X65378987Y-99138700D01*
X65381526Y-99158797D01*
X65384445Y-99166168D01*
X65384445Y-99166170D01*
X65397804Y-99199912D01*
X65401649Y-99211142D01*
X65413982Y-99253593D01*
X65418017Y-99260416D01*
X65421071Y-99267473D01*
X65429767Y-99337935D01*
X65420540Y-99368760D01*
X65418774Y-99372726D01*
X65415473Y-99378444D01*
X65413433Y-99384724D01*
X65413432Y-99384725D01*
X65399281Y-99428277D01*
X65356458Y-99560072D01*
X65355769Y-99566631D01*
X65355768Y-99566634D01*
X65346527Y-99654560D01*
X65319514Y-99720216D01*
X65261292Y-99760846D01*
X65190347Y-99763549D01*
X65129203Y-99727467D01*
X65101384Y-99680325D01*
X65099629Y-99674922D01*
X65084527Y-99628444D01*
X65079993Y-99620590D01*
X65019175Y-99515252D01*
X64989040Y-99463056D01*
X64962766Y-99433875D01*
X64865675Y-99326045D01*
X64865674Y-99326044D01*
X64861253Y-99321134D01*
X64750456Y-99240635D01*
X64712094Y-99212763D01*
X64712093Y-99212762D01*
X64706752Y-99208882D01*
X64700724Y-99206198D01*
X64700722Y-99206197D01*
X64538319Y-99133891D01*
X64538318Y-99133891D01*
X64532288Y-99131206D01*
X64420747Y-99107497D01*
X64351944Y-99092872D01*
X64351939Y-99092872D01*
X64345487Y-99091500D01*
X64289595Y-99091500D01*
X64221474Y-99071498D01*
X64200499Y-99054595D01*
X64034366Y-98888461D01*
X64000341Y-98826149D01*
X64005406Y-98755333D01*
X64017703Y-98734608D01*
X64021000Y-98719452D01*
X64021000Y-98022115D01*
X64016525Y-98006876D01*
X64015135Y-98005671D01*
X64007452Y-98004000D01*
X63247615Y-98004000D01*
X63243811Y-98005117D01*
X63172814Y-98005115D01*
X63119220Y-97973315D01*
X63003652Y-97857747D01*
X62996112Y-97849461D01*
X62992000Y-97842982D01*
X62942348Y-97796356D01*
X62939507Y-97793602D01*
X62919770Y-97773865D01*
X62916573Y-97771385D01*
X62907551Y-97763680D01*
X62881100Y-97738841D01*
X62875321Y-97733414D01*
X62868375Y-97729595D01*
X62868372Y-97729593D01*
X62857566Y-97723652D01*
X62841047Y-97712801D01*
X62840583Y-97712441D01*
X62825041Y-97700386D01*
X62817772Y-97697241D01*
X62817768Y-97697238D01*
X62784463Y-97682826D01*
X62773813Y-97677609D01*
X62735060Y-97656305D01*
X62715437Y-97651267D01*
X62696734Y-97644863D01*
X62685420Y-97639967D01*
X62685419Y-97639967D01*
X62678145Y-97636819D01*
X62670322Y-97635580D01*
X62670312Y-97635577D01*
X62634476Y-97629901D01*
X62622856Y-97627495D01*
X62587711Y-97618472D01*
X62587710Y-97618472D01*
X62580030Y-97616500D01*
X62559776Y-97616500D01*
X62540065Y-97614949D01*
X62527886Y-97613020D01*
X62520057Y-97611780D01*
X62488588Y-97614755D01*
X62418888Y-97601253D01*
X62372052Y-97557898D01*
X62372013Y-97557929D01*
X62371815Y-97557679D01*
X62369585Y-97555615D01*
X62363616Y-97545969D01*
X62295413Y-97477885D01*
X63229500Y-97477885D01*
X63233975Y-97493124D01*
X63235365Y-97494329D01*
X63243048Y-97496000D01*
X64002885Y-97496000D01*
X64018124Y-97491525D01*
X64019329Y-97490135D01*
X64021000Y-97482452D01*
X64021000Y-96522115D01*
X64016525Y-96506876D01*
X64015135Y-96505671D01*
X64007452Y-96504000D01*
X63247615Y-96504000D01*
X63232376Y-96508475D01*
X63231171Y-96509865D01*
X63229500Y-96517548D01*
X63229500Y-96533766D01*
X63229837Y-96540282D01*
X63239575Y-96634132D01*
X63242468Y-96647528D01*
X63292988Y-96798953D01*
X63299153Y-96812115D01*
X63374324Y-96933591D01*
X63393161Y-97002043D01*
X63374439Y-97066008D01*
X63298590Y-97189059D01*
X63292444Y-97202241D01*
X63242185Y-97353766D01*
X63239319Y-97367132D01*
X63229828Y-97459770D01*
X63229500Y-97466185D01*
X63229500Y-97477885D01*
X62295413Y-97477885D01*
X62281713Y-97464209D01*
X62247634Y-97401929D01*
X62252637Y-97331108D01*
X62281558Y-97286019D01*
X62359258Y-97208184D01*
X62359262Y-97208179D01*
X62364429Y-97203003D01*
X62373024Y-97189059D01*
X62451869Y-97061150D01*
X62451870Y-97061148D01*
X62455709Y-97054920D01*
X62510474Y-96889809D01*
X62511262Y-96882125D01*
X62519820Y-96798588D01*
X62521000Y-96787072D01*
X62521000Y-96212928D01*
X62510207Y-96108907D01*
X62499941Y-96078134D01*
X62457472Y-95950841D01*
X62455154Y-95943893D01*
X62382076Y-95825801D01*
X62363240Y-95757351D01*
X62384401Y-95689581D01*
X62438842Y-95644010D01*
X62489222Y-95633500D01*
X63140702Y-95633500D01*
X63208823Y-95653502D01*
G37*
%TD.AperFunction*%
%TA.AperFunction,Conductor*%
G36*
X88933621Y-72778502D02*
G01*
X88980114Y-72832158D01*
X88991500Y-72884500D01*
X88991500Y-92516792D01*
X88971498Y-92584913D01*
X88917842Y-92631406D01*
X88847568Y-92641510D01*
X88782988Y-92612016D01*
X88776405Y-92605887D01*
X88047798Y-91877279D01*
X87278266Y-91107747D01*
X87270726Y-91099461D01*
X87266614Y-91092982D01*
X87216962Y-91046356D01*
X87214121Y-91043602D01*
X87194384Y-91023865D01*
X87191187Y-91021385D01*
X87182165Y-91013680D01*
X87155714Y-90988841D01*
X87149935Y-90983414D01*
X87142989Y-90979595D01*
X87142986Y-90979593D01*
X87132180Y-90973652D01*
X87115661Y-90962801D01*
X87109662Y-90958148D01*
X87099655Y-90950386D01*
X87092386Y-90947241D01*
X87092382Y-90947238D01*
X87059077Y-90932826D01*
X87048427Y-90927609D01*
X87009674Y-90906305D01*
X86990051Y-90901267D01*
X86971348Y-90894863D01*
X86960034Y-90889967D01*
X86960033Y-90889967D01*
X86952759Y-90886819D01*
X86944936Y-90885580D01*
X86944926Y-90885577D01*
X86909090Y-90879901D01*
X86897470Y-90877495D01*
X86862325Y-90868472D01*
X86862324Y-90868472D01*
X86854644Y-90866500D01*
X86834390Y-90866500D01*
X86814679Y-90864949D01*
X86806295Y-90863621D01*
X86794671Y-90861780D01*
X86786779Y-90862526D01*
X86750653Y-90865941D01*
X86738795Y-90866500D01*
X82583594Y-90866500D01*
X82515473Y-90846498D01*
X82468980Y-90792842D01*
X82458876Y-90722568D01*
X82488370Y-90657988D01*
X82494499Y-90651405D01*
X84642247Y-88503657D01*
X84650537Y-88496113D01*
X84657018Y-88492000D01*
X84703659Y-88442332D01*
X84706413Y-88439491D01*
X84726134Y-88419770D01*
X84728612Y-88416575D01*
X84736318Y-88407553D01*
X84761158Y-88381101D01*
X84766586Y-88375321D01*
X84776346Y-88357568D01*
X84787199Y-88341045D01*
X84794753Y-88331306D01*
X84799613Y-88325041D01*
X84817176Y-88284457D01*
X84822383Y-88273827D01*
X84843695Y-88235060D01*
X84845666Y-88227383D01*
X84845668Y-88227378D01*
X84848732Y-88215442D01*
X84855138Y-88196730D01*
X84860034Y-88185417D01*
X84863181Y-88178145D01*
X84865063Y-88166267D01*
X84870097Y-88134481D01*
X84872504Y-88122860D01*
X84881528Y-88087711D01*
X84881528Y-88087710D01*
X84883500Y-88080030D01*
X84883500Y-88059769D01*
X84885051Y-88040058D01*
X84886979Y-88027885D01*
X84888219Y-88020057D01*
X84884059Y-87976046D01*
X84883500Y-87964189D01*
X84883500Y-87927966D01*
X85918257Y-87927966D01*
X85948565Y-88062446D01*
X85951645Y-88072275D01*
X86031770Y-88269603D01*
X86036413Y-88278794D01*
X86147694Y-88460388D01*
X86153777Y-88468699D01*
X86293213Y-88629667D01*
X86300580Y-88636883D01*
X86464434Y-88772916D01*
X86472881Y-88778831D01*
X86656756Y-88886279D01*
X86666042Y-88890729D01*
X86865001Y-88966703D01*
X86874899Y-88969579D01*
X86978250Y-88990606D01*
X86992299Y-88989410D01*
X86996000Y-88979065D01*
X86996000Y-88978517D01*
X87504000Y-88978517D01*
X87508064Y-88992359D01*
X87521478Y-88994393D01*
X87528184Y-88993534D01*
X87538262Y-88991392D01*
X87742255Y-88930191D01*
X87751842Y-88926433D01*
X87943095Y-88832739D01*
X87951945Y-88827464D01*
X88125328Y-88703792D01*
X88133200Y-88697139D01*
X88284052Y-88546812D01*
X88290730Y-88538965D01*
X88415003Y-88366020D01*
X88420313Y-88357183D01*
X88514670Y-88166267D01*
X88518469Y-88156672D01*
X88580377Y-87952910D01*
X88582555Y-87942837D01*
X88583986Y-87931962D01*
X88581775Y-87917778D01*
X88568617Y-87914000D01*
X87522115Y-87914000D01*
X87506876Y-87918475D01*
X87505671Y-87919865D01*
X87504000Y-87927548D01*
X87504000Y-88978517D01*
X86996000Y-88978517D01*
X86996000Y-87932115D01*
X86991525Y-87916876D01*
X86990135Y-87915671D01*
X86982452Y-87914000D01*
X85933225Y-87914000D01*
X85919694Y-87917973D01*
X85918257Y-87927966D01*
X84883500Y-87927966D01*
X84883500Y-80814594D01*
X84903502Y-80746473D01*
X84920405Y-80725499D01*
X85675019Y-79970885D01*
X85737331Y-79936859D01*
X85808146Y-79941924D01*
X85864982Y-79984471D01*
X85889905Y-80052727D01*
X85895578Y-80151117D01*
X85900110Y-80229715D01*
X85901247Y-80234761D01*
X85901248Y-80234767D01*
X85919235Y-80314580D01*
X85949222Y-80447639D01*
X86033266Y-80654616D01*
X86149987Y-80845088D01*
X86296250Y-81013938D01*
X86468126Y-81156632D01*
X86538595Y-81197811D01*
X86541445Y-81199476D01*
X86590169Y-81251114D01*
X86603240Y-81320897D01*
X86576509Y-81386669D01*
X86536055Y-81420027D01*
X86523607Y-81426507D01*
X86519474Y-81429610D01*
X86519471Y-81429612D01*
X86495247Y-81447800D01*
X86344965Y-81560635D01*
X86190629Y-81722138D01*
X86064743Y-81906680D01*
X85970688Y-82109305D01*
X85910989Y-82324570D01*
X85887251Y-82546695D01*
X85887548Y-82551848D01*
X85887548Y-82551851D01*
X85893011Y-82646590D01*
X85900110Y-82769715D01*
X85901247Y-82774761D01*
X85901248Y-82774767D01*
X85921119Y-82862939D01*
X85949222Y-82987639D01*
X86033266Y-83194616D01*
X86149987Y-83385088D01*
X86296250Y-83553938D01*
X86468126Y-83696632D01*
X86538595Y-83737811D01*
X86541445Y-83739476D01*
X86590169Y-83791114D01*
X86603240Y-83860897D01*
X86576509Y-83926669D01*
X86536055Y-83960027D01*
X86523607Y-83966507D01*
X86519474Y-83969610D01*
X86519471Y-83969612D01*
X86495247Y-83987800D01*
X86344965Y-84100635D01*
X86190629Y-84262138D01*
X86064743Y-84446680D01*
X85970688Y-84649305D01*
X85910989Y-84864570D01*
X85887251Y-85086695D01*
X85887548Y-85091848D01*
X85887548Y-85091851D01*
X85893011Y-85186590D01*
X85900110Y-85309715D01*
X85901247Y-85314761D01*
X85901248Y-85314767D01*
X85921119Y-85402939D01*
X85949222Y-85527639D01*
X86033266Y-85734616D01*
X86149987Y-85925088D01*
X86296250Y-86093938D01*
X86468126Y-86236632D01*
X86541955Y-86279774D01*
X86590679Y-86331412D01*
X86603750Y-86401195D01*
X86577019Y-86466967D01*
X86536562Y-86500327D01*
X86528457Y-86504546D01*
X86519738Y-86510036D01*
X86349433Y-86637905D01*
X86341726Y-86644748D01*
X86194590Y-86798717D01*
X86188104Y-86806727D01*
X86068098Y-86982649D01*
X86063000Y-86991623D01*
X85973338Y-87184783D01*
X85969775Y-87194470D01*
X85914389Y-87394183D01*
X85915912Y-87402607D01*
X85928292Y-87406000D01*
X88568344Y-87406000D01*
X88581875Y-87402027D01*
X88583180Y-87392947D01*
X88541214Y-87225875D01*
X88537894Y-87216124D01*
X88452972Y-87020814D01*
X88448105Y-87011739D01*
X88332426Y-86832926D01*
X88326136Y-86824757D01*
X88182806Y-86667240D01*
X88175273Y-86660215D01*
X88008139Y-86528222D01*
X87999556Y-86522520D01*
X87962602Y-86502120D01*
X87912631Y-86451687D01*
X87897859Y-86382245D01*
X87922975Y-86315839D01*
X87950327Y-86289232D01*
X87973797Y-86272491D01*
X88129860Y-86161173D01*
X88288096Y-86003489D01*
X88347594Y-85920689D01*
X88415435Y-85826277D01*
X88418453Y-85822077D01*
X88517430Y-85621811D01*
X88582370Y-85408069D01*
X88611529Y-85186590D01*
X88613156Y-85120000D01*
X88594852Y-84897361D01*
X88540431Y-84680702D01*
X88451354Y-84475840D01*
X88330014Y-84288277D01*
X88179670Y-84123051D01*
X88175619Y-84119852D01*
X88175615Y-84119848D01*
X88008414Y-83987800D01*
X88008410Y-83987798D01*
X88004359Y-83984598D01*
X87963053Y-83961796D01*
X87913084Y-83911364D01*
X87898312Y-83841921D01*
X87923428Y-83775516D01*
X87950780Y-83748909D01*
X87994603Y-83717650D01*
X88129860Y-83621173D01*
X88288096Y-83463489D01*
X88347594Y-83380689D01*
X88415435Y-83286277D01*
X88418453Y-83282077D01*
X88517430Y-83081811D01*
X88582370Y-82868069D01*
X88611529Y-82646590D01*
X88613156Y-82580000D01*
X88594852Y-82357361D01*
X88540431Y-82140702D01*
X88451354Y-81935840D01*
X88330014Y-81748277D01*
X88179670Y-81583051D01*
X88175619Y-81579852D01*
X88175615Y-81579848D01*
X88008414Y-81447800D01*
X88008410Y-81447798D01*
X88004359Y-81444598D01*
X87963053Y-81421796D01*
X87913084Y-81371364D01*
X87898312Y-81301921D01*
X87923428Y-81235516D01*
X87950780Y-81208909D01*
X87994603Y-81177650D01*
X88129860Y-81081173D01*
X88288096Y-80923489D01*
X88347594Y-80840689D01*
X88415435Y-80746277D01*
X88418453Y-80742077D01*
X88426647Y-80725499D01*
X88515136Y-80546453D01*
X88515137Y-80546451D01*
X88517430Y-80541811D01*
X88582370Y-80328069D01*
X88611529Y-80106590D01*
X88613156Y-80040000D01*
X88594852Y-79817361D01*
X88540431Y-79600702D01*
X88451354Y-79395840D01*
X88330014Y-79208277D01*
X88326532Y-79204450D01*
X88182798Y-79046488D01*
X88151746Y-78982642D01*
X88160141Y-78912143D01*
X88205317Y-78857375D01*
X88231761Y-78843706D01*
X88338297Y-78803767D01*
X88346705Y-78800615D01*
X88463261Y-78713261D01*
X88550615Y-78596705D01*
X88601745Y-78460316D01*
X88608500Y-78398134D01*
X88608500Y-76601866D01*
X88601745Y-76539684D01*
X88550615Y-76403295D01*
X88463261Y-76286739D01*
X88346705Y-76199385D01*
X88210316Y-76148255D01*
X88148134Y-76141500D01*
X86351866Y-76141500D01*
X86289684Y-76148255D01*
X86153295Y-76199385D01*
X86036739Y-76286739D01*
X85949385Y-76403295D01*
X85898255Y-76539684D01*
X85891500Y-76601866D01*
X85891500Y-77910406D01*
X85871498Y-77978527D01*
X85854595Y-77999501D01*
X84811044Y-79043051D01*
X83857747Y-79996348D01*
X83849461Y-80003888D01*
X83842982Y-80008000D01*
X83837557Y-80013777D01*
X83796357Y-80057651D01*
X83793602Y-80060493D01*
X83773865Y-80080230D01*
X83771385Y-80083427D01*
X83763682Y-80092447D01*
X83733414Y-80124679D01*
X83729595Y-80131625D01*
X83729593Y-80131628D01*
X83723652Y-80142434D01*
X83712801Y-80158953D01*
X83700386Y-80174959D01*
X83697241Y-80182228D01*
X83697238Y-80182232D01*
X83682826Y-80215537D01*
X83677609Y-80226187D01*
X83656305Y-80264940D01*
X83654334Y-80272615D01*
X83654334Y-80272616D01*
X83651267Y-80284562D01*
X83644863Y-80303266D01*
X83636819Y-80321855D01*
X83635580Y-80329678D01*
X83635577Y-80329688D01*
X83629901Y-80365524D01*
X83627495Y-80377144D01*
X83616500Y-80419970D01*
X83616500Y-80440224D01*
X83614949Y-80459934D01*
X83611780Y-80479943D01*
X83612526Y-80487835D01*
X83615941Y-80523961D01*
X83616500Y-80535819D01*
X83616500Y-87685405D01*
X83596498Y-87753526D01*
X83579595Y-87774500D01*
X80524500Y-90829595D01*
X80462188Y-90863621D01*
X80435405Y-90866500D01*
X66708200Y-90866500D01*
X66640079Y-90846498D01*
X66620853Y-90830157D01*
X66620580Y-90830460D01*
X66615668Y-90826037D01*
X66611253Y-90821134D01*
X66456752Y-90708882D01*
X66450724Y-90706198D01*
X66450722Y-90706197D01*
X66288319Y-90633891D01*
X66288318Y-90633891D01*
X66282288Y-90631206D01*
X66188888Y-90611353D01*
X66101944Y-90592872D01*
X66101939Y-90592872D01*
X66095487Y-90591500D01*
X65904513Y-90591500D01*
X65898061Y-90592872D01*
X65898056Y-90592872D01*
X65811112Y-90611353D01*
X65717712Y-90631206D01*
X65711682Y-90633891D01*
X65711681Y-90633891D01*
X65549278Y-90706197D01*
X65549276Y-90706198D01*
X65543248Y-90708882D01*
X65388747Y-90821134D01*
X65384326Y-90826044D01*
X65384325Y-90826045D01*
X65275203Y-90947238D01*
X65260960Y-90963056D01*
X65165473Y-91128444D01*
X65106458Y-91310072D01*
X65086496Y-91500000D01*
X65106458Y-91689928D01*
X65165473Y-91871556D01*
X65260960Y-92036944D01*
X65334137Y-92118215D01*
X65364853Y-92182221D01*
X65366500Y-92202524D01*
X65366500Y-92271360D01*
X65346498Y-92339481D01*
X65306804Y-92378503D01*
X65233469Y-92423884D01*
X65228297Y-92429065D01*
X65226227Y-92431139D01*
X65224462Y-92432105D01*
X65222559Y-92433613D01*
X65222301Y-92433287D01*
X65163946Y-92465219D01*
X65093125Y-92460218D01*
X65048030Y-92431292D01*
X65045369Y-92428636D01*
X65033960Y-92419625D01*
X64898437Y-92336088D01*
X64885259Y-92329944D01*
X64733734Y-92279685D01*
X64720368Y-92276819D01*
X64627730Y-92267328D01*
X64621315Y-92267000D01*
X64547115Y-92267000D01*
X64531876Y-92271475D01*
X64530671Y-92272865D01*
X64529000Y-92280548D01*
X64529000Y-93378000D01*
X64508998Y-93446121D01*
X64455342Y-93492614D01*
X64403000Y-93504000D01*
X63247615Y-93504000D01*
X63232376Y-93508475D01*
X63231171Y-93509865D01*
X63229500Y-93517548D01*
X63229500Y-93533766D01*
X63229837Y-93540282D01*
X63239575Y-93634132D01*
X63242468Y-93647528D01*
X63292988Y-93798953D01*
X63299153Y-93812115D01*
X63382926Y-93947492D01*
X63391960Y-93958890D01*
X63504629Y-94071363D01*
X63516043Y-94080377D01*
X63601803Y-94133240D01*
X63649297Y-94186012D01*
X63660721Y-94256083D01*
X63632447Y-94321207D01*
X63573453Y-94360707D01*
X63535688Y-94366500D01*
X61571793Y-94366500D01*
X61548184Y-94364268D01*
X61547881Y-94364210D01*
X61547877Y-94364210D01*
X61540094Y-94362725D01*
X61484049Y-94366251D01*
X61476138Y-94366500D01*
X59996447Y-94366500D01*
X59985263Y-94365973D01*
X59977775Y-94364299D01*
X59969852Y-94364548D01*
X59909717Y-94366438D01*
X59905759Y-94366500D01*
X59877828Y-94366500D01*
X59873913Y-94366995D01*
X59873909Y-94366995D01*
X59873851Y-94367003D01*
X59873822Y-94367006D01*
X59861980Y-94367939D01*
X59817794Y-94369327D01*
X59800428Y-94374372D01*
X59798342Y-94374978D01*
X59778990Y-94378986D01*
X59766752Y-94380532D01*
X59766750Y-94380533D01*
X59758887Y-94381526D01*
X59717770Y-94397806D01*
X59706569Y-94401641D01*
X59664090Y-94413982D01*
X59657271Y-94418015D01*
X59657266Y-94418017D01*
X59646655Y-94424293D01*
X59628905Y-94432990D01*
X59610067Y-94440448D01*
X59603651Y-94445109D01*
X59603650Y-94445110D01*
X59574309Y-94466428D01*
X59564385Y-94472947D01*
X59533144Y-94491422D01*
X59533139Y-94491426D01*
X59526321Y-94495458D01*
X59511997Y-94509782D01*
X59496965Y-94522621D01*
X59480577Y-94534528D01*
X59459587Y-94559901D01*
X59452396Y-94568593D01*
X59444406Y-94577373D01*
X55089095Y-98932684D01*
X55026783Y-98966710D01*
X54955968Y-98961645D01*
X54910905Y-98932684D01*
X50765968Y-94787747D01*
X50758428Y-94779461D01*
X50754316Y-94772982D01*
X50704664Y-94726356D01*
X50701823Y-94723602D01*
X50682086Y-94703865D01*
X50678889Y-94701385D01*
X50669867Y-94693680D01*
X50643416Y-94668841D01*
X50637637Y-94663414D01*
X50630691Y-94659595D01*
X50630688Y-94659593D01*
X50619882Y-94653652D01*
X50603363Y-94642801D01*
X50602899Y-94642441D01*
X50587357Y-94630386D01*
X50580088Y-94627241D01*
X50580084Y-94627238D01*
X50546779Y-94612826D01*
X50536129Y-94607609D01*
X50497376Y-94586305D01*
X50477753Y-94581267D01*
X50459050Y-94574863D01*
X50447736Y-94569967D01*
X50447735Y-94569967D01*
X50440461Y-94566819D01*
X50432638Y-94565580D01*
X50432628Y-94565577D01*
X50396792Y-94559901D01*
X50385172Y-94557495D01*
X50350027Y-94548472D01*
X50350026Y-94548472D01*
X50342346Y-94546500D01*
X50322092Y-94546500D01*
X50302381Y-94544949D01*
X50290202Y-94543020D01*
X50282373Y-94541780D01*
X50274481Y-94542526D01*
X50238355Y-94545941D01*
X50226497Y-94546500D01*
X41234500Y-94546500D01*
X41166379Y-94526498D01*
X41119886Y-94472842D01*
X41108500Y-94420500D01*
X41108500Y-94281866D01*
X41101745Y-94219684D01*
X41050615Y-94083295D01*
X40963261Y-93966739D01*
X40846705Y-93879385D01*
X40710316Y-93828255D01*
X40648134Y-93821500D01*
X38851866Y-93821500D01*
X38789684Y-93828255D01*
X38653295Y-93879385D01*
X38536739Y-93966739D01*
X38449385Y-94083295D01*
X38398255Y-94219684D01*
X38391500Y-94281866D01*
X38391500Y-95590405D01*
X38371498Y-95658526D01*
X38354595Y-95679500D01*
X38223595Y-95810500D01*
X38161283Y-95844526D01*
X38090468Y-95839461D01*
X38033632Y-95796914D01*
X38008821Y-95730394D01*
X38008500Y-95721405D01*
X38008500Y-92977885D01*
X63229500Y-92977885D01*
X63233975Y-92993124D01*
X63235365Y-92994329D01*
X63243048Y-92996000D01*
X64002885Y-92996000D01*
X64018124Y-92991525D01*
X64019329Y-92990135D01*
X64021000Y-92982452D01*
X64021000Y-92285115D01*
X64016525Y-92269876D01*
X64015135Y-92268671D01*
X64007452Y-92267000D01*
X63928734Y-92267000D01*
X63922218Y-92267337D01*
X63828368Y-92277075D01*
X63814972Y-92279968D01*
X63663547Y-92330488D01*
X63650385Y-92336653D01*
X63515008Y-92420426D01*
X63503610Y-92429460D01*
X63391137Y-92542129D01*
X63382125Y-92553540D01*
X63298588Y-92689063D01*
X63292444Y-92702241D01*
X63242185Y-92853766D01*
X63239319Y-92867132D01*
X63229828Y-92959770D01*
X63229500Y-92966185D01*
X63229500Y-92977885D01*
X38008500Y-92977885D01*
X38008500Y-72884500D01*
X38028502Y-72816379D01*
X38082158Y-72769886D01*
X38134500Y-72758500D01*
X88865500Y-72758500D01*
X88933621Y-72778502D01*
G37*
%TD.AperFunction*%
%TA.AperFunction,Conductor*%
G36*
X59946121Y-96266002D02*
G01*
X59992614Y-96319658D01*
X60004000Y-96372000D01*
X60004000Y-98378000D01*
X59983998Y-98446121D01*
X59930342Y-98492614D01*
X59878000Y-98504000D01*
X58722615Y-98504000D01*
X58707376Y-98508475D01*
X58706171Y-98509865D01*
X58704558Y-98517282D01*
X58670534Y-98579594D01*
X58608222Y-98613620D01*
X58581437Y-98616500D01*
X57578768Y-98616500D01*
X57567585Y-98615973D01*
X57560092Y-98614298D01*
X57552167Y-98614547D01*
X57552166Y-98614547D01*
X57543408Y-98614822D01*
X57505664Y-98616009D01*
X57436950Y-98598157D01*
X57388795Y-98545989D01*
X57376488Y-98476067D01*
X57403937Y-98410591D01*
X57412612Y-98400976D01*
X58652972Y-97160616D01*
X58715284Y-97126590D01*
X58786099Y-97131655D01*
X58842935Y-97174202D01*
X58849213Y-97183410D01*
X58857929Y-97197495D01*
X58866960Y-97208890D01*
X58943994Y-97285790D01*
X58978073Y-97348073D01*
X58973070Y-97418893D01*
X58944149Y-97463981D01*
X58866137Y-97542129D01*
X58857125Y-97553540D01*
X58773588Y-97689063D01*
X58767444Y-97702241D01*
X58717185Y-97853766D01*
X58714319Y-97867132D01*
X58704828Y-97959770D01*
X58704500Y-97966185D01*
X58704500Y-97977885D01*
X58708975Y-97993124D01*
X58710365Y-97994329D01*
X58718048Y-97996000D01*
X59477885Y-97996000D01*
X59493124Y-97991525D01*
X59494329Y-97990135D01*
X59496000Y-97982452D01*
X59496000Y-96372000D01*
X59516002Y-96303879D01*
X59569658Y-96257386D01*
X59622000Y-96246000D01*
X59878000Y-96246000D01*
X59946121Y-96266002D01*
G37*
%TD.AperFunction*%
%TD*%
M02*
