%TF.GenerationSoftware,KiCad,Pcbnew,(6.0.4)*%
%TF.CreationDate,2022-04-28T19:14:27+02:00*%
%TF.ProjectId,MSK_RF,4d534b5f-5246-42e6-9b69-6361645f7063,rev?*%
%TF.SameCoordinates,Original*%
%TF.FileFunction,Paste,Top*%
%TF.FilePolarity,Positive*%
%FSLAX46Y46*%
G04 Gerber Fmt 4.6, Leading zero omitted, Abs format (unit mm)*
G04 Created by KiCad (PCBNEW (6.0.4)) date 2022-04-28 19:14:27*
%MOMM*%
%LPD*%
G01*
G04 APERTURE LIST*
G04 Aperture macros list*
%AMRoundRect*
0 Rectangle with rounded corners*
0 $1 Rounding radius*
0 $2 $3 $4 $5 $6 $7 $8 $9 X,Y pos of 4 corners*
0 Add a 4 corners polygon primitive as box body*
4,1,4,$2,$3,$4,$5,$6,$7,$8,$9,$2,$3,0*
0 Add four circle primitives for the rounded corners*
1,1,$1+$1,$2,$3*
1,1,$1+$1,$4,$5*
1,1,$1+$1,$6,$7*
1,1,$1+$1,$8,$9*
0 Add four rect primitives between the rounded corners*
20,1,$1+$1,$2,$3,$4,$5,0*
20,1,$1+$1,$4,$5,$6,$7,0*
20,1,$1+$1,$6,$7,$8,$9,0*
20,1,$1+$1,$8,$9,$2,$3,0*%
G04 Aperture macros list end*
%ADD10R,0.425000X0.300000*%
%ADD11RoundRect,0.237500X0.237500X-0.300000X0.237500X0.300000X-0.237500X0.300000X-0.237500X-0.300000X0*%
%ADD12R,1.400000X2.100000*%
%ADD13RoundRect,0.237500X-0.237500X0.250000X-0.237500X-0.250000X0.237500X-0.250000X0.237500X0.250000X0*%
%ADD14RoundRect,0.237500X-0.250000X-0.237500X0.250000X-0.237500X0.250000X0.237500X-0.250000X0.237500X0*%
%ADD15RoundRect,0.237500X-0.287500X-0.237500X0.287500X-0.237500X0.287500X0.237500X-0.287500X0.237500X0*%
%ADD16RoundRect,0.237500X-0.237500X0.287500X-0.237500X-0.287500X0.237500X-0.287500X0.237500X0.287500X0*%
%ADD17R,2.200000X1.600000*%
%ADD18RoundRect,0.237500X0.250000X0.237500X-0.250000X0.237500X-0.250000X-0.237500X0.250000X-0.237500X0*%
%ADD19RoundRect,0.237500X0.237500X-0.250000X0.237500X0.250000X-0.237500X0.250000X-0.237500X-0.250000X0*%
%ADD20RoundRect,0.237500X0.300000X0.237500X-0.300000X0.237500X-0.300000X-0.237500X0.300000X-0.237500X0*%
%ADD21RoundRect,0.150000X0.512500X0.150000X-0.512500X0.150000X-0.512500X-0.150000X0.512500X-0.150000X0*%
%ADD22R,2.290000X5.080000*%
%ADD23R,2.420000X5.080000*%
%ADD24R,0.850000X0.300000*%
%ADD25R,0.300000X0.850000*%
%ADD26R,5.700000X5.700000*%
%ADD27RoundRect,0.237500X-0.237500X0.300000X-0.237500X-0.300000X0.237500X-0.300000X0.237500X0.300000X0*%
%ADD28RoundRect,0.237500X0.237500X-0.287500X0.237500X0.287500X-0.237500X0.287500X-0.237500X-0.287500X0*%
%ADD29RoundRect,0.237500X0.287500X0.237500X-0.287500X0.237500X-0.287500X-0.237500X0.287500X-0.237500X0*%
%ADD30R,1.900000X1.100000*%
%ADD31R,0.450000X1.380000*%
%ADD32R,1.475000X2.100000*%
%ADD33R,1.175000X1.900000*%
%ADD34R,2.375000X1.900000*%
%ADD35RoundRect,0.100000X0.100000X-0.712500X0.100000X0.712500X-0.100000X0.712500X-0.100000X-0.712500X0*%
%ADD36RoundRect,0.237500X-0.300000X-0.237500X0.300000X-0.237500X0.300000X0.237500X-0.300000X0.237500X0*%
%ADD37R,0.850000X0.750000*%
G04 APERTURE END LIST*
D10*
%TO.C,D3*%
X50969000Y-91500000D03*
X50344000Y-91500000D03*
%TD*%
D11*
%TO.C,C29*%
X76225000Y-83725000D03*
X76225000Y-82000000D03*
%TD*%
D12*
%TO.C,S2*%
X49000000Y-78150000D03*
X49000000Y-87250000D03*
X44500000Y-78150000D03*
X44500000Y-87250000D03*
%TD*%
D13*
%TO.C,R10*%
X74225000Y-82000000D03*
X74225000Y-83825000D03*
%TD*%
D14*
%TO.C,R4*%
X49175000Y-95250000D03*
X51000000Y-95250000D03*
%TD*%
D10*
%TO.C,D2*%
X56719000Y-92250000D03*
X56094000Y-92250000D03*
%TD*%
D15*
%TO.C,D1*%
X52400000Y-105100000D03*
X54150000Y-105100000D03*
%TD*%
D11*
%TO.C,C16*%
X69250000Y-122250000D03*
X69250000Y-120525000D03*
%TD*%
D16*
%TO.C,L5*%
X69250000Y-117000000D03*
X69250000Y-118750000D03*
%TD*%
D17*
%TO.C,C2*%
X76500000Y-98000000D03*
X79500000Y-98000000D03*
%TD*%
D18*
%TO.C,R1*%
X58400000Y-105100000D03*
X56575000Y-105100000D03*
%TD*%
D12*
%TO.C,S3*%
X49250000Y-130600000D03*
X49250000Y-121500000D03*
X53750000Y-130600000D03*
X53750000Y-121500000D03*
%TD*%
D19*
%TO.C,R8*%
X59500000Y-128325000D03*
X59500000Y-126500000D03*
%TD*%
D18*
%TO.C,R9*%
X58400000Y-103100000D03*
X56575000Y-103100000D03*
%TD*%
D11*
%TO.C,C24*%
X69250000Y-137862500D03*
X69250000Y-136137500D03*
%TD*%
D20*
%TO.C,C25*%
X51000000Y-93500000D03*
X49275000Y-93500000D03*
%TD*%
D21*
%TO.C,U3*%
X71825000Y-83900000D03*
X71825000Y-82950000D03*
X71825000Y-82000000D03*
X69550000Y-82000000D03*
X69550000Y-83900000D03*
%TD*%
D22*
%TO.C,J4*%
X69250000Y-142802260D03*
D23*
X64870000Y-142802260D03*
X73630000Y-142802260D03*
%TD*%
D24*
%TO.C,U1*%
X63550000Y-103250000D03*
X63550000Y-103750000D03*
X63550000Y-104250000D03*
X63550000Y-104750000D03*
X63550000Y-105250000D03*
X63550000Y-105750000D03*
X63550000Y-106250000D03*
X63550000Y-106750000D03*
X63550000Y-107250000D03*
X63550000Y-107750000D03*
X63550000Y-108250000D03*
X63550000Y-108750000D03*
D25*
X64250000Y-109450000D03*
X64750000Y-109450000D03*
X65250000Y-109450000D03*
X65750000Y-109450000D03*
X66250000Y-109450000D03*
X66750000Y-109450000D03*
X67250000Y-109450000D03*
X67750000Y-109450000D03*
X68250000Y-109450000D03*
X68750000Y-109450000D03*
X69250000Y-109450000D03*
X69750000Y-109450000D03*
D24*
X70450000Y-108750000D03*
X70450000Y-108250000D03*
X70450000Y-107750000D03*
X70450000Y-107250000D03*
X70450000Y-106750000D03*
X70450000Y-106250000D03*
X70450000Y-105750000D03*
X70450000Y-105250000D03*
X70450000Y-104750000D03*
X70450000Y-104250000D03*
X70450000Y-103750000D03*
X70450000Y-103250000D03*
D25*
X69750000Y-102550000D03*
X69250000Y-102550000D03*
X68750000Y-102550000D03*
X68250000Y-102550000D03*
X67750000Y-102550000D03*
X67250000Y-102550000D03*
X66750000Y-102550000D03*
X66250000Y-102550000D03*
X65750000Y-102550000D03*
X65250000Y-102550000D03*
X64750000Y-102550000D03*
X64250000Y-102550000D03*
D26*
X67000000Y-106000000D03*
%TD*%
D14*
%TO.C,R3*%
X55000000Y-96250000D03*
X56825000Y-96250000D03*
%TD*%
D20*
%TO.C,C26*%
X72975000Y-125750000D03*
X71250000Y-125750000D03*
%TD*%
D15*
%TO.C,D6*%
X52400000Y-103100000D03*
X54150000Y-103100000D03*
%TD*%
D27*
%TO.C,C11*%
X65300000Y-115962500D03*
X65300000Y-117687500D03*
%TD*%
D28*
%TO.C,D7*%
X74250000Y-87500000D03*
X74250000Y-85750000D03*
%TD*%
D29*
%TO.C,L2*%
X67050000Y-113712500D03*
X65300000Y-113712500D03*
%TD*%
D12*
%TO.C,S1*%
X57000000Y-87350000D03*
X57000000Y-78250000D03*
X61500000Y-87350000D03*
X61500000Y-78250000D03*
%TD*%
D17*
%TO.C,C1*%
X76500000Y-94250000D03*
X79500000Y-94250000D03*
%TD*%
D30*
%TO.C,Y1*%
X73000000Y-97250000D03*
X73000000Y-94750000D03*
%TD*%
D11*
%TO.C,C14*%
X72250000Y-118725000D03*
X72250000Y-117000000D03*
%TD*%
D31*
%TO.C,J5*%
X71847500Y-77610000D03*
X71197500Y-77610000D03*
X70547500Y-77610000D03*
X69897500Y-77610000D03*
X69247500Y-77610000D03*
D32*
X68095000Y-77250000D03*
X73000000Y-77250000D03*
D33*
X71385000Y-74950000D03*
X69710000Y-74950000D03*
D34*
X73460000Y-74950000D03*
X67635000Y-74950000D03*
%TD*%
D20*
%TO.C,C12*%
X73975000Y-113500000D03*
X72250000Y-113500000D03*
%TD*%
%TO.C,C10*%
X73975000Y-111750000D03*
X72250000Y-111750000D03*
%TD*%
D35*
%TO.C,U2*%
X67300000Y-133225000D03*
X67950000Y-133225000D03*
X68600000Y-133225000D03*
X69250000Y-133225000D03*
X69250000Y-129000000D03*
X68600000Y-129000000D03*
X67950000Y-129000000D03*
X67300000Y-129000000D03*
%TD*%
D20*
%TO.C,C13*%
X56750000Y-94250000D03*
X55025000Y-94250000D03*
%TD*%
D36*
%TO.C,C27*%
X56000000Y-117750000D03*
X57725000Y-117750000D03*
%TD*%
D29*
%TO.C,L4*%
X71000000Y-115250000D03*
X69250000Y-115250000D03*
%TD*%
D10*
%TO.C,D4*%
X57625000Y-115750000D03*
X57000000Y-115750000D03*
%TD*%
D20*
%TO.C,C15*%
X76000000Y-118750000D03*
X74275000Y-118750000D03*
%TD*%
D27*
%TO.C,C9*%
X67000000Y-115975000D03*
X67000000Y-117700000D03*
%TD*%
D11*
%TO.C,C30*%
X67325000Y-85625000D03*
X67325000Y-83900000D03*
%TD*%
D16*
%TO.C,L6*%
X69250000Y-124000000D03*
X69250000Y-125750000D03*
%TD*%
D37*
%TO.C,Y2*%
X78850000Y-108500000D03*
X77500000Y-108500000D03*
X77500000Y-109550000D03*
X78850000Y-109550000D03*
%TD*%
M02*
