%TF.GenerationSoftware,KiCad,Pcbnew,(6.0.4)*%
%TF.CreationDate,2022-04-26T10:44:58+02:00*%
%TF.ProjectId,MSK_RF,4d534b5f-5246-42e6-9b69-6361645f7063,rev?*%
%TF.SameCoordinates,Original*%
%TF.FileFunction,Soldermask,Bot*%
%TF.FilePolarity,Negative*%
%FSLAX46Y46*%
G04 Gerber Fmt 4.6, Leading zero omitted, Abs format (unit mm)*
G04 Created by KiCad (PCBNEW (6.0.4)) date 2022-04-26 10:44:58*
%MOMM*%
%LPD*%
G01*
G04 APERTURE LIST*
G04 Aperture macros list*
%AMRoundRect*
0 Rectangle with rounded corners*
0 $1 Rounding radius*
0 $2 $3 $4 $5 $6 $7 $8 $9 X,Y pos of 4 corners*
0 Add a 4 corners polygon primitive as box body*
4,1,4,$2,$3,$4,$5,$6,$7,$8,$9,$2,$3,0*
0 Add four circle primitives for the rounded corners*
1,1,$1+$1,$2,$3*
1,1,$1+$1,$4,$5*
1,1,$1+$1,$6,$7*
1,1,$1+$1,$8,$9*
0 Add four rect primitives between the rounded corners*
20,1,$1+$1,$2,$3,$4,$5,0*
20,1,$1+$1,$4,$5,$6,$7,0*
20,1,$1+$1,$6,$7,$8,$9,0*
20,1,$1+$1,$8,$9,$2,$3,0*%
G04 Aperture macros list end*
%ADD10R,2.420000X5.080000*%
%ADD11R,1.700000X1.700000*%
%ADD12O,1.700000X1.700000*%
%ADD13RoundRect,0.237500X-0.287500X-0.237500X0.287500X-0.237500X0.287500X0.237500X-0.287500X0.237500X0*%
%ADD14RoundRect,0.237500X-0.237500X0.300000X-0.237500X-0.300000X0.237500X-0.300000X0.237500X0.300000X0*%
%ADD15RoundRect,0.237500X-0.300000X-0.237500X0.300000X-0.237500X0.300000X0.237500X-0.300000X0.237500X0*%
%ADD16RoundRect,0.237500X0.300000X0.237500X-0.300000X0.237500X-0.300000X-0.237500X0.300000X-0.237500X0*%
%ADD17RoundRect,0.237500X0.250000X0.237500X-0.250000X0.237500X-0.250000X-0.237500X0.250000X-0.237500X0*%
%ADD18RoundRect,0.237500X0.237500X-0.300000X0.237500X0.300000X-0.237500X0.300000X-0.237500X-0.300000X0*%
G04 APERTURE END LIST*
D10*
%TO.C,J4*%
X64870000Y-142802260D03*
X73630000Y-142802260D03*
%TD*%
D11*
%TO.C,JP1*%
X59500000Y-121250000D03*
D12*
X59500000Y-123790000D03*
%TD*%
D11*
%TO.C,J2*%
X87250000Y-95180000D03*
D12*
X87250000Y-97720000D03*
X87250000Y-100260000D03*
X87250000Y-102800000D03*
X87250000Y-105340000D03*
X87250000Y-107880000D03*
X87250000Y-110420000D03*
X87250000Y-112960000D03*
X87250000Y-115500000D03*
X87250000Y-118040000D03*
X87250000Y-120580000D03*
X87250000Y-123120000D03*
%TD*%
D11*
%TO.C,J1*%
X87250000Y-77500000D03*
D12*
X87250000Y-80040000D03*
X87250000Y-82580000D03*
X87250000Y-85120000D03*
X87250000Y-87660000D03*
%TD*%
D11*
%TO.C,J3*%
X39750000Y-95180000D03*
D12*
X39750000Y-97720000D03*
X39750000Y-100260000D03*
X39750000Y-102800000D03*
X39750000Y-105340000D03*
X39750000Y-107880000D03*
X39750000Y-110420000D03*
X39750000Y-112960000D03*
X39750000Y-115500000D03*
X39750000Y-118040000D03*
X39750000Y-120580000D03*
X39750000Y-123120000D03*
%TD*%
D13*
%TO.C,L1*%
X59750000Y-100250000D03*
X61500000Y-100250000D03*
%TD*%
D14*
%TO.C,C22*%
X73000000Y-97775000D03*
X73000000Y-99500000D03*
%TD*%
D15*
%TO.C,C5*%
X73525000Y-107000000D03*
X75250000Y-107000000D03*
%TD*%
D16*
%TO.C,C3*%
X61475000Y-96500000D03*
X59750000Y-96500000D03*
%TD*%
D15*
%TO.C,C23*%
X67737500Y-97750000D03*
X69462500Y-97750000D03*
%TD*%
%TO.C,C21*%
X64275000Y-97750000D03*
X66000000Y-97750000D03*
%TD*%
D16*
%TO.C,C7*%
X75225000Y-109500000D03*
X73500000Y-109500000D03*
%TD*%
%TO.C,C8*%
X77975000Y-104000000D03*
X76250000Y-104000000D03*
%TD*%
D15*
%TO.C,C20*%
X67750000Y-96250000D03*
X69475000Y-96250000D03*
%TD*%
D17*
%TO.C,R5*%
X63100000Y-129700000D03*
X61275000Y-129700000D03*
%TD*%
D16*
%TO.C,C6*%
X58000000Y-100250000D03*
X56275000Y-100250000D03*
%TD*%
D15*
%TO.C,C19*%
X64275000Y-96250000D03*
X66000000Y-96250000D03*
%TD*%
D16*
%TO.C,C32*%
X79800000Y-129300000D03*
X78075000Y-129300000D03*
%TD*%
D15*
%TO.C,C31*%
X61375000Y-133200000D03*
X63100000Y-133200000D03*
%TD*%
%TO.C,C17*%
X64275000Y-93250000D03*
X66000000Y-93250000D03*
%TD*%
D17*
%TO.C,R6*%
X63100000Y-131450000D03*
X61275000Y-131450000D03*
%TD*%
%TO.C,R7*%
X76325000Y-129300000D03*
X74500000Y-129300000D03*
%TD*%
D16*
%TO.C,C4*%
X61475000Y-98250000D03*
X59750000Y-98250000D03*
%TD*%
D18*
%TO.C,C18*%
X57500000Y-110475000D03*
X57500000Y-108750000D03*
%TD*%
M02*
