M48
; DRILL file {KiCad (6.0.4)} date Thu Apr 28 19:06:05 2022
; FORMAT={-:-/ absolute / metric / decimal}
; #@! TF.CreationDate,2022-04-28T19:06:05+02:00
; #@! TF.GenerationSoftware,Kicad,Pcbnew,(6.0.4)
; #@! TF.FileFunction,Plated,1,2,PTH
FMAT,2
METRIC
; #@! TA.AperFunction,Plated,PTH,ViaDrill
T1C0.400
; #@! TA.AperFunction,Plated,PTH,ComponentDrill
T2C0.460
; #@! TA.AperFunction,Plated,PTH,ComponentDrill
T3C1.000
%
G90
G05
T1
X38.5Y-135.5
X38.5Y-137.0
X38.5Y-138.5
X38.5Y-140.0
X38.5Y-141.5
X38.5Y-143.0
X38.5Y-144.5
X39.75Y-135.5
X39.75Y-137.0
X39.75Y-138.5
X39.75Y-140.0
X39.75Y-141.5
X39.75Y-143.0
X39.75Y-144.5
X41.25Y-135.5
X41.25Y-137.0
X41.25Y-138.5
X41.25Y-140.0
X41.25Y-141.5
X41.25Y-143.0
X41.25Y-144.5
X42.75Y-135.5
X42.75Y-137.0
X42.75Y-138.5
X42.75Y-140.0
X42.75Y-141.5
X42.75Y-143.0
X42.75Y-144.5
X44.25Y-135.5
X44.25Y-137.0
X44.25Y-138.5
X44.25Y-140.0
X44.25Y-141.5
X44.25Y-143.0
X44.25Y-144.5
X45.75Y-135.5
X45.75Y-137.0
X45.75Y-138.5
X45.75Y-140.0
X45.75Y-141.5
X45.75Y-143.0
X45.75Y-144.5
X47.25Y-135.5
X47.25Y-137.0
X47.25Y-138.5
X47.25Y-140.0
X47.25Y-141.5
X47.25Y-143.0
X47.25Y-144.5
X48.75Y-135.5
X48.75Y-137.0
X48.75Y-138.5
X48.75Y-140.0
X48.75Y-141.5
X48.75Y-143.0
X48.75Y-144.5
X49.25Y-104.0
X50.25Y-118.25
X50.25Y-135.5
X50.25Y-137.0
X50.25Y-138.5
X50.25Y-140.0
X50.25Y-141.5
X50.25Y-143.0
X50.25Y-144.5
X51.75Y-135.5
X51.75Y-137.0
X51.75Y-138.5
X51.75Y-140.0
X51.75Y-141.5
X51.75Y-143.0
X51.75Y-144.5
X53.25Y-135.5
X53.25Y-137.0
X53.25Y-138.5
X53.25Y-140.0
X53.25Y-141.5
X53.25Y-143.0
X53.25Y-144.5
X54.75Y-97.75
X54.75Y-113.5
X54.75Y-135.5
X54.75Y-137.0
X54.75Y-138.5
X54.75Y-140.0
X54.75Y-141.5
X54.75Y-143.0
X54.75Y-144.5
X56.0Y-102.0
X56.25Y-135.5
X56.25Y-137.0
X56.25Y-138.5
X56.25Y-140.0
X56.25Y-141.5
X56.25Y-143.0
X56.25Y-144.5
X57.75Y-135.5
X57.75Y-137.0
X57.75Y-138.5
X57.75Y-140.0
X57.75Y-141.5
X57.75Y-143.0
X57.75Y-144.5
X58.25Y-98.25
X59.0Y-108.724
X59.25Y-135.5
X59.25Y-137.0
X59.25Y-138.5
X59.25Y-140.0
X59.25Y-141.5
X59.25Y-143.0
X59.25Y-144.5
X59.75Y-103.25
X60.75Y-101.5
X60.75Y-135.5
X60.75Y-137.0
X60.75Y-138.5
X60.75Y-140.0
X60.75Y-141.5
X60.75Y-143.0
X60.75Y-144.5
X61.0Y-104.75
X61.0Y-119.75
X61.5Y-105.75
X61.5Y-118.75
X61.5Y-126.0
X61.75Y-114.25
X61.75Y-124.25
X61.975Y-113.0
X62.0Y-121.0
X62.0Y-122.75
X62.0Y-128.0
X62.25Y-135.5
X62.25Y-137.0
X62.25Y-138.5
X62.25Y-140.0
X62.25Y-141.5
X62.25Y-143.0
X62.25Y-144.5
X62.5Y-93.25
X62.5Y-119.75
X62.75Y-96.5
X62.75Y-117.0
X63.0Y-112.0
X63.25Y-122.0
X63.25Y-125.25
X63.25Y-126.75
X63.5Y-120.5
X63.5Y-123.75
X63.75Y-128.25
X63.75Y-135.5
X63.75Y-137.0
X64.0Y-116.75
X64.0Y-118.0
X64.25Y-100.0
X64.25Y-101.25
X64.25Y-121.5
X64.25Y-122.75
X64.25Y-124.5
X64.5Y-119.0
X64.5Y-125.75
X64.5Y-127.25
X64.5Y-129.5
X65.0Y-131.25
X65.0Y-135.5
X65.0Y-137.0
X65.2Y-133.2
X65.25Y-128.5
X66.0Y-91.5
X66.0Y-129.5
X66.25Y-99.75
X66.5Y-119.75
X66.5Y-121.75
X66.5Y-122.75
X66.5Y-124.0
X66.5Y-125.25
X66.5Y-126.5
X66.5Y-135.5
X66.5Y-137.0
X66.5Y-138.25
X67.0Y-119.0
X67.25Y-127.25
X67.75Y-119.75
X67.75Y-121.75
X67.75Y-122.75
X67.75Y-124.0
X67.75Y-125.25
X67.75Y-126.25
X67.75Y-135.5
X67.75Y-137.0
X67.75Y-138.75
X67.999Y-100.3
X68.0Y-116.75
X68.0Y-118.75
X69.793Y-100.046
X70.0Y-111.0
X70.0Y-112.25
X70.25Y-127.25
X70.5Y-93.5
X70.5Y-117.75
X70.5Y-135.0
X70.613Y-96.887
X70.75Y-119.855
X70.75Y-122.0
X70.75Y-123.0
X70.75Y-124.25
X70.75Y-128.25
X70.75Y-132.75
X70.75Y-136.75
X70.75Y-138.75
X71.0Y-112.0
X71.25Y-127.25
X71.25Y-131.0
X71.75Y-104.025
X71.75Y-121.5
X71.75Y-124.25
X71.75Y-134.25
X72.0Y-109.25
X72.0Y-129.3
X72.0Y-132.75
X72.0Y-136.0
X72.0Y-137.75
X72.012Y-100.512
X72.211Y-107.025
X72.25Y-122.5
X72.5Y-127.25
X72.5Y-131.25
X72.648Y-110.366
X73.0Y-121.5
X73.0Y-124.25
X73.0Y-128.25
X73.25Y-105.0
X73.25Y-119.5
X73.25Y-123.0
X73.5Y-132.75
X73.5Y-134.25
X73.5Y-135.75
X73.5Y-137.25
X73.75Y-127.25
X73.75Y-130.75
X74.0Y-121.75
X74.25Y-123.0
X74.5Y-115.0
X74.5Y-124.75
X74.5Y-126.25
X75.0Y-132.75
X75.0Y-134.25
X75.0Y-135.75
X75.0Y-137.25
X75.25Y-124.25
X75.25Y-127.5
X75.5Y-111.0
X75.5Y-112.25
X75.5Y-121.5
X75.5Y-122.75
X75.75Y-115.0
X75.75Y-125.75
X76.0Y-108.5
X76.25Y-132.75
X76.25Y-134.25
X76.25Y-135.75
X76.25Y-137.25
X76.25Y-138.75
X76.25Y-140.25
X76.25Y-141.75
X76.25Y-143.25
X76.25Y-144.75
X76.267Y-106.027
X76.5Y-127.75
X76.75Y-121.5
X76.75Y-122.75
X76.75Y-124.25
X77.0Y-125.5
X77.0Y-127.0
X77.75Y-112.0
X77.75Y-119.5
X77.75Y-132.75
X77.75Y-134.25
X77.75Y-135.75
X77.75Y-137.25
X77.75Y-138.75
X77.75Y-140.25
X77.75Y-141.75
X77.75Y-143.25
X77.75Y-144.75
X79.25Y-132.75
X79.25Y-134.25
X79.25Y-135.75
X79.25Y-137.25
X79.25Y-138.75
X79.25Y-140.25
X79.25Y-141.75
X79.25Y-143.25
X79.25Y-144.75
X80.0Y-121.75
X80.75Y-132.75
X80.75Y-134.25
X80.75Y-135.75
X80.75Y-137.25
X80.75Y-138.75
X80.75Y-140.25
X80.75Y-141.75
X80.75Y-143.25
X80.75Y-144.75
X82.25Y-132.75
X82.25Y-134.25
X82.25Y-135.75
X82.25Y-137.25
X82.25Y-138.75
X82.25Y-140.25
X82.25Y-141.75
X82.25Y-143.25
X82.25Y-144.75
X82.5Y-96.25
X82.5Y-98.75
X83.75Y-132.75
X83.75Y-134.25
X83.75Y-135.75
X83.75Y-137.25
X83.75Y-138.75
X83.75Y-140.25
X83.75Y-141.75
X83.75Y-143.25
X83.75Y-144.75
X84.0Y-90.25
X85.25Y-132.75
X85.25Y-134.25
X85.25Y-135.75
X85.25Y-137.25
X85.25Y-138.75
X85.25Y-140.25
X85.25Y-141.75
X85.25Y-143.25
X85.25Y-144.75
X86.75Y-132.75
X86.75Y-134.25
X86.75Y-135.75
X86.75Y-137.25
X86.75Y-138.75
X86.75Y-140.25
X86.75Y-141.75
X86.75Y-143.25
X86.75Y-144.75
X88.25Y-132.75
X88.25Y-134.25
X88.25Y-135.75
X88.25Y-137.25
X88.25Y-138.75
X88.25Y-140.25
X88.25Y-141.75
X88.25Y-143.25
X88.25Y-144.75
T2
X64.87Y-139.362
X73.63Y-139.362
T3
X39.75Y-95.18
X39.75Y-97.72
X39.75Y-100.26
X39.75Y-102.8
X39.75Y-105.34
X39.75Y-107.88
X39.75Y-110.42
X39.75Y-112.96
X39.75Y-115.5
X39.75Y-118.04
X39.75Y-120.58
X39.75Y-123.12
X59.5Y-121.25
X59.5Y-123.79
X87.25Y-77.5
X87.25Y-80.04
X87.25Y-82.58
X87.25Y-85.12
X87.25Y-87.66
X87.25Y-95.18
X87.25Y-97.72
X87.25Y-100.26
X87.25Y-102.8
X87.25Y-105.34
X87.25Y-107.88
X87.25Y-110.42
X87.25Y-112.96
X87.25Y-115.5
X87.25Y-118.04
X87.25Y-120.58
X87.25Y-123.12
T0
M30
